<svg width="50" height="51" viewBox="0 0 50 51" fill="none" xmlns="http://www.w3.org/2000/svg">
<g clip-path="url(#clip0)">
<path d="M24.9442 41.5846C16.0421 41.5846 8.81201 34.3545 8.81201 25.4525C8.81201 16.5504 16.0421 9.32031 24.9442 9.32031C33.8462 9.32031 41.0763 16.5504 41.0763 25.4525C41.0763 34.3545 33.8462 41.5846 24.9442 41.5846ZM24.9442 9.50106C16.1551 9.50106 8.99276 16.6634 8.99276 25.4525C8.99276 34.2416 16.1551 41.4039 24.9442 41.4039C33.7333 41.4039 40.8956 34.2416 40.8956 25.4525C40.8956 16.6634 33.7333 9.50106 24.9442 9.50106Z" fill="#231F20"/>
<path d="M47.6066 2.79102L43.1104 3.9885L46.4091 7.28723L47.6066 2.79102L43.1104 3.9885L46.4091 7.28723L47.6066 2.79102Z" fill="#414042"/>
<path d="M47.6066 48.1154L46.4091 43.6191L43.1104 46.9179L47.6066 48.1154L46.4091 43.6191L43.1104 46.9179L47.6066 48.1154Z" fill="#414042"/>
<path d="M2.28296 48.1154L6.77918 46.9179L3.48044 43.6191L2.28296 48.1154L6.77918 46.9179L3.48044 43.6191L2.28296 48.1154Z" fill="#414042"/>
<path d="M2.28271 2.79102L3.4802 7.28723L6.77893 3.9885L2.28271 2.79102L3.4802 7.28723L6.77893 3.9885L2.28271 2.79102Z" fill="#414042"/>
<path d="M27.1578 3.40096C27.4515 3.35577 27.6774 3.08464 27.6774 2.79092L38.5 0.825239L49.5711 11.8963L47.6054 22.7189C47.3116 22.7415 47.0405 22.9448 46.9953 23.2385C46.9276 23.6 47.1535 23.939 47.515 23.9841C47.8765 24.0519 48.2154 23.826 48.2606 23.4645C48.3058 23.1708 48.1476 22.877 47.8765 22.7641L49.8648 11.7834L38.5678 0.486328L27.587 2.47461C27.4741 2.20348 27.1804 2.04532 26.8866 2.09051C26.5251 2.15829 26.2992 2.4972 26.367 2.83611C26.4573 3.22021 26.7963 3.46874 27.1578 3.40096Z" fill="#414042"/>
<path d="M48.2833 27.4184C48.2155 27.0569 47.8766 26.8309 47.5377 26.8987C47.1762 26.9665 46.9502 27.3054 47.018 27.6443C47.0632 27.938 47.3343 28.164 47.6281 28.164L49.5937 38.9865L38.5227 50.0576L27.7001 48.0919C27.6775 47.7982 27.4742 47.5271 27.1804 47.4819C26.8189 47.4141 26.48 47.64 26.4348 48.0016C26.3671 48.3631 26.593 48.702 26.9545 48.7472C27.2482 48.7923 27.5419 48.6342 27.6549 48.3631L38.6356 50.3513L49.8649 39.1221L49.9101 39.0769L47.9218 28.0962C48.1703 28.0284 48.3285 27.7347 48.2833 27.4184Z" fill="#414042"/>
<path d="M22.7522 47.5034C22.4585 47.5486 22.2326 47.8197 22.2326 48.1134L11.41 50.0791L0.338911 39.008L2.30459 28.1855C2.59832 28.1629 2.86944 27.9595 2.91463 27.6658C2.98242 27.3043 2.75647 26.9654 2.39497 26.9202C2.03347 26.8524 1.69455 27.0783 1.64937 27.4399C1.60418 27.7336 1.76234 28.0273 2.03346 28.1403L0 39.121L11.2292 50.3502L11.2744 50.3954L22.2551 48.4071C22.3681 48.6783 22.6618 48.8364 22.9556 48.7912C23.3171 48.7235 23.543 48.3845 23.4752 48.0456C23.43 47.6841 23.0911 47.4356 22.7522 47.5034Z" fill="#414042"/>
<path d="M22.9782 2.13458C22.6844 2.0894 22.3907 2.24755 22.2777 2.51868L11.297 0.507812L0 11.8048L1.98828 22.7856C1.71715 22.8985 1.55899 23.1922 1.60418 23.486C1.67196 23.8475 2.01087 24.0734 2.34978 24.0056C2.71129 23.9378 2.93723 23.5989 2.86945 23.26C2.82426 22.9663 2.55313 22.7404 2.25941 22.7404L0.316317 11.8952L11.3874 0.824129L22.21 2.78981C22.2326 3.08353 22.4359 3.35466 22.7296 3.39985C23.0911 3.46763 23.43 3.24169 23.4752 2.88019C23.5656 2.51868 23.3171 2.17977 22.9782 2.13458Z" fill="#414042"/>
<path d="M43.8602 7.24202L43.1572 6.53906L42.4543 7.24202L43.1572 7.94497L43.8602 7.24202Z" fill="#231F20"/>
<path opacity="0.8025" d="M41.6915 8.01384L40.9885 8.7168L41.6915 9.41975L42.3944 8.7168L41.6915 8.01384Z" fill="#231F20"/>
<path opacity="0.605" d="M40.2127 9.46892L39.5098 10.1719L40.2127 10.8748L40.9157 10.1719L40.2127 9.46892Z" fill="#231F20"/>
<path opacity="0.4075" d="M38.7647 10.922L38.0618 11.625L38.7647 12.328L39.4677 11.625L38.7647 10.922Z" fill="#231F20"/>
<path opacity="0.21" d="M38.0094 13.0955L37.3064 12.3926L36.6034 13.0955L37.3064 13.7985L38.0094 13.0955Z" fill="#231F20"/>
<path d="M43.1628 44.369L43.8657 43.666L43.1628 42.9631L42.4598 43.666L43.1628 44.369Z" fill="#231F20"/>
<path opacity="0.8025" d="M41.6834 41.4982L40.9805 42.2012L41.6834 42.9041L42.3864 42.2012L41.6834 41.4982Z" fill="#231F20"/>
<path opacity="0.605" d="M40.2125 40.0373L39.5095 40.7402L40.2125 41.4432L40.9154 40.7402L40.2125 40.0373Z" fill="#231F20"/>
<path opacity="0.4075" d="M38.7742 38.5763L38.0713 39.2793L38.7742 39.9823L39.4772 39.2793L38.7742 38.5763Z" fill="#231F20"/>
<path opacity="0.21" d="M37.3058 38.5194L38.0088 37.8164L37.3058 37.1135L36.6029 37.8164L37.3058 38.5194Z" fill="#231F20"/>
<path d="M6.03264 43.672L6.7356 44.375L7.43855 43.672L6.73559 42.9691L6.03264 43.672Z" fill="#231F20"/>
<path opacity="0.8025" d="M8.19466 41.4924L7.4917 42.1953L8.19465 42.8983L8.89761 42.1953L8.19466 41.4924Z" fill="#231F20"/>
<path opacity="0.605" d="M9.64265 40.0392L8.9397 40.7422L9.64265 41.4451L10.3456 40.7422L9.64265 40.0392Z" fill="#231F20"/>
<path opacity="0.4075" d="M11.1224 38.5822L10.4194 39.2852L11.1224 39.9881L11.8253 39.2852L11.1224 38.5822Z" fill="#231F20"/>
<path opacity="0.21" d="M11.8898 37.8185L12.5928 38.5215L13.2957 37.8185L12.5928 37.1156L11.8898 37.8185Z" fill="#231F20"/>
<path d="M6.73323 6.54119L6.03027 7.24414L6.73323 7.9471L7.43618 7.24414L6.73323 6.54119Z" fill="#231F20"/>
<path opacity="0.8025" d="M8.20418 8.00603L7.50122 8.70898L8.20418 9.41194L8.90713 8.70898L8.20418 8.00603Z" fill="#231F20"/>
<path opacity="0.605" d="M9.64314 9.46892L8.94019 10.1719L9.64314 10.8748L10.3461 10.1719L9.64314 9.46892Z" fill="#231F20"/>
<path opacity="0.4075" d="M11.1141 10.9318L10.4111 11.6348L11.1141 12.3377L11.817 11.6348L11.1141 10.9318Z" fill="#231F20"/>
<path opacity="0.21" d="M12.5841 12.3947L11.8811 13.0977L12.5841 13.8006L13.287 13.0977L12.5841 12.3947Z" fill="#231F20"/>
<path d="M30.5792 31.1879H27.9416L26.8932 28.4602H22.0932L21.102 31.1879H18.53L23.2072 19.1797H25.771L30.5792 31.1879ZM26.115 26.437L24.4604 21.9811L22.8386 26.437H26.115Z" fill="#D16A16"/>
</g>
<defs>
<clipPath id="clip0">
<rect width="49.8877" height="49.8877" fill="white" transform="translate(0 0.507812)"/>
</clipPath>
</defs>
</svg>
