<svg width="97" height="97" viewBox="0 0 97 97" fill="none" xmlns="http://www.w3.org/2000/svg">
<g opacity="0.6" clip-path="url(#clip0)">
<path d="M48.4999 79.8685C31.191 79.8685 17.1331 65.8105 17.1331 48.5016C17.1331 31.1927 31.191 17.1348 48.4999 17.1348C65.8088 17.1348 79.8667 31.1927 79.8667 48.5016C79.8667 65.8105 65.8088 79.8685 48.4999 79.8685ZM48.4999 17.4862C31.4107 17.4862 17.4845 31.4124 17.4845 48.5016C17.4845 65.5908 31.4107 79.517 48.4999 79.517C65.5891 79.517 79.5153 65.5908 79.5153 48.5016C79.5153 31.4124 65.5891 17.4862 48.4999 17.4862Z" fill="white"/>
<path d="M92.5631 4.43555L83.8208 6.7639L90.2347 13.1778L92.5631 4.43555L83.8208 6.7639L90.2347 13.1778L92.5631 4.43555Z" fill="white"/>
<path d="M92.5631 92.5607L90.2347 83.8184L83.8208 90.2323L92.5631 92.5607L90.2347 83.8184L83.8208 90.2323L92.5631 92.5607Z" fill="white"/>
<path d="M4.43726 92.5607L13.1796 90.2323L6.76561 83.8184L4.43726 92.5607L13.1796 90.2323L6.76561 83.8184L4.43726 92.5607Z" fill="white"/>
<path d="M4.43774 4.43555L6.7661 13.1778L13.18 6.7639L4.43774 4.43555L6.7661 13.1778L13.18 6.7639L4.43774 4.43555Z" fill="white"/>
<path d="M52.805 5.62415C53.3761 5.53629 53.8155 5.00912 53.8155 4.43801L74.8585 0.615999L96.3847 22.1423L92.5627 43.1853C91.9916 43.2292 91.4645 43.6246 91.3766 44.1957C91.2448 44.8986 91.6841 45.5576 92.387 45.6454C93.0899 45.7772 93.7489 45.3379 93.8367 44.635C93.9246 44.0639 93.6171 43.4928 93.0899 43.2732L96.9558 21.9226L74.9903 -0.0429688L53.6397 3.82297C53.4201 3.2958 52.849 2.98828 52.2779 3.07614C51.575 3.20794 51.1357 3.8669 51.2674 4.52587C51.4432 5.2727 52.1021 5.75594 52.805 5.62415Z" fill="white"/>
<path d="M93.8807 52.3228C93.7489 51.6199 93.09 51.1806 92.431 51.3124C91.7281 51.4442 91.2888 52.1031 91.4206 52.7621C91.5084 53.3332 92.0356 53.7725 92.6067 53.7725L96.4287 74.8155L74.9025 96.3418L53.8594 92.5198C53.8155 91.9487 53.4201 91.4215 52.849 91.3336C52.1461 91.2018 51.4871 91.6412 51.3993 92.3441C51.2675 93.047 51.7068 93.7059 52.4097 93.7938C52.9808 93.8816 53.5519 93.5741 53.7716 93.047L75.1221 96.9129L96.9559 75.0791L97.0438 74.9913L93.1778 53.6407C93.6611 53.5089 93.9686 52.9378 93.8807 52.3228Z" fill="white"/>
<path d="M44.2387 91.3766C43.6676 91.4645 43.2283 91.9916 43.2283 92.5628L22.1852 96.3848L0.658967 74.8585L4.48098 53.8155C5.05208 53.7716 5.57926 53.3762 5.66712 52.8051C5.79891 52.1022 5.3596 51.4432 4.6567 51.3553C3.9538 51.2235 3.29484 51.6629 3.20697 52.3658C3.11911 52.9369 3.42663 53.508 3.9538 53.7276L0 75.0782L21.8338 96.9119L21.9216 96.9998L43.2722 93.1339C43.4919 93.661 44.063 93.9686 44.6341 93.8807C45.337 93.7489 45.7763 93.0899 45.6445 92.431C45.5566 91.7281 44.8976 91.2448 44.2387 91.3766Z" fill="white"/>
<path d="M44.678 3.165C44.1069 3.07713 43.5358 3.38465 43.3161 3.91183L21.9656 0.00195312L0 21.9675L3.86594 43.3181C3.33877 43.5377 3.03125 44.1088 3.11911 44.6799C3.25091 45.3828 3.90987 45.8222 4.56884 45.6904C5.27174 45.5586 5.71105 44.8996 5.57926 44.2406C5.49139 43.6695 4.96422 43.2302 4.39312 43.2302L0.615036 22.1433L22.1413 0.616989L43.1843 4.439C43.2283 5.01011 43.6236 5.53728 44.1947 5.62514C44.8976 5.75694 45.5566 5.31762 45.6445 4.61473C45.8202 3.91183 45.337 3.25286 44.678 3.165Z" fill="white"/>
<path d="M85.2799 13.0875L83.9131 11.7207L82.5463 13.0875L83.9131 14.4543L85.2799 13.0875Z" fill="white"/>
<path opacity="0.8025" d="M81.0626 14.5902L79.6958 15.957L81.0626 17.3238L82.4294 15.957L81.0626 14.5902Z" fill="white"/>
<path opacity="0.605" d="M78.1866 17.4164L76.8198 18.7832L78.1866 20.15L79.5534 18.7832L78.1866 17.4164Z" fill="white"/>
<path opacity="0.4075" d="M75.3719 20.2445L74.0051 21.6113L75.3719 22.9781L76.7387 21.6113L75.3719 20.2445Z" fill="white"/>
<path opacity="0.21" d="M73.9032 24.4703L72.5364 23.1035L71.1696 24.4703L72.5364 25.8371L73.9032 24.4703Z" fill="white"/>
<path d="M83.9232 85.275L85.29 83.9082L83.9232 82.5414L82.5564 83.9082L83.9232 85.275Z" fill="white"/>
<path opacity="0.8025" d="M81.0467 79.6957L79.6799 81.0625L81.0467 82.4293L82.4135 81.0625L81.0467 79.6957Z" fill="white"/>
<path opacity="0.605" d="M78.1871 76.852L76.8203 78.2188L78.1871 79.5855L79.5539 78.2188L78.1871 76.852Z" fill="white"/>
<path opacity="0.4075" d="M75.3898 74.0121L74.0229 75.3789L75.3898 76.7457L76.7566 75.3789L75.3898 74.0121Z" fill="white"/>
<path opacity="0.21" d="M72.536 73.902L73.9028 72.5352L72.536 71.1684L71.1692 72.5352L72.536 73.902Z" fill="white"/>
<path d="M11.7279 83.9223L13.0947 85.2891L14.4615 83.9223L13.0947 82.5555L11.7279 83.9223Z" fill="white"/>
<path opacity="0.8025" d="M15.933 79.6879L14.5662 81.0547L15.933 82.4215L17.2998 81.0547L15.933 79.6879Z" fill="white"/>
<path opacity="0.605" d="M18.7479 76.8559L17.3811 78.2227L18.7479 79.5895L20.1147 78.2227L18.7479 76.8559Z" fill="white"/>
<path opacity="0.4075" d="M21.6253 74.0297L20.2585 75.3965L21.6254 76.7633L22.9922 75.3965L21.6253 74.0297Z" fill="white"/>
<path opacity="0.21" d="M23.1166 72.5414L24.4834 73.9082L25.8502 72.5414L24.4834 71.1746L23.1166 72.5414Z" fill="white"/>
<path d="M13.0909 11.7289L11.7241 13.0957L13.0909 14.4625L14.4577 13.0957L13.0909 11.7289Z" fill="white"/>
<path opacity="0.8025" d="M15.9503 14.5726L14.5835 15.9395L15.9503 17.3063L17.3171 15.9395L15.9503 14.5726Z" fill="white"/>
<path opacity="0.605" d="M18.7484 17.4184L17.3816 18.7852L18.7484 20.152L20.1152 18.7852L18.7484 17.4184Z" fill="white"/>
<path opacity="0.4075" d="M21.6075 20.2641L20.2407 21.6309L21.6075 22.9977L22.9743 21.6309L21.6075 20.2641Z" fill="white"/>
<path opacity="0.21" d="M24.4674 23.1098L23.1006 24.4766L24.4674 25.8434L25.8342 24.4766L24.4674 23.1098Z" fill="white"/>
</g>
<defs>
<clipPath id="clip0">
<rect width="97" height="97" fill="white"/>
</clipPath>
</defs>
</svg>
