<svg width="37" height="182" viewBox="0 0 37 182" fill="none" xmlns="http://www.w3.org/2000/svg">
<path d="M36.5652 33.5652L36.5652 33.5217L35.7391 33.5217L35.7391 26.3478L36.5652 26.3478L36.5652 13L35.7391 13L35.7391 5.17391L36.5652 5.17391L36.5652 1.69565L35.3043 0.434783L31.8261 0.434782L31.8261 1.26087L24.6522 1.26087L24.6522 0.434782L20.0435 0.434782L11.3043 0.434782L11.3043 1.26087L3.47826 1.26087L3.47826 0.434781L3.43478 0.434781L3.43478 -1.46718e-06L0 -1.61732e-06L-1.48239e-07 3.3913L3.43478 3.3913L3.43478 3L3.47826 3L3.47826 2.13043L11.3043 2.13043L11.3043 3L20.0435 3L24.6522 3L24.6522 2.13043L31.8261 2.13043L31.8261 3L34 3L34 5.17391L34.8696 5.17391L34.8696 13L34 13L34 26.3478L34.8696 26.3478L34.8696 33.5217L34 33.5217L34 33.5652L33.6087 33.5652L33.6087 37L34 37L36.5652 37L37 37L37 33.5652L36.5652 33.5652Z" fill="white"/>
<path d="M36.5652 148.435L36.5652 148.478L35.7391 148.478L35.7391 155.652L36.5652 155.652L36.5652 169L35.7391 169L35.7391 176.826L36.5652 176.826L36.5652 180.304L35.3043 181.565L31.8261 181.565L31.8261 180.739L24.6522 180.739L24.6522 181.565L20.0435 181.565L11.3043 181.565L11.3043 180.739L3.47826 180.739L3.47826 181.565L3.43478 181.565L3.43478 182L0 182L-1.48239e-07 178.609L3.43478 178.609L3.43478 179L3.47826 179L3.47826 179.87L11.3043 179.87L11.3043 179L20.0435 179L24.6522 179L24.6522 179.87L31.8261 179.87L31.8261 179L34 179L34 176.826L34.8696 176.826L34.8696 169L34 169L34 155.652L34.8696 155.652L34.8696 148.478L34 148.478L34 148.435L33.6087 148.435L33.6087 145L34 145L36.5652 145L37 145L37 148.435L36.5652 148.435Z" fill="white"/>
</svg>
