<svg width="37" height="182" viewBox="0 0 37 182" fill="none" xmlns="http://www.w3.org/2000/svg">
<path d="M33.5652 0.434783H33.5217V1.26087H26.3478V0.434783H13V1.26087H5.17391V0.434783H1.69565L0.434783 1.69565V5.17391H1.26087V12.3478H0.434783V16.9565V25.6957H1.26087V33.5217H0.434783V33.5652H0V37H3.3913V33.5652H3V33.5217H2.13043V25.6957H3V16.9565V12.3478H2.13043V5.17391H3V3H5.17391V2.13043H13V3H26.3478V2.13043H33.5217V3H33.5652V3.3913H37V3V0.434783V0H33.5652V0.434783Z" fill="white"/>
<path d="M33.5652 181.565H33.5217V180.739H26.3478V181.565H13V180.739H5.17391V181.565H1.69565L0.434783 180.304V176.826H1.26087V169.652H0.434783V165.043V156.304H1.26087V148.478H0.434783V148.435H0V145H3.3913V148.435H3V148.478H2.13043V156.304H3V165.043V169.652H2.13043V176.826H3V179H5.17391V179.87H13V179H26.3478V179.87H33.5217V179H33.5652V178.609H37V179V181.565V182H33.5652V181.565Z" fill="white"/>
</svg>
