<svg width="50" height="50" viewBox="0 0 50 50" fill="none" xmlns="http://www.w3.org/2000/svg">
<g clip-path="url(#clip0)">
<path d="M24.9442 41.0749C16.0421 41.0749 8.81201 33.8448 8.81201 24.9427C8.81201 16.0406 16.0421 8.81055 24.9442 8.81055C33.8462 8.81055 41.0763 16.0406 41.0763 24.9427C41.0763 33.8448 33.8462 41.0749 24.9442 41.0749ZM24.9442 8.9913C16.1551 8.9913 8.99276 16.1536 8.99276 24.9427C8.99276 33.7318 16.1551 40.8941 24.9442 40.8941C33.7333 40.8941 40.8956 33.7318 40.8956 24.9427C40.8956 16.1536 33.7333 8.9913 24.9442 8.9913Z" fill="#231F20"/>
<path d="M47.6058 2.28125L43.1096 3.47873L46.4083 6.77747L47.6058 2.28125L43.1096 3.47873L46.4083 6.77747L47.6058 2.28125Z" fill="#414042"/>
<path d="M47.6058 47.6056L46.4083 43.1094L43.1096 46.4081L47.6058 47.6056L46.4083 43.1094L43.1096 46.4081L47.6058 47.6056Z" fill="#414042"/>
<path d="M2.28223 47.6056L6.77844 46.4081L3.47971 43.1094L2.28223 47.6056L6.77844 46.4081L3.47971 43.1094L2.28223 47.6056Z" fill="#414042"/>
<path d="M2.28174 2.28125L3.47922 6.77747L6.77796 3.47873L2.28174 2.28125L3.47922 6.77747L6.77796 3.47873L2.28174 2.28125Z" fill="#414042"/>
<path d="M27.1578 2.8912C27.4515 2.84601 27.6774 2.57488 27.6774 2.28116L38.5 0.315473L49.5711 11.3866L47.6054 22.2091C47.3116 22.2317 47.0405 22.4351 46.9953 22.7288C46.9276 23.0903 47.1535 23.4292 47.515 23.4744C47.8765 23.5422 48.2154 23.3162 48.2606 22.9547C48.3058 22.661 48.1476 22.3673 47.8765 22.2543L49.8648 11.2736L38.5678 -0.0234375L27.587 1.96484C27.4741 1.69371 27.1804 1.53555 26.8866 1.58074C26.5251 1.64852 26.2992 1.98743 26.367 2.32634C26.4573 2.71044 26.7963 2.95898 27.1578 2.8912Z" fill="#414042"/>
<path d="M48.2833 26.9086C48.2155 26.5471 47.8766 26.3212 47.5377 26.3889C47.1762 26.4567 46.9502 26.7956 47.018 27.1345C47.0632 27.4283 47.3343 27.6542 47.6281 27.6542L49.5937 38.4768L38.5227 49.5478L27.7001 47.5822C27.6775 47.2884 27.4742 47.0173 27.1804 46.9721C26.8189 46.9043 26.48 47.1303 26.4348 47.4918C26.3671 47.8533 26.593 48.1922 26.9545 48.2374C27.2482 48.2826 27.5419 48.1244 27.6549 47.8533L38.6356 49.8416L49.8649 38.6123L49.9101 38.5671L47.9218 27.5864C48.1703 27.5186 48.3285 27.2249 48.2833 26.9086Z" fill="#414042"/>
<path d="M22.7522 46.9936C22.4585 47.0388 22.2326 47.3099 22.2326 47.6037L11.41 49.5693L0.338911 38.4982L2.30459 27.6757C2.59832 27.6531 2.86944 27.4497 2.91463 27.156C2.98242 26.7945 2.75647 26.4556 2.39497 26.4104C2.03347 26.3426 1.69455 26.5686 1.64937 26.9301C1.60418 27.2238 1.76234 27.5175 2.03346 27.6305L0 38.6112L11.2292 49.8405L11.2744 49.8857L22.2551 47.8974C22.3681 48.1685 22.6618 48.3267 22.9556 48.2815C23.3171 48.2137 23.543 47.8748 23.4752 47.5359C23.43 47.1744 23.0911 46.9258 22.7522 46.9936Z" fill="#414042"/>
<path d="M22.9782 1.62482C22.6844 1.57963 22.3907 1.73779 22.2777 2.00892L11.297 -0.00195312L0 11.2951L1.98828 22.2758C1.71715 22.3888 1.55899 22.6825 1.60418 22.9762C1.67196 23.3377 2.01087 23.5636 2.34978 23.4959C2.71129 23.4281 2.93723 23.0892 2.86945 22.7503C2.82426 22.4565 2.55313 22.2306 2.25941 22.2306L0.316317 11.3855L11.3874 0.314364L22.21 2.28005C22.2326 2.57377 22.4359 2.8449 22.7296 2.89009C23.0911 2.95787 23.43 2.73193 23.4752 2.37042C23.5656 2.00892 23.3171 1.67001 22.9782 1.62482Z" fill="#414042"/>
<path d="M43.8602 6.73225L43.1572 6.0293L42.4543 6.73225L43.1572 7.43521L43.8602 6.73225Z" fill="#231F20"/>
<path opacity="0.8025" d="M41.6915 7.50408L40.9885 8.20703L41.6915 8.90999L42.3944 8.20703L41.6915 7.50408Z" fill="#231F20"/>
<path opacity="0.605" d="M40.2127 8.95915L39.5098 9.66211L40.2127 10.3651L40.9157 9.66211L40.2127 8.95915Z" fill="#231F20"/>
<path opacity="0.4075" d="M38.7647 10.4123L38.0618 11.1152L38.7647 11.8182L39.4677 11.1152L38.7647 10.4123Z" fill="#231F20"/>
<path opacity="0.21" d="M38.0094 12.5858L37.3064 11.8828L36.6034 12.5858L37.3064 13.2887L38.0094 12.5858Z" fill="#231F20"/>
<path d="M43.162 43.8592L43.865 43.1562L43.162 42.4533L42.4591 43.1562L43.162 43.8592Z" fill="#231F20"/>
<path opacity="0.8025" d="M41.6827 40.9885L40.9797 41.6914L41.6827 42.3944L42.3856 41.6914L41.6827 40.9885Z" fill="#231F20"/>
<path opacity="0.605" d="M40.2117 39.5275L39.5088 40.2305L40.2117 40.9334L40.9147 40.2305L40.2117 39.5275Z" fill="#231F20"/>
<path opacity="0.4075" d="M38.7735 38.0666L38.0706 38.7695L38.7735 39.4725L39.4765 38.7695L38.7735 38.0666Z" fill="#231F20"/>
<path opacity="0.21" d="M37.3051 38.0096L38.0081 37.3066L37.3051 36.6037L36.6021 37.3066L37.3051 38.0096Z" fill="#231F20"/>
<path d="M6.03264 43.1623L6.7356 43.8652L7.43855 43.1623L6.73559 42.4593L6.03264 43.1623Z" fill="#231F20"/>
<path opacity="0.8025" d="M8.19466 40.9826L7.4917 41.6855L8.19465 42.3885L8.89761 41.6855L8.19466 40.9826Z" fill="#231F20"/>
<path opacity="0.605" d="M9.64265 39.5295L8.9397 40.2324L9.64265 40.9354L10.3456 40.2324L9.64265 39.5295Z" fill="#231F20"/>
<path opacity="0.4075" d="M11.1224 38.0724L10.4194 38.7754L11.1224 39.4783L11.8253 38.7754L11.1224 38.0724Z" fill="#231F20"/>
<path opacity="0.21" d="M11.8898 37.3088L12.5928 38.0117L13.2957 37.3088L12.5928 36.6058L11.8898 37.3088Z" fill="#231F20"/>
<path d="M6.73323 6.03142L6.03027 6.73438L6.73323 7.43733L7.43618 6.73438L6.73323 6.03142Z" fill="#231F20"/>
<path opacity="0.8025" d="M8.20418 7.49626L7.50122 8.19922L8.20418 8.90217L8.90713 8.19922L8.20418 7.49626Z" fill="#231F20"/>
<path opacity="0.605" d="M9.64314 8.95915L8.94019 9.66211L9.64314 10.3651L10.3461 9.66211L9.64314 8.95915Z" fill="#231F20"/>
<path opacity="0.4075" d="M11.1141 10.422L10.4111 11.125L11.1141 11.828L11.817 11.125L11.1141 10.422Z" fill="#231F20"/>
<path opacity="0.21" d="M12.5841 11.8849L11.8811 12.5879L12.5841 13.2908L13.287 12.5879L12.5841 11.8849Z" fill="#231F20"/>
<path d="M21.1871 17.9922H29.4847V27.9854H30.5414V32.6215H28.5263V30.0004H20.9659V32.6215H18.9509V27.9854H19.9666C20.4636 26.9587 20.7912 25.7683 20.9496 24.414C21.1079 23.0543 21.1871 21.3369 21.1871 19.2618V17.9922ZM23.497 20.0072C23.497 23.655 23.1666 26.3144 22.5059 27.9854H27.0683V20.0072H23.497Z" fill="#D16A16"/>
</g>
<defs>
<clipPath id="clip0">
<rect width="49.8877" height="49.8877" fill="white"/>
</clipPath>
</defs>
</svg>
