<svg width="1050" height="1043" viewBox="0 0 1050 1043" fill="none" xmlns="http://www.w3.org/2000/svg">
<path d="M592.903 938.817L715.496 883.442C716.36 886.775 719.925 888.517 723.258 887.653C726.591 886.788 728.751 883.115 727.886 879.782C727.562 878.533 726.929 877.808 726.297 877.083L821.234 811.099L866.839 750.357C868.413 751.282 870.404 752.1 872.487 751.559C875.82 750.694 877.98 747.021 877.115 743.689C876.574 741.606 875.309 740.156 873.843 739.647L909.322 667.304C910.264 667.504 911.205 667.705 912.455 667.381C915.788 666.516 917.948 662.843 917.083 659.51C916.543 657.427 914.752 655.669 912.869 655.268L937.643 423.415C938.06 423.307 938.06 423.307 938.476 423.199C941.809 422.334 943.969 418.661 943.105 415.329C942.456 412.829 940.249 411.179 937.842 410.469L897.3 300.496C897.3 300.496 897.3 300.496 897.192 300.079L832.046 240.952C832.972 239.378 833.373 237.495 832.94 235.829C832.076 232.496 828.403 230.337 825.069 231.202C824.653 231.31 823.82 231.526 823.511 232.051L748.054 152.034C748.563 150.568 749.071 149.102 748.639 147.436C747.774 144.103 744.101 141.944 740.768 142.809C739.518 143.133 738.793 143.766 737.652 144.506L671.722 102.923C671.922 101.982 672.015 100.624 671.69 99.3742C670.826 96.0415 667.152 93.8822 663.819 94.7471C660.903 95.5038 658.944 98.2353 658.867 101.368L520.387 107.509L412.308 115.99C411.443 112.657 407.878 110.914 404.545 111.779C401.212 112.644 399.361 115.792 399.701 118.816L304.111 158.292L209.144 232.731C207.461 231.389 205.579 230.989 203.496 231.529C200.163 232.394 198.003 236.067 198.868 239.399C199.192 240.649 199.825 241.374 200.457 242.099L141.14 333.966C140.09 333.349 138.732 333.257 137.066 333.689C133.733 334.554 131.573 338.227 132.438 341.559C132.762 342.809 133.503 343.951 134.66 344.984L107.824 426.645L88.365 516.173C88.365 516.173 88.365 516.173 88.4731 516.589L94.7602 554.529L94.3435 554.638C91.0105 555.502 88.8507 559.175 89.7154 562.508C90.5802 565.84 94.2532 568 97.5862 567.135C98.0028 567.027 98.0028 567.027 98.4195 566.919L139.486 677.201L171.423 735.163C169.14 736.645 167.597 739.269 168.353 742.185C169.218 745.517 172.891 747.677 176.224 746.812C177.474 746.487 178.616 745.746 179.341 745.114L189.234 754.107L206.529 820.76C203.72 821.933 202.286 824.973 203.151 828.305C204.015 831.638 207.688 833.797 211.021 832.933C212.688 832.5 214.138 831.235 214.755 830.185L301.577 861.457L376.349 899.412L462.465 957.1C462.465 957.1 462.465 957.1 462.882 956.992L581.238 941.844C582.411 944.651 585.451 946.086 588.784 945.221C590.759 944.264 592.719 941.532 592.903 938.817ZM102.106 558.848C101.674 557.182 100.408 555.732 98.834 554.806L125.099 467.514C125.515 467.406 125.515 467.406 126.04 467.715L130.421 549.723L133.193 603.248L100.487 564.604C101.829 562.922 102.647 560.931 102.106 558.848ZM145.353 338.208C145.245 337.792 145.137 337.375 145.029 336.959L183.818 308.219L202.071 294.591C202.596 294.899 203.229 295.624 204.17 295.825L167.321 390.309C165.438 389.909 163.247 390.033 161.58 390.465C160.331 390.789 158.772 391.638 157.63 392.379L139.475 346.403C139.892 346.295 140.833 346.495 141.666 346.279C144.058 345.214 146.326 341.957 145.353 338.208ZM295.149 183.738L400.658 120.791C401.507 122.349 403.081 123.275 404.547 123.783L403.979 142.16C401.588 143.226 400.462 145.741 400.694 148.349L295.149 183.738ZM735.832 151.203C736.697 154.536 739.845 156.387 742.869 156.047L727.661 195.118L624.791 167.121C624.991 166.18 624.775 165.347 624.559 164.514C624.234 163.264 623.494 162.123 622.861 161.398L625.867 147.279L628.874 133.16C629.291 133.052 630.232 133.252 631.065 133.036C633.148 132.495 634.599 131.23 635.416 129.239L657.484 133.739L736.341 149.737C735.924 149.846 735.616 150.37 735.832 151.203ZM897.256 495.697L896.84 495.805C896.007 496.022 895.173 496.238 894.448 496.871L874.923 473.036L854.658 448.06C856.941 446.578 857.959 443.646 857.311 441.147C856.986 439.897 856.246 438.755 855.088 437.722L902.693 343.559C902.693 343.559 902.693 343.559 903.11 343.451L897.256 495.697ZM864.925 746.407C865.033 746.824 865.141 747.24 865.249 747.657L801.727 801.043C801.619 800.626 801.202 800.734 801.094 800.318L840.862 717.081C841.803 717.281 842.745 717.481 843.995 717.157C845.661 716.725 846.803 715.984 847.42 714.935L858.085 728.618L866.852 740.127C865.094 741.917 864.384 744.324 864.925 746.407ZM687.67 865.318L566.431 896.777C565.69 895.635 564.95 894.493 563.483 893.985L602.037 838.629C606.651 840.989 612.191 841.775 617.607 840.369C623.023 838.964 627.483 835.584 630.368 831.278L688.055 861.662C687.963 863.019 687.762 863.961 687.67 865.318ZM446.566 930.101L447.276 927.694L468.869 866.958C471.277 867.667 473.993 867.852 476.492 867.203C480.242 866.23 483.143 863.699 484.577 860.659L554.534 897.196C554.333 898.137 554.025 898.662 554.241 899.495L493.445 918.827L450.348 932.677C449.607 931.536 448.032 930.61 446.566 930.101ZM359.245 866.057C358.705 863.974 356.498 862.324 354.615 861.923L391.419 774.119C392.885 774.628 394.351 775.137 396.018 774.705C396.434 774.597 396.434 774.597 396.851 774.488L418.875 797.674L464.715 845.805C462.231 848.228 460.796 851.268 460.828 854.816L359.245 866.057ZM127.707 467.282C128.956 466.958 130.098 466.217 130.823 465.584L178.158 505.768L135.168 602.291L134.533 589.561L127.707 467.282ZM212.255 289.281L304.868 255.468C305.501 256.193 306.242 257.335 307.183 257.535L281.451 298.893L237.916 369.324C236.758 368.291 235.4 368.199 233.626 368.214L209.386 295.361C211.361 294.404 212.904 291.78 212.255 289.281ZM412.623 151.478L477.638 172.401C476.929 174.808 476.636 177.108 477.285 179.607L477.393 180.024L316.194 249.417C316.086 249.001 315.977 248.584 315.453 248.276L401.666 152.098C403.04 153.964 405.972 154.982 408.472 154.333C410.663 154.21 412.114 152.944 412.623 151.478ZM837.244 403.225L847.773 436.952C847.048 437.585 846.323 438.218 845.598 438.85L791.07 388.084C795.93 382.821 798.367 375.075 796.422 367.576C794.692 360.911 789.738 355.527 783.765 353.075L791.339 335.993L804.019 306.025C804.96 306.226 805.901 306.426 806.735 306.21L837.244 403.225ZM892.212 503.676C892.536 504.925 893.385 506.483 894.434 507.1L888.496 520.202L859.094 583.409C858.153 583.208 857.104 582.591 856.27 582.808L852.221 455.806L851.849 449.233C852.266 449.125 852.266 449.125 852.683 449.017C853.099 448.909 853.099 448.909 853.516 448.801L867.978 466.835L893.414 498.028C891.964 499.294 891.671 501.593 892.212 503.676ZM555.151 896.147L485.194 859.61C486.32 857.094 486.505 854.379 485.749 851.463L591.912 827.028C593.517 831.503 597.206 835.436 600.879 837.596L561.909 893.059C560.968 892.859 559.61 892.767 558.777 892.983C557.635 893.724 556.185 894.989 555.151 896.147ZM400.646 766.834C399.889 763.918 397.157 761.959 394.025 761.883L400.633 694.808C401.575 695.009 402.825 694.684 403.658 694.468C406.574 693.711 409.274 692.122 410.817 689.498L503.109 760.701C502.492 761.75 501.875 762.799 501.674 763.741L400.862 767.668C400.862 767.668 400.754 767.251 400.646 766.834ZM222.8 501.298L218.94 489.85C219.357 489.742 219.774 489.634 220.19 489.526L248.466 523.095L300.697 585.573L288.552 581.611L249.817 569.43C250.017 568.489 249.801 567.656 249.585 566.822C248.828 563.906 245.988 561.531 242.547 561.979L222.8 501.298ZM314.59 256.947L370.786 319.286C369.336 320.552 368.827 322.018 368.843 323.792L240.03 372.333C239.814 371.499 239.181 370.774 238.548 370.049L303.697 264.665L308.124 257.736C309.066 257.936 310.424 258.028 311.674 257.704C313.14 258.213 313.865 257.58 314.59 256.947ZM493.026 188.861C496.359 187.996 498.951 185.99 500.494 183.367L573.06 231.676C572.135 233.25 571.734 235.133 572.166 236.799C572.274 237.215 572.274 237.215 572.383 237.632L379.767 319.623C379.243 319.315 379.134 318.898 378.61 318.59L418.969 266.768L481.73 186.457C485.095 189.141 488.86 189.942 493.026 188.861ZM844.981 439.9C844.472 441.366 844.38 442.724 844.704 443.973C845.136 445.64 846.402 447.09 847.451 447.707L803.7 517.305C801.493 515.654 798.561 514.637 795.536 514.977L777.662 394.675C778.495 394.459 779.328 394.243 780.161 394.027C783.911 393.054 787.028 391.356 789.929 388.825L844.981 439.9ZM849.868 590.694C850.192 591.943 851.041 593.502 852.09 594.119L785.423 657.658C783.632 655.899 781.225 655.19 778.817 654.481L781.576 635.98L796.081 541.068C797.439 541.161 798.272 540.944 799.522 540.62C801.189 540.188 802.747 539.339 804.197 538.073L837.396 573.477L849.728 586.728C849.636 588.086 849.543 589.444 849.868 590.694ZM735.878 780.336L633.867 813.919L633.759 813.502C632.138 807.254 627.708 802.178 622.569 799.51L644.904 739.915C645.953 740.532 647.311 740.625 648.977 740.192C651.061 739.652 652.511 738.386 653.02 736.92L676.925 748.502L736.896 777.404C736.171 778.037 736.079 779.395 735.878 780.336ZM321.698 669.938C322.207 668.472 322.716 667.006 322.283 665.34C321.527 662.424 319.32 660.774 316.187 660.697L303.645 588.365L361.66 644.007L391.355 672.761C389.596 674.552 388.362 676.65 388.069 678.949L321.698 669.938ZM764.762 670.578C764.87 670.994 765.086 671.827 765.195 672.244L664.483 722.83L651.491 729.314C650.75 728.172 649.701 727.555 648.343 727.463L654.896 701.308L676.362 614.372C677.303 614.572 678.245 614.773 679.494 614.448C680.328 614.232 681.161 614.016 681.886 613.383L765.625 661.906C764.607 664.838 764.006 667.661 764.762 670.578ZM533.506 656.775L672.689 612.212C673.43 613.354 674.063 614.079 675.004 614.279L646.985 727.37C646.568 727.479 645.627 727.278 645.21 727.386C643.96 727.711 642.818 728.452 642.093 729.084L533.321 659.49C533.63 658.966 533.83 658.024 533.506 656.775ZM412.914 678.728C411.617 673.729 407.619 670.32 403.021 669.735L410.335 576.244C410.751 576.136 410.751 576.136 411.168 576.028C412.834 575.595 413.868 574.438 414.902 573.28L438.654 591.127L523.043 654.154C522.009 655.311 521.5 656.777 521.408 658.135L412.914 678.728ZM319.086 469.645C318.978 469.229 318.87 468.812 318.762 468.396L437.575 422.449C440.447 428.374 445.493 432.4 451.358 434.435L429.01 504.26L410.533 563.298C409.592 563.098 408.234 563.006 407.4 563.222C406.984 563.33 406.151 563.546 405.842 564.071L317.406 480.308C319.257 477.16 320.059 473.395 319.086 469.645ZM785.368 522.061C783.826 524.685 783.441 528.342 784.197 531.258C784.63 532.924 785.479 534.482 786.744 535.932L683.69 604.912C682.841 603.353 681.267 602.428 679.909 602.336L707.787 473.275C708.728 473.475 710.086 473.568 710.919 473.351C712.169 473.027 712.894 472.394 713.619 471.761L785.368 522.061ZM577.97 514.518L577.862 514.101L636.559 493.535L702.848 469.666C703.697 471.224 704.438 472.365 705.904 472.874L678.026 601.935C677.61 602.043 677.085 601.735 676.252 601.951C674.169 602.491 672.718 603.757 672.209 605.223L592.141 546.855L573.544 533.451C578.096 528.713 579.808 521.599 577.97 514.518ZM702.524 468.416L577.43 512.435C575.608 507.127 571.811 502.777 566.78 500.525L631.046 378.029L644.806 352.228C647.43 353.77 650.67 354.263 654.003 353.398C654.42 353.29 654.42 353.29 654.837 353.182L704.868 462.027C703.001 463.401 701.875 465.916 702.524 468.416ZM643.34 351.719L565.314 500.016C560.808 498.073 555.792 497.596 550.793 498.893C547.043 499.866 543.618 502.089 540.717 504.62L473.022 428.814C478.299 423.443 480.736 415.697 478.682 407.782C478.574 407.365 478.466 406.949 478.466 406.949L638.802 346.227C639.759 348.202 641.658 350.377 643.34 351.719ZM411.999 563.807L436.167 487.286L452.824 434.944C456.172 435.854 459.722 435.822 463.055 434.957C466.388 434.092 469.504 432.394 471.988 429.971L539.683 505.778C534.823 511.04 532.803 518.678 534.641 525.76C534.749 526.177 534.857 526.593 534.965 527.01L414.006 566.399C414.206 565.458 413.049 564.424 411.999 563.807ZM536.123 528.044C538.685 534.493 543.948 539.352 550.646 541.171L547.254 558.947L528.768 652.224C527.826 652.023 526.885 651.823 526.052 652.039C525.219 652.255 524.385 652.472 523.66 653.105L434.749 586.36L414.886 571.506C415.503 570.457 415.595 569.099 415.163 567.433C415.163 567.433 415.163 567.433 415.055 567.016L536.123 528.044ZM529.709 652.424L551.587 541.371C554.936 542.281 558.485 542.249 561.818 541.384C565.984 540.303 569.826 537.973 572.619 535.025L615.492 566.584L671.808 607.105C671.608 608.047 671.408 608.988 671.732 610.238C671.84 610.654 671.84 610.654 671.948 611.071L532.657 655.216C532.333 653.967 531.175 652.933 529.709 652.424ZM766.242 660.856L719.125 633.51L683.028 612.642C684.37 610.96 684.771 609.077 684.231 606.995C684.123 606.578 684.123 606.578 684.014 606.161L787.068 537.182C788.967 539.357 791.899 540.375 794.723 540.976L777.567 654.805C776.21 654.713 775.376 654.929 774.126 655.254C770.685 655.702 767.785 658.233 766.242 660.856ZM785.877 520.596L713.82 470.82C714.746 469.246 715.146 467.364 714.714 465.697C714.282 464.031 713.541 462.889 711.967 461.964L762.075 391.161C766.381 394.045 771.196 395.464 776.412 395L794.287 515.301C793.87 515.409 793.453 515.517 793.037 515.625C790.12 516.382 787.528 518.389 785.877 520.596ZM753.926 378.603C755.223 383.602 757.97 387.335 761.443 390.436L711.334 461.239C709.868 460.73 708.51 460.638 707.26 460.962C706.843 461.07 706.427 461.178 706.01 461.286L655.978 352.441C659.203 351.16 661.579 348.32 662.906 344.863L753.523 368.481C753.029 371.721 753.061 375.27 753.926 378.603ZM638.262 344.144L638.37 344.56L478.45 405.174C477.061 401.533 474.421 398.216 471.581 395.841L526.194 314.976L576.488 241.458C577.429 241.658 578.787 241.75 580.037 241.426C580.87 241.21 581.704 240.994 582.429 240.361L601.476 269.21L642.426 331.058C638.8 334.222 636.965 339.145 638.262 344.144ZM575.022 240.949L470.115 395.332C465.177 391.723 458.587 390.32 451.921 392.05C448.588 392.914 445.888 394.504 443.713 396.403L380.571 327.863C381.497 326.289 381.898 324.406 381.465 322.74C381.249 321.907 381.141 321.49 380.616 321.182L572.815 239.298C573.448 240.023 574.389 240.224 575.022 240.949ZM379.538 329.02L431.921 385.234L442.987 397.035C437.294 402.514 434.549 410.785 436.603 418.7C436.819 419.533 437.035 420.367 437.251 421.2L401.252 434.987L318.438 467.146C317.373 464.755 315.474 462.579 312.959 461.454L372.131 329.608C373.597 330.117 375.063 330.626 376.729 330.194C378.087 330.286 378.812 329.653 379.538 329.02ZM316.372 481.465L404.7 564.812C403.667 565.969 402.741 567.543 402.757 569.318L395.566 570.739L303.521 586.174L307.747 485.926C308.58 485.71 309.522 485.91 310.355 485.694C312.747 484.629 314.613 483.255 316.372 481.465ZM361.695 577.304L402.556 570.259L402.664 570.676C403.421 573.592 405.628 575.242 408.344 575.427L403.125 646.142L401.447 668.809C400.089 668.717 398.731 668.625 397.064 669.057C395.398 669.489 393.423 670.447 392.389 671.604L344.482 625.789L304.045 586.483L361.695 577.304ZM413.238 679.977L465.765 669.905L520.899 659.601L521.007 660.018C521.656 662.517 523.863 664.168 526.27 664.877L522.601 686.726L509.466 759.496C508.525 759.295 507.583 759.095 506.334 759.419C505.5 759.636 504.667 759.852 504.359 760.377L411.542 688.866C413.085 686.242 413.578 683.002 413.238 679.977ZM527.52 664.552C527.936 664.444 528.353 664.336 528.77 664.228C530.436 663.796 531.887 662.53 532.812 660.956L641.584 730.55C640.967 731.6 640.767 732.541 640.674 733.899L513.988 763.213C513.139 761.655 511.982 760.622 510.932 760.005L527.52 664.552ZM514.312 764.463L640.582 735.257L640.69 735.673C641.122 737.339 642.28 738.373 643.437 739.407L621.103 799.001C616.597 797.058 611.998 796.473 606.999 797.77C600.333 799.5 595.257 803.929 592.696 809.485L514.436 766.654C514.745 766.129 514.529 765.296 514.312 764.463ZM737.405 775.938L730.8 772.761L653.529 735.454C653.729 734.513 653.93 733.572 653.606 732.322C653.497 731.905 653.281 731.072 652.757 730.764L765.935 673.385C767.417 675.669 769.316 677.844 771.831 678.97L743.022 773.591C742.08 773.391 741.664 773.499 740.831 773.715C739.164 774.148 738.022 774.889 737.405 775.938ZM850.345 585.679L805.339 537.332C808.548 534.276 809.967 529.462 808.778 524.88C808.13 522.38 806.648 520.097 804.966 518.755L834.308 472.459L849.134 449.049C849.658 449.357 850.075 449.249 850.491 449.141L854.496 582.823C852.829 583.256 851.379 584.521 850.345 585.679ZM754.14 367.432L663.523 343.814C663.924 341.932 663.8 339.741 663.259 337.658C662.395 334.325 660.388 331.733 657.656 329.774L700.25 259.143C701.192 259.343 701.608 259.235 702.441 259.019C703.275 258.802 703.691 258.694 704.417 258.062L732.818 305.826L762.069 355.148C758.335 357.895 755.45 362.201 754.14 367.432ZM694.571 254.392C695.111 256.474 696.901 258.233 698.784 258.634L656.082 328.849C653.567 327.723 650.326 327.23 647.41 327.987C646.16 328.311 644.601 329.16 643.46 329.901L583.046 239.311C583.771 238.679 583.972 237.737 584.172 236.796L601.733 239.353L694.246 253.142C694.463 253.975 694.463 253.975 694.571 254.392ZM368.858 325.566C369.291 327.233 370.032 328.374 371.081 328.991L311.909 460.837C309.394 459.711 306.678 459.526 303.761 460.283C302.511 460.607 301.678 460.824 300.536 461.564L239.152 379.23C240.602 377.964 241.003 376.082 240.879 373.891L368.858 325.566ZM238.01 379.971L299.395 462.305C295.969 464.528 293.918 468.617 293.749 473.107L223.152 482.088C222.503 479.589 220.188 477.522 217.472 477.337L234.369 381.36C234.785 381.252 235.202 381.144 235.618 381.036C236.452 380.82 237.285 380.604 238.01 379.971ZM294.073 474.357C294.181 474.774 294.397 475.607 294.505 476.023C295.91 481.439 300.957 485.465 306.389 485.834L304.837 522.696L302.255 584.724L225.129 493.135L221.224 488.369C222.674 487.103 223.908 485.004 223.368 482.921L294.073 474.357ZM249.616 570.371L301.962 587.023L314.413 660.713L313.996 660.821C313.163 661.037 312.329 661.253 312.021 661.778L287.495 627.237L248.274 572.053C249.107 571.837 249.416 571.312 249.616 570.371ZM320.664 671.096L370.416 677.75L387.452 679.999C387.468 681.773 387.376 683.131 387.808 684.797C389.213 690.213 393.735 693.931 399.167 694.3L395.054 736.717L392.559 761.374C391.309 761.698 390.167 762.439 389.442 763.072L359.977 724.921L319.63 672.253C320.047 672.145 320.356 671.62 320.664 671.096ZM400.878 769.442L501.69 765.515C501.798 765.932 501.906 766.348 502.014 766.765C502.555 768.848 503.82 770.298 505.811 771.115L493.857 800.45L477.105 842.145C475.115 841.328 472.507 841.56 470.424 842.1C468.757 842.533 467.199 843.382 465.748 844.647L433.923 811.11L398.409 773.639C399.551 772.899 400.477 771.325 400.878 769.442ZM478.155 842.762L486.53 821.914L506.86 771.732C507.802 771.933 508.635 771.716 509.468 771.5C511.551 770.96 513.002 769.694 513.819 767.703L591.971 810.117C590.336 814.099 589.858 819.113 591.047 823.696C591.155 824.112 591.263 824.529 591.371 824.945L520.838 841.024L484.791 849.488C484.143 846.988 481.612 844.088 478.155 842.762ZM634.3 815.585L736.311 782.002C736.635 783.252 737.376 784.393 738.425 785.01L696.696 858.975C695.647 858.358 694.289 858.265 692.622 858.698C691.372 859.022 690.231 859.763 689.197 860.921L670.631 851.065L631.509 830.537C633.87 825.923 635.18 820.692 634.3 815.585ZM744.488 774.1L773.405 679.895C775.813 680.604 778.112 680.897 780.612 680.248C783.528 679.492 785.812 678.01 787.463 675.803L803.837 685.782L838.16 706.666C836.293 708.04 835.583 710.447 836.232 712.947C836.34 713.363 836.34 713.363 836.448 713.78L768.481 760.316L747.003 775.226C745.954 774.609 745.429 774.301 744.488 774.1ZM839.193 705.509L804.763 684.208L788.28 673.812C790.239 671.081 790.625 667.424 789.652 663.675C789.111 661.592 788.154 659.617 786.364 657.858L853.032 594.319C853.556 594.627 853.556 594.627 854.081 594.936L844.207 693.982L842.943 704.536C842.002 704.335 841.06 704.135 839.811 704.459C840.027 705.293 839.61 705.401 839.193 705.509ZM800.222 301.675C800.654 303.341 801.92 304.791 802.969 305.408L782.716 352.458C778.734 350.824 774.244 350.655 769.661 351.844C767.578 352.385 765.603 353.342 763.628 354.299L759.074 347.032L705.558 257.321C705.867 256.796 706.283 256.688 706.175 256.271L799.882 298.651C799.681 299.592 799.897 300.425 800.222 301.675ZM694.864 252.092L584.681 235.33C584.573 234.914 584.773 233.972 584.665 233.556C584.449 232.723 583.708 231.581 583.075 230.856L596.959 207.245L618.156 172.4C618.573 172.292 619.514 172.492 619.931 172.384C621.181 172.06 622.322 171.319 623.356 170.161L696.499 248.111C695.465 249.269 694.956 250.735 694.864 252.092ZM612.168 168.174C612.708 170.256 614.499 172.015 616.906 172.724L585.528 224.884L582.134 230.656C580.56 229.73 578.569 228.913 576.486 229.453C575.236 229.778 574.511 230.41 573.786 231.043L566.223 225.891L501.111 182.317C502.345 180.219 502.638 177.919 502.406 175.312L612.168 168.174ZM451.717 192.466L477.717 181.273C478.566 182.832 479.415 184.39 480.573 185.423L451.877 222.214L377.144 318.081C376.094 317.464 374.736 317.372 373.486 317.696C373.07 317.804 372.237 318.02 371.928 318.545L315.207 255.898C316.133 254.324 317.058 252.75 316.518 250.667L451.717 192.466ZM207.827 296.21L218.974 328.887L232.376 368.539C229.151 369.82 227.3 372.968 228.164 376.301C228.272 376.717 228.272 376.717 228.38 377.134L176.165 398.686C174.667 394.628 171.719 391.836 167.846 390.618L204.695 296.133C205.744 296.75 206.686 296.951 207.827 296.21ZM176.597 400.352L229.229 378.692C230.078 380.25 231.653 381.176 233.535 381.577L216.639 477.553C216.222 477.661 216.222 477.661 215.806 477.77C214.973 477.986 214.139 478.202 213.414 478.835L191.527 447.61L169.007 415.66C174.516 412.897 178.218 406.601 176.597 400.352ZM167.649 415.568L188.687 445.234L212.581 479.051C211.239 480.733 210.421 482.724 210.962 484.807L211.07 485.223L179.084 504.194L163.683 415.708C165.149 416.217 165.983 416 167.649 415.568ZM195.301 496.429L211.502 486.89C212.876 488.756 214.975 489.99 217.274 490.283L241.714 562.195C240.881 562.411 240.464 562.52 240.156 563.044L192.99 518.37L179.933 505.752L195.301 496.429ZM239.014 563.785C237.672 565.467 236.854 567.458 237.503 569.957C238.043 572.04 239.309 573.49 241.299 574.308L215.848 635.6C214.907 635.4 213.966 635.2 213.024 634.999L179.948 507.526L239.014 563.785ZM219.645 639.951C219.213 638.284 218.472 637.143 216.898 636.217L242.657 574.4C243.599 574.6 244.432 574.384 245.265 574.168C246.099 573.952 246.932 573.735 247.24 573.211L310.879 662.519C309.537 664.201 308.719 666.192 309.368 668.691C310.016 671.191 312.223 672.841 314.523 673.134L285.939 734.35L274.771 758.145C272.363 757.436 270.064 757.144 267.148 757.9C266.314 758.116 265.481 758.333 264.756 758.965L216.467 646.555C219.168 644.966 220.294 642.45 219.645 639.951ZM282.997 767.571C282.024 763.822 279.385 760.505 275.928 759.179L315.989 673.643C316.405 673.535 316.822 673.427 317.239 673.318C317.655 673.21 318.072 673.102 318.489 672.994L389.041 764.955C388.424 766.004 388.223 766.945 388.131 768.303L336.359 769.287L283.229 770.179C283.538 769.654 283.213 768.404 282.997 767.571ZM697.746 859.592L739.475 785.627C741.049 786.553 742.407 786.645 744.073 786.213C746.156 785.672 747.607 784.407 748.116 782.941L790.679 803.02C790.17 804.486 790.077 805.844 790.402 807.094C790.51 807.511 790.726 808.344 791.251 808.652L727.68 844.711L699.428 860.934C698.795 860.209 698.27 859.9 697.746 859.592ZM795.03 799.224C793.78 799.548 792.221 800.397 791.604 801.446L748.625 781.475C748.825 780.534 749.026 779.592 748.701 778.342C748.485 777.509 748.269 776.676 747.636 775.951L837.081 714.505C837.822 715.646 838.455 716.371 839.396 716.572L809.979 778.004L799.937 799.284C798.579 799.192 796.696 798.791 795.03 799.224ZM867.578 739.494L847.929 713.469C848.438 712.003 848.53 710.645 848.206 709.395C847.882 708.145 847.141 707.004 846.508 706.279L892.081 641.988L882.244 686.335L870.802 738.213C870.386 738.321 869.445 738.12 869.028 738.228C868.719 738.753 868.411 739.278 867.578 739.494ZM845.459 705.662L844.934 705.353L850.018 654.681L855.547 595.445C855.964 595.337 856.489 595.645 857.322 595.429L880.86 624.447L892.683 639.164L845.459 705.662ZM862.893 599.763L858.88 594.58C861.689 593.407 863.123 590.367 862.258 587.034C861.934 585.784 861.085 584.226 860.036 583.609L881.755 537.068L895.792 507.193C896.317 507.501 896.734 507.393 896.842 507.81L893.392 636.757L862.893 599.763ZM896.072 338.607C896.721 341.107 898.511 342.865 900.81 343.158L853.514 436.796C852.048 436.288 850.582 435.779 848.915 436.211C848.915 436.211 848.915 436.211 848.499 436.319L824.752 360.225L807.46 305.577C808.71 305.253 809.743 304.095 810.777 302.938L813.292 304.064L895.223 337.049C896.273 337.666 895.964 338.191 896.072 338.607ZM800.391 297.185L707.101 254.697C707.718 253.648 707.81 252.29 707.486 251.04C707.27 250.207 706.529 249.066 705.896 248.341L728.618 197.093L779.337 265.744L801.316 295.611C801.008 296.136 800.699 296.66 800.391 297.185ZM704.847 247.724C703.273 246.798 701.282 245.981 699.199 246.521C698.782 246.629 697.949 246.846 697.64 247.37L671.711 219.418L624.39 169.004L624.698 168.479L727.568 196.476L704.847 247.724ZM623.086 127.992C623.735 130.492 625.417 131.834 627.825 132.543L624.818 146.662L621.703 160.364C620.129 159.439 618.771 159.346 617.105 159.779C615.855 160.103 614.713 160.844 613.679 162.001L530.528 120.885L528.013 119.759C527.905 119.342 527.905 119.342 527.796 118.926L533.753 119.603L622.562 127.684C622.978 127.575 623.086 127.992 623.086 127.992ZM585.592 149.726L612.645 163.159C612.028 164.208 611.828 165.149 612.152 166.399L502.499 173.954C502.39 173.537 502.39 173.537 502.282 173.121C501.418 169.788 499.303 166.78 496.263 165.346L506.645 147.09L519.495 124.637C520.545 125.254 521.903 125.346 523.569 124.913C525.652 124.373 527.411 122.583 528.229 120.592L585.592 149.726ZM515.282 120.394C515.714 122.061 516.98 123.511 518.137 124.544L494.797 164.837C492.281 163.711 489.041 163.218 486.124 163.975C482.375 164.948 479.057 167.587 477.731 171.043L451.558 162.717L412.823 150.537C413.024 149.595 413.116 148.238 412.792 146.988L515.282 120.394ZM346.796 168.558L401.234 150.431C401.342 150.848 401.342 150.848 401.45 151.265L314.82 247.551C313.554 246.1 311.672 245.7 309.48 245.824L302.101 225.952L290.969 195.049C291.386 194.941 291.803 194.832 291.803 194.832C295.136 193.968 297.296 190.295 296.431 186.962C296.323 186.546 296.106 185.712 295.582 185.404L346.796 168.558ZM289.612 194.956L308.23 246.148C305.006 247.429 303.154 250.577 304.019 253.91L304.127 254.327L211.514 288.139C211.298 287.306 210.773 286.997 210.665 286.581L264.138 218.462L284.889 192.18C286.155 193.63 287.729 194.556 289.612 194.956ZM162.434 416.032L177.618 503.685L135.962 468.252L131.44 464.535C132.366 462.961 132.458 461.603 132.026 459.937C131.702 458.687 130.961 457.545 130.328 456.82L140.417 440.864L157.094 414.305C158.668 415.231 160.551 415.631 162.434 416.032ZM178.59 507.434L211.774 635.324C208.441 636.188 206.282 639.861 207.146 643.194C207.687 645.277 208.952 646.727 210.943 647.544L209.509 650.584L176.639 734.699C175.698 734.499 174.756 734.299 173.923 734.515L144.34 635.925L135.091 605.423L178.59 507.434ZM180.436 739.05C180.003 737.383 178.738 735.933 177.688 735.316L212.409 648.053C213.351 648.253 214.184 648.037 215.017 647.821C215.434 647.713 215.434 647.713 215.85 647.605L252.947 734.018L264.139 760.015C261.439 761.605 259.479 764.336 258.461 767.268L180.668 741.657C180.868 740.716 180.652 739.883 180.436 739.05ZM277.275 781.506L347.748 864.594L347.44 865.119L306.976 846.273L272.067 829.987L270.3 783.76C271.241 783.96 272.491 783.636 273.325 783.42C274.991 782.987 276.133 782.246 277.275 781.506ZM278.416 780.765C281.425 778.65 283.168 775.085 283.245 771.953L344.723 770.674L388.147 770.078C388.471 771.327 389.212 772.469 390.37 773.502L353.257 861.831C352.84 861.939 352.316 861.63 351.482 861.847C350.232 862.171 349.507 862.804 348.782 863.436L278.416 780.765ZM359.569 867.307L460.627 855.758C460.843 856.591 460.951 857.008 461.167 857.841C462.14 861.59 464.672 864.49 468.237 866.233L452.041 911.785L445.625 929.901C445.208 930.009 444.792 930.117 444.375 930.225C443.125 930.55 441.984 931.291 440.95 932.448L393.138 897.279L359.092 872.322C359.493 870.439 360.002 868.973 359.569 867.307ZM451.305 934.652C451.197 934.236 451.197 934.236 451.088 933.819L554.673 901.161C555.538 904.494 559.103 906.237 562.436 905.372C562.853 905.264 562.853 905.264 563.269 905.156L583.767 932.739C581.375 933.805 580.141 935.903 579.956 938.619L564.293 938.237L451.413 935.069C451.413 935.069 451.413 935.069 451.305 934.652ZM592.471 937.15C591.606 933.818 588.35 931.55 584.6 932.523L580.479 926.923L564.103 904.94C566.386 903.458 567.404 900.526 566.756 898.026L687.577 866.676C688.442 870.009 692.115 872.168 695.448 871.303C697.115 870.871 698.565 869.605 699.182 868.556L715.557 878.535C714.94 879.585 714.431 881.051 714.755 882.3L592.162 937.675C592.471 937.15 592.471 937.15 592.471 937.15ZM725.247 876.466C723.673 875.54 721.79 875.139 720.124 875.572C718.874 875.896 717.732 876.637 717.007 877.27L700.524 866.874C701.142 865.825 701.234 864.467 700.91 863.217C700.801 862.8 700.693 862.384 700.477 861.551L715.537 852.752L792.3 809.269C793.674 811.136 796.081 811.845 798.581 811.196C801.081 810.548 802.423 808.866 803.132 806.458L819.66 810.173L725.247 876.466ZM820.385 809.54L802.916 805.625C802.808 805.209 803.009 804.267 802.792 803.434C802.684 803.018 802.576 802.601 802.468 802.185L865.99 748.799L820.385 809.54ZM872.685 738.613L886.424 675.024L893.948 640.614L904.181 652.632L906.712 655.532C904.845 656.906 903.828 659.837 904.368 661.92C904.908 664.003 906.174 665.453 907.64 665.962L872.685 738.613ZM907.854 654.791L894.349 638.732L897.83 513.333L899.546 530.228L910.246 653.726C909.829 653.834 909.413 653.942 908.996 654.05C908.687 654.575 908.271 654.683 907.854 654.791ZM911.496 653.401L898.725 508.21C899.141 508.102 899.558 507.994 899.558 507.994C902.891 507.129 905.051 503.457 904.186 500.124C903.645 498.041 902.38 496.591 900.389 495.774L933.662 421.78C934.186 422.089 935.128 422.289 935.544 422.181L911.496 653.401ZM930.39 417.739C930.822 419.405 931.563 420.547 932.612 421.164L899.031 495.681C898.614 495.79 898.09 495.481 898.09 495.481L899.333 459.144L903.943 343.234C903.943 343.234 903.943 343.234 904.359 343.126L935.851 409.652C935.434 409.76 935.434 409.76 935.018 409.868C931.685 410.733 929.525 414.406 930.39 417.739ZM931.991 398.204L922.945 378.765L906.026 342.694C908.31 341.212 909.852 338.589 909.096 335.673C908.339 332.757 905.715 331.214 902.999 331.03L898.721 307.685L931.991 398.204ZM895.942 300.403L897.271 308.951L901.225 331.046L900.808 331.154C899.975 331.37 899.142 331.586 898.417 332.219L875.172 300.902L833.544 245.009L895.942 300.403ZM870.433 296.351L897.691 332.852C897.074 333.901 896.457 334.95 896.257 335.892L832.768 310.57L811.919 302.197C812.536 301.148 812.52 299.373 812.196 298.123C811.331 294.791 807.658 292.631 804.325 293.496C803.492 293.712 802.659 293.929 801.933 294.561L776.574 260.236L729.868 196.769L819.993 235.631C819.793 236.572 819.592 237.514 819.809 238.347C820.673 241.679 824.346 243.839 827.679 242.974C828.513 242.758 829.238 242.125 830.071 241.909L870.433 296.351ZM820.719 234.998L729.127 195.627L744.536 155.614C745.786 155.29 746.511 154.657 747.128 153.608L822.477 233.208C821.752 233.841 821.027 234.474 820.719 234.998ZM736.726 146.081C736.417 146.605 736.217 147.546 735.908 148.071L641.157 129.083L635.509 127.881C635.709 126.94 635.91 125.999 635.693 125.166C635.585 124.749 635.585 124.749 635.477 124.332L662.464 106.659C664.038 107.585 665.396 107.677 667.062 107.244C668.729 106.812 670.179 105.546 671.105 103.972L736.726 146.081ZM659.3 103.034C659.624 104.284 660.257 105.009 660.998 106.15L649.58 113.559L634.32 123.299C632.838 121.016 629.906 119.998 627.406 120.646C624.906 121.295 622.839 123.61 622.654 126.326L527.889 117.568C527.132 114.652 524.925 113.001 522.209 112.817L521.345 109.484L659.3 103.034ZM519.878 108.975L520.743 112.308C520.327 112.416 520.327 112.416 519.91 112.524C516.994 113.281 515.034 116.012 515.266 118.62L412.776 145.214C411.603 142.406 408.562 140.971 405.229 141.836L405.489 123.984C405.905 123.876 406.847 124.076 407.263 123.968C410.18 123.211 412.139 120.48 412.216 117.348L519.878 108.975ZM397.325 121.656L378.424 132.785L293.683 183.229C293.159 182.92 292.217 182.72 291.276 182.52L300.532 166.779L304.543 159.958L397.325 121.656ZM302.368 161.857L290.227 181.903C289.81 182.011 289.393 182.119 288.977 182.227C286.06 182.984 284.101 185.715 284.024 188.847L213.618 231.126L302.368 161.857ZM248.629 211.815L284.349 190.097C284.349 190.097 284.349 190.097 284.457 190.514L263.397 217.32L209.924 285.439C209.291 284.714 208.242 284.097 206.884 284.005L205.488 244.351C205.905 244.243 206.322 244.135 206.738 244.026C210.071 243.162 212.231 239.489 211.366 236.156C211.258 235.74 211.042 234.907 210.517 234.598L248.629 211.815ZM204.13 244.259L205.526 283.913C205.109 284.021 204.693 284.129 204.276 284.237C200.943 285.102 198.783 288.775 199.648 292.107C199.864 292.94 200.08 293.774 200.713 294.499L144.088 336.758C143.455 336.033 142.93 335.725 142.405 335.416L201.831 243.966C202.664 243.75 203.189 244.058 204.13 244.259ZM136.235 345.91C136.651 345.802 136.759 346.218 137.176 346.11L151.379 381.997L156.072 393.228C152.446 396.392 150.611 401.315 151.908 406.314C152.664 409.23 154.146 411.513 156.353 413.163L145.955 429.645L129.587 455.679C128.013 454.753 126.13 454.352 124.464 454.785L109.907 426.104L136.235 345.91ZM90.1396 516.157L109.198 428.511L120.034 449.709L122.797 455.217C119.989 456.39 118.554 459.43 119.419 462.763C119.96 464.846 121.75 466.605 123.741 467.422L97.3679 554.297C96.8432 553.989 96.4267 554.097 96.01 554.205L90.1396 516.157ZM140.628 676.46L99.5613 566.178C99.9779 566.07 99.9779 566.07 100.286 565.545L134.258 605.639L173.09 734.731L140.628 676.46ZM179.958 744.064C180.267 743.54 180.267 743.54 180.575 743.015L258.369 768.626C257.968 770.509 257.984 772.283 258.524 774.366C259.93 779.781 264.452 783.499 269.467 783.976L271.018 829.37L179.958 744.064ZM214.848 828.827C215.465 827.778 215.557 826.42 215.233 825.17C214.368 821.838 210.695 819.678 207.362 820.543L190.608 755.974L253.346 814.392L271.45 831.036L299.262 859.39L214.848 828.827ZM301.67 860.099L274.49 832.471L313.38 850.391L346.823 866.168C346.622 867.109 346.53 868.467 346.854 869.717C347.719 873.05 351.392 875.209 354.725 874.344C355.142 874.236 355.142 874.236 355.558 874.128L360.204 880.036L373.401 896.62L301.67 860.099ZM376.858 897.946L357.117 873.279C357.533 873.171 357.533 873.171 357.842 872.646L439.808 933.189C439.299 934.655 438.79 936.121 439.222 937.787C439.439 938.62 439.655 939.453 440.288 940.178L376.858 897.946ZM443.544 942.446C444.485 942.646 445.843 942.739 446.677 942.522C447.093 942.414 447.926 942.198 448.235 941.673L457.619 952.133L443.544 942.446ZM462.866 955.217L449.793 940.824C451.244 939.559 451.753 938.093 451.737 936.319L540.807 938.551L580.173 939.452L462.866 955.217Z" fill="black" fill-opacity="0.1"/>
</svg>
