<svg width="52" height="52" viewBox="0 0 52 52" fill="none" xmlns="http://www.w3.org/2000/svg">
<g clip-path="url(#clip0)">
<path d="M4.19371 47.1228V38.1914L6.12525 36.904H9.22596V35.2266H5.617L2.51629 37.294V47.1228C1.54171 47.47 0.838867 48.3926 0.838867 49.4846C0.838867 50.8719 1.96777 52.0008 3.355 52.0008C4.74222 52.0008 5.87113 50.8719 5.87113 49.4846C5.87113 48.3926 5.16745 47.47 4.19371 47.1228ZM3.355 50.3233C2.89203 50.3233 2.51629 49.9476 2.51629 49.4846C2.51629 49.0217 2.89203 48.6459 3.355 48.6459C3.81796 48.6459 4.19371 49.0217 4.19371 49.4846C4.19371 49.9476 3.81796 50.3233 3.355 50.3233Z" fill="#355F25"/>
<path d="M4.87794 33.5482H9.22581V31.8708H4.87794C4.53071 30.897 3.60813 30.1934 2.51613 30.1934C1.1289 30.1934 0 31.3223 0 32.7095C0 34.0967 1.1289 35.2256 2.51613 35.2256C3.60813 35.2256 4.53071 34.5219 4.87794 33.5482ZM1.67742 32.7095C1.67742 32.2465 2.05316 31.8708 2.51613 31.8708C2.9791 31.8708 3.35484 32.2465 3.35484 32.7095C3.35484 33.1725 2.9791 33.5482 2.51613 33.5482C2.05316 33.5482 1.67742 33.1725 1.67742 32.7095Z" fill="#355F25"/>
<path d="M2.51613 28.5166C3.60813 28.5166 4.53071 27.813 4.87794 26.8392H9.22581V25.1618H4.87794C4.53071 24.1872 3.60813 23.4844 2.51613 23.4844C1.1289 23.4844 0 24.6133 0 26.0005C0 27.3877 1.1289 28.5166 2.51613 28.5166ZM2.51613 25.1618C2.9791 25.1618 3.35484 25.5375 3.35484 26.0005C3.35484 26.4635 2.9791 26.8392 2.51613 26.8392C2.05316 26.8392 1.67742 26.4635 1.67742 26.0005C1.67742 25.5375 2.05316 25.1618 2.51613 25.1618Z" fill="#355F25"/>
<path d="M9.22593 28.5156H5.87109V30.193H9.22593V28.5156Z" fill="#355F25"/>
<path d="M9.22593 21.8066H5.87109V23.4841H9.22593V21.8066Z" fill="#355F25"/>
<path d="M9.22581 18.4512H0V20.1286H9.22581V18.4512Z" fill="#355F25"/>
<path d="M6.36228 16.7735H9.22563V15.0961H7.05673L5.03208 13.0714V11.5869C6.00583 11.2397 6.7095 10.3171 6.7095 9.22511C6.7095 7.83789 5.5806 6.70898 4.19338 6.70898C2.80615 6.70898 1.67725 7.83789 1.67725 9.22511C1.67725 10.3171 2.38008 11.2397 3.35467 11.5869V13.7659L6.36228 16.7735ZM4.19338 8.3864C4.65634 8.3864 5.03208 8.76215 5.03208 9.22511C5.03208 9.68808 4.65634 10.0638 4.19338 10.0638C3.73041 10.0638 3.35467 9.68808 3.35467 9.22511C3.35467 8.76215 3.73041 8.3864 4.19338 8.3864Z" fill="#355F25"/>
<path d="M15.0968 7.05753V9.22644H16.7742V6.36308L13.7666 3.35547H0V5.03289H13.0721L15.0968 7.05753Z" fill="#355F25"/>
<path d="M18.4516 3.70206V9.22581H20.129V3.00761L17.1214 0H0V1.67742H16.427L18.4516 3.70206Z" fill="#355F25"/>
<path d="M23.4841 5.87109H21.8066V9.22593H23.4841V5.87109Z" fill="#355F25"/>
<path d="M33.5485 0H31.8711V9.22581H33.5485V0Z" fill="#355F25"/>
<path d="M25.1613 4.87794V9.22581H26.8387V6.21819L28.5161 7.89561V9.22581H30.1936V7.20116L27.5089 4.51645C28.1169 4.05684 28.5161 3.33555 28.5161 2.51613C28.5161 1.1289 27.3872 0 26 0C24.6128 0 23.4839 1.1289 23.4839 2.51613C23.4839 3.60813 24.1867 4.53071 25.1613 4.87794ZM26 1.67742C26.463 1.67742 26.8387 2.05316 26.8387 2.51613C26.8387 2.9791 26.463 3.35484 26 3.35484C25.537 3.35484 25.1613 2.9791 25.1613 2.51613C25.1613 2.05316 25.537 1.67742 26 1.67742Z" fill="#355F25"/>
<path d="M36.9035 5.37948L38.9281 3.35484H47.1223C47.3756 4.06523 47.935 4.62465 48.6454 4.87794V16.427L46.6208 18.4516H42.7745V20.129H47.3152L50.3229 17.1214V4.87794C51.2966 4.53071 52.0003 3.60813 52.0003 2.51613C52.0003 1.1289 50.8714 0 49.4841 0C48.3921 0 47.4696 0.703677 47.1223 1.67742H38.2337L35.2261 4.68503V9.22581H36.9035V5.37948ZM49.4841 1.67742C49.9471 1.67742 50.3229 2.05316 50.3229 2.51613C50.3229 2.9791 49.9471 3.35484 49.4841 3.35484C49.0212 3.35484 48.6454 2.9791 48.6454 2.51613C48.6454 2.05316 49.0212 1.67742 49.4841 1.67742Z" fill="#355F25"/>
<path d="M43.4115 10.2098L45.2902 12.0885V13.0714L43.2656 15.0961H42.7741V16.7735H43.9601L46.9677 13.7659V11.394L43.9601 8.3864H43.4585C43.1113 7.41266 42.1887 6.70898 41.0967 6.70898C39.7095 6.70898 38.5806 7.83789 38.5806 9.22511C38.5806 10.6123 39.7095 11.7412 41.0967 11.7412C42.135 11.7412 43.0274 11.1089 43.4115 10.2098ZM41.0967 10.0638C40.6337 10.0638 40.258 9.68808 40.258 9.22511C40.258 8.76215 40.6337 8.3864 41.0967 8.3864C41.5597 8.3864 41.9354 8.76215 41.9354 9.22511C41.9354 9.68808 41.5597 10.0638 41.0967 10.0638Z" fill="#355F25"/>
<path d="M51.9997 21.8066H42.7739V23.4841H51.9997V21.8066Z" fill="#355F25"/>
<path d="M50.3223 47.1229V28.1697L47.3147 25.1621H42.7739V26.8395H46.6202L48.6449 28.8642V33.202L47.3147 31.8718H42.7739V33.5492H46.6202L48.6449 35.5739V47.1229C47.6703 47.4701 46.9675 48.3927 46.9675 49.4847C46.9675 50.8719 48.0964 52.0008 49.4836 52.0008C50.8708 52.0008 51.9997 50.8719 51.9997 49.4847C51.9997 48.3927 51.2961 47.4701 50.3223 47.1229ZM49.4836 50.3234C49.0206 50.3234 48.6449 49.9477 48.6449 49.4847C48.6449 49.0217 49.0206 48.646 49.4836 48.646C49.9466 48.646 50.3223 49.0217 50.3223 49.4847C50.3223 49.9477 49.9466 50.3234 49.4836 50.3234Z" fill="#355F25"/>
<path d="M46.1288 28.5156H42.7739V30.193H46.1288V28.5156Z" fill="#355F25"/>
<path d="M46.968 38.2342L43.9604 35.2266H42.7745V36.904H43.2659L45.2906 38.9286V43.6137H36.9035V42.775H35.2261V45.2911H45.2906V46.6213L43.2659 48.6459H41.7814C41.4342 47.6722 40.5116 46.9685 39.4196 46.9685C38.0324 46.9685 36.9035 48.0974 36.9035 49.4846C36.9035 50.8719 38.0324 52.0008 39.4196 52.0008C40.5116 52.0008 41.4342 51.2971 41.7814 50.3233H43.9604L46.968 47.3157V38.2342ZM39.4196 50.3233C38.9567 50.3233 38.5809 49.9476 38.5809 49.4846C38.5809 49.0217 38.9567 48.6459 39.4196 48.6459C39.8826 48.6459 40.2583 49.0217 40.2583 49.4846C40.2583 49.9476 39.8826 50.3233 39.4196 50.3233Z" fill="#355F25"/>
<path d="M16.7743 42.7743H15.0969V43.613H10.749C10.4018 42.6392 9.47922 41.9355 8.38722 41.9355C7 41.9355 5.87109 43.0644 5.87109 44.4517C5.87109 45.8389 7 46.9678 8.38722 46.9678C9.47922 46.9678 10.4018 46.2641 10.749 45.2904H16.7743V42.7743ZM8.38722 45.2904C7.92425 45.2904 7.54851 44.9146 7.54851 44.4517C7.54851 43.9887 7.92425 43.613 8.38722 43.613C8.85019 43.613 9.22593 43.9887 9.22593 44.4517C9.22593 44.9146 8.85019 45.2904 8.38722 45.2904Z" fill="#355F25"/>
<path d="M33.5485 42.7734H31.8711V51.9992H33.5485V42.7734Z" fill="#355F25"/>
<path d="M30.1935 42.7734H28.5161V51.9992H30.1935V42.7734Z" fill="#355F25"/>
<path d="M25.1612 44.1036L23.4837 45.781V42.7734H21.8063V47.1213C20.8317 47.4685 20.1289 48.3911 20.1289 49.4831C20.1289 50.8703 21.2578 51.9992 22.645 51.9992C24.0323 51.9992 25.1612 50.8703 25.1612 49.4831C25.1612 48.6637 24.7619 47.9424 24.1539 47.4828L26.8386 44.7981V42.7734H25.1612V44.1036ZM22.645 50.3218C22.1821 50.3218 21.8063 49.9461 21.8063 49.4831C21.8063 49.0201 22.1821 48.6444 22.645 48.6444C23.108 48.6444 23.4837 49.0201 23.4837 49.4831C23.4837 49.9461 23.108 50.3218 22.645 50.3218Z" fill="#355F25"/>
<path d="M20.1291 42.7734H18.4517V44.9423L15.9355 47.4585V51.9992H17.613V48.1529L20.1291 45.6368V42.7734Z" fill="#355F25"/>
<path d="M35.2259 41.0978H36.9033V39.4204H39.4195V36.9043H41.0969V35.2269H39.4195V33.5495H41.0969V31.872H39.4195V30.1946H41.0969V28.5172H39.4195V26.8398H41.0969V25.1624H39.4195V23.4849H41.0969V21.8075H39.4195V20.1301H41.0969V18.4527H39.4195V16.7753H41.0969V15.0978H39.4195V12.5817H36.9033V10.9043H35.2259V12.5817H33.5485V10.9043H31.8711V12.5817H30.1936V10.9043H28.5162V12.5817H26.8388V10.9043H25.1614V12.5817H23.484V10.9043H21.8065V12.5817H20.1291V10.9043H18.4517V12.5817H16.7743V10.9043H15.0969V12.5817H14.7496L12.5807 14.7506V15.0978H10.9033V16.7753H12.5807V18.4527H10.9033V20.1301H12.5807V21.8075H10.9033V23.4849H12.5807V25.1624H10.9033V26.8398H12.5807V28.5172H10.9033V30.1946H12.5807V31.872H10.9033V33.5495H12.5807V35.2269H10.9033V36.9043H12.5807V39.4204H15.0969V41.0978H16.7743V39.4204H18.4517V41.0978H20.1291V39.4204H21.8065V41.0978H23.484V39.4204H25.1614V41.0978H26.8388V39.4204H28.5162V41.0978H30.1936V39.4204H31.8711V41.0978H33.5485V39.4204H35.2259V41.0978ZM14.2582 37.743V15.4451L15.4441 14.2591H37.742V37.743H14.2582Z" fill="#355F25"/>
<path d="M33.4319 22.1261L34.8954 20.6625L31.3376 17.1047L29.8741 18.5683C29.4379 18.3393 28.9842 18.1514 28.5162 18.0038V15.9355H23.4839V18.0038C23.0151 18.1514 22.5614 18.3393 22.1261 18.5683L20.6625 17.1047L17.1047 20.6625L18.5683 22.1261C18.3401 22.5622 18.1514 23.0159 18.0038 23.4839H15.9355V28.5162H18.0038C18.1514 28.985 18.3393 29.4388 18.5683 29.8741L17.1047 31.3376L20.6625 34.8954L22.1261 33.4319C22.5622 33.66 23.0151 33.8487 23.4839 33.9963V36.0646H28.5162V33.9963C28.985 33.8487 29.4388 33.6608 29.8741 33.4319L31.3376 34.8954L34.8954 31.3376L33.4319 29.8741C33.66 29.4388 33.8487 28.985 33.9963 28.5162H36.0646V23.4839H33.9963C33.8487 23.0151 33.6608 22.5614 33.4319 22.1261ZM34.3872 26.8388H32.6863L32.5378 27.4913C32.3701 28.2268 32.0799 28.9246 31.6765 29.5663L31.3192 30.1332L32.5244 31.3384L31.3385 32.5244L30.1332 31.3192L29.5663 31.6764C28.9246 32.0799 28.2268 32.3701 27.4913 32.5378L26.8388 32.6863V34.3872H25.1614V32.6863L24.5088 32.5378C23.7733 32.3701 23.0755 32.0799 22.4339 31.6764L21.8669 31.3192L20.6617 32.5244L19.4757 31.3384L20.681 30.1332L20.3237 29.5663C19.9203 28.9246 19.6301 28.2268 19.4623 27.4913L19.3139 26.8388H17.613V25.1614H19.3139L19.4623 24.5088C19.6301 23.7733 19.9203 23.0755 20.3237 22.4339L20.681 21.8669L19.4757 20.6617L20.6617 19.4757L21.8669 20.6801L22.4339 20.3228C23.0755 19.9194 23.7733 19.6292 24.5088 19.4615L25.1614 19.3139V17.613H26.8388V19.3139L27.4913 19.4623C28.2268 19.6301 28.9246 19.9203 29.5663 20.3237L30.1332 20.681L31.3385 19.4766L32.5244 20.6625L31.3192 21.8677L31.6765 22.4347C32.0799 23.0763 32.3701 23.7741 32.5378 24.5097L32.6863 25.1614H34.3872V26.8388Z" fill="#355F25"/>
<path d="M26.0002 21.8066C23.6879 21.8066 21.8066 23.6879 21.8066 26.0002C21.8066 28.3125 23.6879 30.1937 26.0002 30.1937C28.3125 30.1937 30.1937 28.3125 30.1937 26.0002C30.1937 23.6879 28.3125 21.8066 26.0002 21.8066ZM26.0002 28.5163C24.613 28.5163 23.4841 27.3874 23.4841 26.0002C23.4841 24.613 24.613 23.4841 26.0002 23.4841C27.3874 23.4841 28.5163 24.613 28.5163 26.0002C28.5163 27.3874 27.3874 28.5163 26.0002 28.5163Z" fill="#355F25"/>
</g>
<defs>
<clipPath id="clip0">
<rect width="52" height="52" fill="white"/>
</clipPath>
</defs>
</svg>
