<svg width="54" height="54" viewBox="0 0 54 54" fill="none" xmlns="http://www.w3.org/2000/svg">
<g clip-path="url(#clip0)">
<path d="M49.1559 16.747C49.682 15.9943 49.9922 15.0797 49.9922 14.0938V12.7186C50.3963 12.5707 50.6856 12.1839 50.6856 11.7286V11.4019C50.6856 8.46072 48.2927 6.0679 45.3516 6.0679C42.4104 6.0679 40.0176 8.46072 40.0176 11.4019V11.7286C40.0176 12.1839 40.3068 12.5707 40.7109 12.7186V14.0938C40.7109 15.0797 41.0208 15.9943 41.5473 16.747C38.904 17.2884 36.8832 19.5555 36.7155 22.3154H30.5859C30.0034 22.3154 29.5312 22.7876 29.5312 23.3701V29.9092H25.2528V23.3701C25.2528 22.7876 24.7802 22.3154 24.1981 22.3154H16.6043C16.0218 22.3154 15.5496 22.7876 15.5496 23.3701V29.9092H11.7528V15.8374L19.1043 8.48585L24.011 13.3922C24.402 13.7836 24.8692 14.0539 25.3652 14.2038V15.9848L23.1607 18.1894C22.9629 18.3871 22.8517 18.6553 22.8517 18.9351V20.883C22.8517 21.4651 23.3242 21.9377 23.9064 21.9377C24.4889 21.9377 24.9611 21.4651 24.9611 20.883V19.3722L26.4199 17.9134L27.8788 19.3722V20.7248C27.8788 21.3073 28.3513 21.7794 28.9335 21.7794C29.516 21.7794 29.9881 21.3073 29.9881 20.7248V18.9351C29.9881 18.6553 29.8769 18.3871 29.6792 18.1894L27.4746 15.9848V14.1293C27.8899 13.9711 28.2792 13.7259 28.6133 13.3922C29.228 12.7775 29.5667 11.9601 29.5667 11.0908C29.5667 10.2216 29.228 9.40458 28.6133 8.7899L20.959 1.13518C20.957 1.13353 20.9549 1.13188 20.9533 1.13023C19.4392 -0.374346 16.9834 -0.371462 15.4726 1.13847L6.13408 10.477C3.96538 10.9001 2.32278 12.8134 2.32278 15.1044V20.5666C2.32278 21.1487 2.79533 21.6212 3.37747 21.6212C3.96002 21.6212 4.43216 21.1487 4.43216 20.5666V19.0311C5.17909 19.5288 6.07516 19.8192 7.03757 19.8192C8.00038 19.8192 8.89645 19.5288 9.64339 19.0311V30.2862C9.59354 30.3072 9.54492 30.3298 9.4959 30.3525C8.71024 30.0596 7.88461 29.9092 7.03757 29.9092C6.11719 29.9092 5.23842 30.0884 4.43216 30.411V28.3708C4.43216 27.7887 3.96002 27.3161 3.37747 27.3161C2.79492 27.3161 2.32278 27.7887 2.32278 28.3708V31.7265C0.897308 33.0156 0 34.8782 0 36.9468V52.9455C0 53.5276 0.472137 54.0001 1.05469 54.0001H49.1484C49.7306 54.0001 50.2031 53.5276 50.2031 52.9455V35.3524C52.3207 35.2086 54 33.4407 54 31.2869V22.6862C54 19.7607 51.917 17.3123 49.1559 16.747ZM45.2947 16.6238C43.9253 16.5934 42.8203 15.4707 42.8203 14.0938V12.7833H47.8828V14.0938C47.8828 15.4707 46.7779 16.5934 45.4084 16.6238H45.2947ZM48.4934 10.6739H46.4062V8.35484C47.4436 8.71533 48.2425 9.5908 48.4934 10.6739ZM44.2969 8.35484V10.6739H42.2097C42.4606 9.5908 43.2595 8.71533 44.2969 8.35484ZM43.5586 32.0186C45.0125 32.0186 46.1953 33.2014 46.1953 34.6553C46.1953 36.1092 45.0125 37.292 43.5586 37.292H11.4961C10.0422 37.292 8.85938 36.1092 8.85938 34.6553C8.85938 33.2014 10.0422 32.0186 11.4961 32.0186H43.5586ZM42.6094 39.4014H43.5586C43.8099 39.4014 44.0563 39.3812 44.2969 39.3437V51.8908H42.6094V39.4014ZM6.80603 35.3833C6.95599 36.3556 7.40341 37.2306 8.05064 37.9141C7.7812 38.1687 7.42154 38.3162 7.03757 38.3162C6.22348 38.3162 5.561 37.6541 5.561 36.8396C5.561 36.1047 6.10153 35.4949 6.80603 35.3833ZM31.6406 24.4248H37.125V29.9092H31.6406V24.4248ZM17.659 24.4248H23.1434V29.9092H17.659V24.4248ZM15.4878 6.60966C15.932 7.05337 16.4647 7.37555 17.0464 7.56053L11.3676 13.2394C10.8822 12.1175 9.97421 11.2202 8.84454 10.7497L14.5407 5.054C14.722 5.62295 15.0371 6.15854 15.4878 6.60966ZM27.4573 11.0908C27.4573 11.3965 27.3378 11.6841 27.1215 11.9004C26.6754 12.347 25.9486 12.347 25.5024 11.9004L20.5957 6.99405L20.9623 6.62779C21.4052 6.18449 21.727 5.65262 21.9132 5.07254L27.1215 10.2813C27.3378 10.4976 27.4573 10.7852 27.4573 11.0908ZM19.4705 2.63028C19.8055 2.96481 19.9896 3.40976 19.9896 3.88313C19.9896 4.31448 19.8351 4.72111 19.555 5.04329C19.5266 5.06636 19.4985 5.09108 19.4718 5.11786C18.7846 5.80505 17.6664 5.80505 16.9792 5.11786C16.2924 4.43066 16.2924 3.31294 16.9792 2.62575C16.9953 2.60968 17.0097 2.59279 17.0246 2.5759C17.7192 1.94185 18.799 1.95833 19.4705 2.63028ZM7.03757 17.7098C5.60097 17.7098 4.43216 16.541 4.43216 15.1044C4.43216 13.6674 5.60097 12.4986 7.03757 12.4986C8.47458 12.4986 9.64339 13.6674 9.64339 15.1044C9.64339 16.541 8.47458 17.7098 7.03757 17.7098ZM2.10938 36.9468C2.10938 34.2293 4.3201 32.0186 7.03757 32.0186C7.20525 32.0186 7.37128 32.0272 7.53566 32.0437C7.29012 32.4149 7.09483 32.8219 6.96094 33.2558C5.01883 33.297 3.45163 34.8881 3.45163 36.8396C3.45163 38.8172 5.06044 40.4256 7.03757 40.4256C8.13593 40.4256 9.15189 39.9295 9.82466 39.0965C10.345 39.293 10.9082 39.4014 11.4961 39.4014H11.9662V51.8904H2.10938V36.9468ZM40.5 51.8908H14.0755V44.4639H26.4199C27.0025 44.4639 27.4746 43.9913 27.4746 43.4092C27.4746 42.8266 27.0025 42.3545 26.4199 42.3545H14.0755V39.4014H40.5V51.8908ZM46.4062 51.8908V38.4497C47.196 37.8552 47.7951 37.0209 48.0938 36.0556V51.8908H46.4062ZM51.8906 31.2869C51.8906 32.2765 51.1552 33.0955 50.2031 33.2319V24.2646C50.2031 23.682 49.731 23.2099 49.1484 23.2099C48.5659 23.2099 48.0938 23.682 48.0938 24.2646V30.8123V30.8143V33.2549C47.4947 31.3194 45.6882 29.9092 43.5586 29.9092H42.6094V24.2646C42.6094 23.682 42.1372 23.2099 41.5547 23.2099C40.9721 23.2099 40.5 23.682 40.5 24.2646V29.9092H39.2344V23.3701C39.2344 23.0274 39.07 22.7233 38.8166 22.5309C38.8986 20.4228 40.638 18.7332 42.7659 18.7332H45.2947C45.3137 18.7332 45.3326 18.7344 45.3516 18.7344C45.3709 18.7344 45.3895 18.7336 45.4084 18.7332H47.9376C50.1174 18.7332 51.8906 20.5064 51.8906 22.6862V31.2869Z" fill="#355F25"/>
<path d="M3.37695 30.2734C3.65422 30.2734 3.92654 30.1606 4.12265 29.964C4.31999 29.7679 4.43164 29.496 4.43164 29.2188C4.43164 28.9411 4.31999 28.6692 4.12265 28.4731C3.92654 28.2765 3.65546 28.1641 3.37695 28.1641C3.09969 28.1641 2.82736 28.2765 2.63126 28.4731C2.43515 28.6692 2.32227 28.9411 2.32227 29.2188C2.32227 29.496 2.43515 29.7679 2.63126 29.964C2.82736 30.1606 3.09969 30.2734 3.37695 30.2734Z" fill="#355F25"/>
<path d="M7.03809 37.8457C6.75958 37.8457 6.48849 37.9586 6.29239 38.1547C6.09628 38.3512 5.9834 38.6231 5.9834 38.9004C5.9834 39.1789 6.09628 39.45 6.29239 39.6461C6.48849 39.8422 6.75958 39.9551 7.03809 39.9551C7.31535 39.9551 7.58727 39.8422 7.78378 39.6461C7.97989 39.45 8.09277 39.1781 8.09277 38.9004C8.09277 38.6231 7.97989 38.3512 7.78378 38.1547C7.58727 37.9586 7.31535 37.8457 7.03809 37.8457Z" fill="#355F25"/>
<path d="M17.4796 50.8785C17.6765 51.0746 17.9476 51.1875 18.2253 51.1875C18.5033 51.1875 18.7744 51.0746 18.9718 50.8785C19.1679 50.6824 19.2808 50.4105 19.2808 50.1328C19.2808 49.8555 19.1679 49.5836 18.9718 49.3871C18.7744 49.1914 18.5033 49.0781 18.2253 49.0781C17.9476 49.0781 17.6765 49.191 17.4796 49.3871C17.2834 49.5836 17.1714 49.8555 17.1714 50.1328C17.1714 50.4105 17.2834 50.6824 17.4796 50.8785Z" fill="#355F25"/>
<path d="M21.3047 18.2949C21.0274 18.2949 20.7551 18.4078 20.559 18.6039C20.3629 18.8004 20.25 19.0723 20.25 19.3496C20.25 19.6269 20.3629 19.8992 20.559 20.0953C20.7551 20.2922 21.0274 20.4043 21.3047 20.4043C21.582 20.4043 21.8543 20.2922 22.0504 20.0953C22.2465 19.8992 22.3594 19.6269 22.3594 19.3496C22.3594 19.0723 22.2465 18.8 22.0504 18.6039C21.8543 18.4078 21.582 18.2949 21.3047 18.2949Z" fill="#355F25"/>
<path d="M14.5547 18.2949C14.2774 18.2949 14.0051 18.4078 13.809 18.6039C13.6129 18.8004 13.5 19.0723 13.5 19.3496C13.5 19.6281 13.6129 19.8992 13.809 20.0953C14.0051 20.2914 14.2762 20.4043 14.5547 20.4043C14.832 20.4043 15.1043 20.2914 15.3004 20.0953C15.4965 19.8992 15.6094 19.6281 15.6094 19.3496C15.6094 19.0723 15.4965 18.8 15.3004 18.6039C15.1043 18.4078 14.832 18.2949 14.5547 18.2949Z" fill="#355F25"/>
<path d="M41.5547 20.4043C41.832 20.4043 42.1043 20.2922 42.3004 20.0953C42.4965 19.8992 42.6094 19.6281 42.6094 19.3496C42.6094 19.0723 42.4965 18.8 42.3004 18.6039C42.1043 18.4078 41.832 18.2949 41.5547 18.2949C41.2774 18.2949 41.0051 18.4078 40.809 18.6039C40.6129 18.8004 40.5 19.0723 40.5 19.3496C40.5 19.6281 40.6129 19.8992 40.809 20.0953C41.0051 20.2926 41.2774 20.4043 41.5547 20.4043Z" fill="#355F25"/>
<path d="M28.0547 18.2949C27.7774 18.2949 27.5051 18.4078 27.309 18.6039C27.1129 18.8004 27 19.0723 27 19.3496C27 19.6269 27.1129 19.8992 27.309 20.0953C27.5051 20.2922 27.7774 20.4043 28.0547 20.4043C28.332 20.4043 28.6043 20.2922 28.8004 20.0953C28.9965 19.8992 29.1094 19.6281 29.1094 19.3496C29.1094 19.0723 28.9965 18.8 28.8004 18.6039C28.6043 18.4078 28.332 18.2949 28.0547 18.2949Z" fill="#355F25"/>
<path d="M34.8047 18.2949C34.5274 18.2949 34.2551 18.4078 34.059 18.6039C33.8629 18.8004 33.75 19.0723 33.75 19.3496C33.75 19.6269 33.8629 19.8992 34.059 20.0953C34.2551 20.2922 34.5274 20.4043 34.8047 20.4043C35.082 20.4043 35.3543 20.2922 35.5504 20.0953C35.7465 19.8992 35.8594 19.6269 35.8594 19.3496C35.8594 19.0723 35.7465 18.8 35.5504 18.6039C35.3543 18.4078 35.082 18.2949 34.8047 18.2949Z" fill="#355F25"/>
<path d="M30.4697 11.6504C30.7474 11.6504 31.0193 11.5383 31.2154 11.3414C31.4115 11.1453 31.5244 10.8742 31.5244 10.5957C31.5244 10.3184 31.4115 10.0461 31.2154 9.85001C31.0193 9.6539 30.7482 9.54102 30.4697 9.54102C30.1925 9.54102 29.9201 9.6539 29.724 9.85001C29.5279 10.0461 29.415 10.3184 29.415 10.5957C29.415 10.8742 29.5279 11.1453 29.724 11.3414C29.9201 11.5387 30.1925 11.6504 30.4697 11.6504Z" fill="#355F25"/>
</g>
<defs>
<clipPath id="clip0">
<rect width="54" height="54" fill="white" transform="matrix(1 0 0 -1 0 54)"/>
</clipPath>
</defs>
</svg>
