<svg width="50" height="51" viewBox="0 0 50 51" fill="none" xmlns="http://www.w3.org/2000/svg">
<g clip-path="url(#clip0)">
<path d="M24.9442 41.2838C16.0421 41.2838 8.81201 34.0537 8.81201 25.1517C8.81201 16.2496 16.0421 9.01953 24.9442 9.01953C33.8462 9.01953 41.0763 16.2496 41.0763 25.1517C41.0763 34.0537 33.8462 41.2838 24.9442 41.2838ZM24.9442 9.20028C16.1551 9.20028 8.99276 16.3626 8.99276 25.1517C8.99276 33.9408 16.1551 41.1031 24.9442 41.1031C33.7333 41.1031 40.8956 33.9408 40.8956 25.1517C40.8956 16.3626 33.7333 9.20028 24.9442 9.20028Z" fill="#231F20"/>
<path d="M47.6066 2.49219L43.1104 3.68967L46.4091 6.9884L47.6066 2.49219L43.1104 3.68967L46.4091 6.9884L47.6066 2.49219Z" fill="#414042"/>
<path d="M47.6066 47.8146L46.4091 43.3184L43.1104 46.6171L47.6066 47.8146L46.4091 43.3184L43.1104 46.6171L47.6066 47.8146Z" fill="#414042"/>
<path d="M2.28296 47.8146L6.77918 46.6171L3.48044 43.3184L2.28296 47.8146L6.77918 46.6171L3.48044 43.3184L2.28296 47.8146Z" fill="#414042"/>
<path d="M2.28271 2.49219L3.4802 6.9884L6.77893 3.68967L2.28271 2.49219L3.4802 6.9884L6.77893 3.68967L2.28271 2.49219Z" fill="#414042"/>
<path d="M27.1578 3.10018C27.4515 3.05499 27.6774 2.78386 27.6774 2.49014L38.5 0.524458L49.5711 11.5955L47.6054 22.4181C47.3116 22.4407 47.0405 22.644 46.9953 22.9378C46.9276 23.2993 47.1535 23.6382 47.515 23.6834C47.8765 23.7511 48.2154 23.5252 48.2606 23.1637C48.3058 22.87 48.1476 22.5763 47.8765 22.4633L49.8648 11.4826L38.5678 0.185547L27.587 2.17382C27.4741 1.9027 27.1804 1.74454 26.8866 1.78972C26.5251 1.85751 26.2992 2.19642 26.367 2.53533C26.4573 2.91943 26.7963 3.16796 27.1578 3.10018Z" fill="#414042"/>
<path d="M48.2833 27.1176C48.2155 26.7561 47.8766 26.5301 47.5377 26.5979C47.1762 26.6657 46.9502 27.0046 47.018 27.3435C47.0632 27.6372 47.3343 27.8632 47.6281 27.8632L49.5937 38.6857L38.5227 49.7568L27.7001 47.7912C27.6775 47.4974 27.4742 47.2263 27.1804 47.1811C26.8189 47.1133 26.48 47.3393 26.4348 47.7008C26.3671 48.0623 26.593 48.4012 26.9545 48.4464C27.2482 48.4916 27.5419 48.3334 27.6549 48.0623L38.6356 50.0506L49.8649 38.8213L49.9101 38.7761L47.9218 27.7954C48.1703 27.7276 48.3285 27.4339 48.2833 27.1176Z" fill="#414042"/>
<path d="M22.7522 47.2026C22.4585 47.2478 22.2326 47.5189 22.2326 47.8126L11.41 49.7783L0.338911 38.7072L2.30459 27.8847C2.59832 27.8621 2.86944 27.6587 2.91463 27.365C2.98242 27.0035 2.75647 26.6646 2.39497 26.6194C2.03347 26.5516 1.69455 26.7776 1.64937 27.1391C1.60418 27.4328 1.76234 27.7265 2.03346 27.8395L0 38.8202L11.2292 50.0494L11.2744 50.0946L22.2551 48.1064C22.3681 48.3775 22.6618 48.5356 22.9556 48.4905C23.3171 48.4227 23.543 48.0838 23.4752 47.7449C23.43 47.3833 23.0911 47.1348 22.7522 47.2026Z" fill="#414042"/>
<path d="M22.9782 1.83576C22.6844 1.79057 22.3907 1.94873 22.2777 2.21986L11.297 0.208984L0 11.506L1.98828 22.4867C1.71715 22.5997 1.55899 22.8934 1.60418 23.1871C1.67196 23.5486 2.01087 23.7746 2.34978 23.7068C2.71129 23.639 2.93723 23.3001 2.86945 22.9612C2.82426 22.6675 2.55313 22.4415 2.25941 22.4415L0.316317 11.5964L11.3874 0.525301L22.21 2.49098C22.2326 2.78471 22.4359 3.05584 22.7296 3.10102C23.0911 3.16881 23.43 2.94287 23.4752 2.58136C23.5656 2.21986 23.3171 1.88094 22.9782 1.83576Z" fill="#414042"/>
<path d="M43.8602 6.93928L43.1572 6.23633L42.4543 6.93928L43.1572 7.64224L43.8602 6.93928Z" fill="#231F20"/>
<path opacity="0.8025" d="M41.6915 7.71111L40.9885 8.41406L41.6915 9.11702L42.3944 8.41406L41.6915 7.71111Z" fill="#231F20"/>
<path opacity="0.605" d="M40.2127 9.16619L39.5098 9.86914L40.2127 10.5721L40.9157 9.86914L40.2127 9.16619Z" fill="#231F20"/>
<path opacity="0.4075" d="M38.7647 10.6193L38.0618 11.3223L38.7647 12.0252L39.4677 11.3223L38.7647 10.6193Z" fill="#231F20"/>
<path opacity="0.21" d="M38.0094 12.7928L37.3064 12.0898L36.6034 12.7928L37.3064 13.4958L38.0094 12.7928Z" fill="#231F20"/>
<path d="M43.162 44.0662L43.865 43.3633L43.162 42.6603L42.4591 43.3633L43.162 44.0662Z" fill="#231F20"/>
<path opacity="0.8025" d="M41.6827 41.1955L40.9797 41.8984L41.6827 42.6014L42.3856 41.8984L41.6827 41.1955Z" fill="#231F20"/>
<path opacity="0.605" d="M40.2117 39.7345L39.5088 40.4375L40.2117 41.1405L40.9147 40.4375L40.2117 39.7345Z" fill="#231F20"/>
<path opacity="0.4075" d="M38.7735 38.2736L38.0706 38.9766L38.7735 39.6795L39.4765 38.9766L38.7735 38.2736Z" fill="#231F20"/>
<path opacity="0.21" d="M37.3051 38.2166L38.0081 37.5137L37.3051 36.8107L36.6021 37.5137L37.3051 38.2166Z" fill="#231F20"/>
<path d="M6.03264 43.3713L6.7356 44.0742L7.43855 43.3713L6.73559 42.6683L6.03264 43.3713Z" fill="#231F20"/>
<path opacity="0.8025" d="M8.19466 41.1916L7.4917 41.8945L8.19465 42.5975L8.89761 41.8945L8.19466 41.1916Z" fill="#231F20"/>
<path opacity="0.605" d="M9.64265 39.7384L8.9397 40.4414L9.64265 41.1444L10.3456 40.4414L9.64265 39.7384Z" fill="#231F20"/>
<path opacity="0.4075" d="M11.1224 38.2814L10.4194 38.9844L11.1224 39.6873L11.8253 38.9844L11.1224 38.2814Z" fill="#231F20"/>
<path opacity="0.21" d="M11.8898 37.5177L12.5928 38.2207L13.2957 37.5177L12.5928 36.8148L11.8898 37.5177Z" fill="#231F20"/>
<path d="M6.73323 6.23845L6.03027 6.94141L6.73323 7.64436L7.43618 6.94141L6.73323 6.23845Z" fill="#231F20"/>
<path opacity="0.8025" d="M8.20418 7.70329L7.50122 8.40625L8.20418 9.10921L8.90713 8.40625L8.20418 7.70329Z" fill="#231F20"/>
<path opacity="0.605" d="M9.64314 9.16618L8.94019 9.86914L9.64314 10.5721L10.3461 9.86914L9.64314 9.16618Z" fill="#231F20"/>
<path opacity="0.4075" d="M11.1141 10.6291L10.4111 11.332L11.1141 12.035L11.817 11.332L11.1141 10.6291Z" fill="#231F20"/>
<path opacity="0.21" d="M12.5841 12.092L11.8811 12.7949L12.5841 13.4979L13.287 12.7949L12.5841 12.092Z" fill="#231F20"/>
<path d="M19.7178 30.8871V18.8789H23.3464L25.5253 27.07L27.6795 18.8789H31.3164V30.8871H29.0638V21.4345L26.6802 30.8871H24.3458L21.9703 21.4345V30.8871H19.7178Z" fill="#D16A16"/>
</g>
<defs>
<clipPath id="clip0">
<rect width="49.8877" height="49.8877" fill="white" transform="translate(0 0.208984)"/>
</clipPath>
</defs>
</svg>
