<svg width="37" height="206" viewBox="0 0 37 206" fill="none" xmlns="http://www.w3.org/2000/svg">
<path d="M33.5652 0.434783H33.5217V1.26087H26.3478V0.434783H13V1.26087H5.17391V0.434783H1.69565L0.434783 1.69565V5.17391H1.26087V12.3478H0.434783V16.9565V25.6957H1.26087V33.5217H0.434783V33.5652H0V37H3.3913V33.5652H3V33.5217H2.13043V25.6957H3V16.9565V12.3478H2.13043V5.17391H3V3H5.17391V2.13043H13V3H26.3478V2.13043H33.5217V3H33.5652V3.3913H37V3V0.434783V0H33.5652V0.434783Z" fill="white" fill-opacity="0.3"/>
<path d="M33.5652 205.565H33.5217V204.739H26.3478V205.565H13V204.739H5.17391V205.565H1.69565L0.434783 204.304V200.826H1.26087V193.652H0.434783V189.043V180.304H1.26087V172.478H0.434783V172.435H0V169H3.3913V172.435H3V172.478H2.13043V180.304H3V189.043V193.652H2.13043V200.826H3V203H5.17391V203.87H13V203H26.3478V203.87H33.5217V203H33.5652V202.609H37V203V205.565V206H33.5652V205.565Z" fill="white" fill-opacity="0.3"/>
</svg>
