<svg width="37" height="206" viewBox="0 0 37 206" fill="none" xmlns="http://www.w3.org/2000/svg">
<path d="M36.5652 33.5652L36.5652 33.5217L35.7391 33.5217L35.7391 26.3478L36.5652 26.3478L36.5652 13L35.7391 13L35.7391 5.17391L36.5652 5.17391L36.5652 1.69565L35.3043 0.434783L31.8261 0.434782L31.8261 1.26087L24.6522 1.26087L24.6522 0.434782L20.0435 0.434782L11.3043 0.434782L11.3043 1.26087L3.47826 1.26087L3.47826 0.434781L3.43478 0.434781L3.43478 -1.46718e-06L0 -1.61732e-06L-1.48239e-07 3.3913L3.43478 3.3913L3.43478 3L3.47826 3L3.47826 2.13043L11.3043 2.13043L11.3043 3L20.0435 3L24.6522 3L24.6522 2.13043L31.8261 2.13043L31.8261 3L34 3L34 5.17391L34.8696 5.17391L34.8696 13L34 13L34 26.3478L34.8696 26.3478L34.8696 33.5217L34 33.5217L34 33.5652L33.6087 33.5652L33.6087 37L34 37L36.5652 37L37 37L37 33.5652L36.5652 33.5652Z" fill="white" fill-opacity="0.3"/>
<path d="M36.5652 172.435L36.5652 172.478L35.7391 172.478L35.7391 179.652L36.5652 179.652L36.5652 193L35.7391 193L35.7391 200.826L36.5652 200.826L36.5652 204.304L35.3043 205.565L31.8261 205.565L31.8261 204.739L24.6522 204.739L24.6522 205.565L20.0435 205.565L11.3043 205.565L11.3043 204.739L3.47826 204.739L3.47826 205.565L3.43478 205.565L3.43478 206L0 206L-1.48239e-07 202.609L3.43478 202.609L3.43478 203L3.47826 203L3.47826 203.87L11.3043 203.87L11.3043 203L20.0435 203L24.6522 203L24.6522 203.87L31.8261 203.87L31.8261 203L34 203L34 200.826L34.8696 200.826L34.8696 193L34 193L34 179.652L34.8696 179.652L34.8696 172.478L34 172.478L34 172.435L33.6087 172.435L33.6087 169L34 169L36.5652 169L37 169L37 172.435L36.5652 172.435Z" fill="white" fill-opacity="0.3"/>
</svg>
