<svg width="50" height="51" viewBox="0 0 50 51" fill="none" xmlns="http://www.w3.org/2000/svg">
<g clip-path="url(#clip0)">
<path d="M24.9442 41.9811C16.0421 41.9811 8.81201 34.751 8.81201 25.849C8.81201 16.9469 16.0421 9.7168 24.9442 9.7168C33.8462 9.7168 41.0763 16.9469 41.0763 25.849C41.0763 34.751 33.8462 41.9811 24.9442 41.9811ZM24.9442 9.89755C16.1551 9.89755 8.99276 17.0599 8.99276 25.849C8.99276 34.638 16.1551 41.8004 24.9442 41.8004C33.7333 41.8004 40.8956 34.638 40.8956 25.849C40.8956 17.0599 33.7333 9.89755 24.9442 9.89755Z" fill="#231F20"/>
<path d="M47.6058 3.1875L43.1096 4.38498L46.4083 7.68372L47.6058 3.1875L43.1096 4.38498L46.4083 7.68372L47.6058 3.1875Z" fill="#414042"/>
<path d="M47.6058 48.5099L46.4083 44.0137L43.1096 47.3124L47.6058 48.5099L46.4083 44.0137L43.1096 47.3124L47.6058 48.5099Z" fill="#414042"/>
<path d="M2.28223 48.5099L6.77844 47.3124L3.47971 44.0137L2.28223 48.5099L6.77844 47.3124L3.47971 44.0137L2.28223 48.5099Z" fill="#414042"/>
<path d="M2.28174 3.1875L3.47922 7.68372L6.77796 4.38498L2.28174 3.1875L3.47922 7.68372L6.77796 4.38498L2.28174 3.1875Z" fill="#414042"/>
<path d="M27.1578 3.79745C27.4515 3.75226 27.6774 3.48113 27.6774 3.18741L38.5 1.22172L49.5711 12.2928L47.6054 23.1154C47.3116 23.138 47.0405 23.3413 46.9953 23.635C46.9276 23.9965 47.1535 24.3354 47.515 24.3806C47.8765 24.4484 48.2154 24.2225 48.2606 23.861C48.3058 23.5672 48.1476 23.2735 47.8765 23.1606L49.8648 12.1798L38.5678 0.882812L27.587 2.87109C27.4741 2.59996 27.1804 2.4418 26.8866 2.48699C26.5251 2.55477 26.2992 2.89368 26.367 3.23259C26.4573 3.61669 26.7963 3.86523 27.1578 3.79745Z" fill="#414042"/>
<path d="M48.2833 27.8149C48.2155 27.4533 47.8766 27.2274 47.5377 27.2952C47.1762 27.363 46.9502 27.7019 47.018 28.0408C47.0632 28.3345 47.3343 28.5605 47.6281 28.5605L49.5937 39.383L38.5227 50.4541L27.7001 48.4884C27.6775 48.1947 27.4742 47.9236 27.1804 47.8784C26.8189 47.8106 26.48 48.0365 26.4348 48.398C26.3671 48.7595 26.593 49.0985 26.9545 49.1436C27.2482 49.1888 27.5419 49.0307 27.6549 48.7595L38.6356 50.7478L49.8649 39.5186L49.9101 39.4734L47.9218 28.4927C48.1703 28.4249 48.3285 28.1312 48.2833 27.8149Z" fill="#414042"/>
<path d="M22.7522 47.8999C22.4585 47.945 22.2326 48.2162 22.2326 48.5099L11.41 50.4756L0.338911 39.4045L2.30459 28.5819C2.59832 28.5593 2.86944 28.356 2.91463 28.0623C2.98242 27.7008 2.75647 27.3619 2.39497 27.3167C2.03347 27.2489 1.69455 27.4748 1.64937 27.8363C1.60418 28.1301 1.76234 28.4238 2.03346 28.5368L0 39.5175L11.2292 50.7467L11.2744 50.7919L22.2551 48.8036C22.3681 49.0748 22.6618 49.2329 22.9556 49.1877C23.3171 49.1199 23.543 48.781 23.4752 48.4421C23.43 48.0806 23.0911 47.8321 22.7522 47.8999Z" fill="#414042"/>
<path d="M22.9782 2.53302C22.6844 2.48783 22.3907 2.64599 22.2777 2.91712L11.297 0.90625L0 12.2033L1.98828 23.184C1.71715 23.297 1.55899 23.5907 1.60418 23.8844C1.67196 24.2459 2.01087 24.4718 2.34978 24.4041C2.71129 24.3363 2.93723 23.9974 2.86945 23.6585C2.82426 23.3647 2.55313 23.1388 2.25941 23.1388L0.316317 12.2937L11.3874 1.22257L22.21 3.18825C22.2326 3.48197 22.4359 3.7531 22.7296 3.79829C23.0911 3.86607 23.43 3.64013 23.4752 3.27863C23.5656 2.91712 23.3171 2.57821 22.9782 2.53302Z" fill="#414042"/>
<path d="M43.8602 7.6385L43.1572 6.93555L42.4543 7.6385L43.1572 8.34146L43.8602 7.6385Z" fill="#231F20"/>
<path opacity="0.8025" d="M41.6915 8.41033L40.9885 9.11328L41.6915 9.81624L42.3944 9.11328L41.6915 8.41033Z" fill="#231F20"/>
<path opacity="0.605" d="M40.2127 9.8654L39.5098 10.5684L40.2127 11.2713L40.9157 10.5684L40.2127 9.8654Z" fill="#231F20"/>
<path opacity="0.4075" d="M38.7647 11.3185L38.0618 12.0215L38.7647 12.7244L39.4677 12.0215L38.7647 11.3185Z" fill="#231F20"/>
<path opacity="0.21" d="M38.0094 13.492L37.3064 12.7891L36.6034 13.492L37.3064 14.195L38.0094 13.492Z" fill="#231F20"/>
<path d="M43.1628 44.7655L43.8657 44.0625L43.1628 43.3595L42.4598 44.0625L43.1628 44.7655Z" fill="#231F20"/>
<path opacity="0.8025" d="M41.6834 41.8947L40.9805 42.5977L41.6834 43.3006L42.3864 42.5977L41.6834 41.8947Z" fill="#231F20"/>
<path opacity="0.605" d="M40.2125 40.4338L39.5095 41.1367L40.2125 41.8397L40.9154 41.1367L40.2125 40.4338Z" fill="#231F20"/>
<path opacity="0.4075" d="M38.7742 38.9728L38.0713 39.6758L38.7742 40.3787L39.4772 39.6758L38.7742 38.9728Z" fill="#231F20"/>
<path opacity="0.21" d="M37.3058 38.9158L38.0088 38.2129L37.3058 37.5099L36.6029 38.2129L37.3058 38.9158Z" fill="#231F20"/>
<path d="M6.03264 44.0685L6.7356 44.7715L7.43855 44.0685L6.73559 43.3656L6.03264 44.0685Z" fill="#231F20"/>
<path opacity="0.8025" d="M8.19466 41.8888L7.4917 42.5918L8.19465 43.2947L8.89761 42.5918L8.19466 41.8888Z" fill="#231F20"/>
<path opacity="0.605" d="M9.64265 40.4357L8.9397 41.1387L9.64265 41.8416L10.3456 41.1387L9.64265 40.4357Z" fill="#231F20"/>
<path opacity="0.4075" d="M11.1224 38.9787L10.4194 39.6816L11.1224 40.3846L11.8253 39.6816L11.1224 38.9787Z" fill="#231F20"/>
<path opacity="0.21" d="M11.8898 38.215L12.5928 38.918L13.2957 38.215L12.5928 37.5121L11.8898 38.215Z" fill="#231F20"/>
<path d="M6.73323 6.93962L6.03027 7.64258L6.73323 8.34553L7.43618 7.64258L6.73323 6.93962Z" fill="#231F20"/>
<path opacity="0.8025" d="M8.20418 8.40447L7.50122 9.10742L8.20418 9.81038L8.90713 9.10742L8.20418 8.40447Z" fill="#231F20"/>
<path opacity="0.605" d="M9.64314 9.86736L8.94019 10.5703L9.64314 11.2733L10.3461 10.5703L9.64314 9.86736Z" fill="#231F20"/>
<path opacity="0.4075" d="M11.1141 11.3302L10.4111 12.0332L11.1141 12.7362L11.817 12.0332L11.1141 11.3302Z" fill="#231F20"/>
<path opacity="0.21" d="M12.5841 12.7931L11.8811 13.4961L12.5841 14.199L13.287 13.4961L12.5841 12.7931Z" fill="#231F20"/>
<path d="M19.259 25.6517C19.259 24.4285 19.442 23.4018 19.8078 22.5718C20.0809 21.9602 20.4522 21.4114 20.9218 20.9254C21.3969 20.4394 21.9157 20.079 22.4781 19.8442C23.2263 19.5274 24.0891 19.3691 25.0665 19.3691C26.8358 19.3691 28.2502 19.9179 29.3095 21.0155C30.3744 22.1131 30.9068 23.6394 30.9068 25.5943C30.9068 27.5329 30.3799 29.051 29.3259 30.1486C28.272 31.2407 26.8631 31.7868 25.0993 31.7868C23.3136 31.7868 21.8938 31.2435 20.8399 30.1568C19.786 29.0646 19.259 27.5629 19.259 25.6517ZM21.7573 25.5697C21.7573 26.9295 22.0713 27.9616 22.6993 28.666C23.3273 29.365 24.1246 29.7145 25.0911 29.7145C26.0577 29.7145 26.8495 29.3677 27.4665 28.6742C28.0891 27.9752 28.4003 26.9295 28.4003 25.537C28.4003 24.1609 28.0973 23.1343 27.4911 22.4571C26.8904 21.78 26.0904 21.4414 25.0911 21.4414C24.0918 21.4414 23.2863 21.7855 22.6747 22.4735C22.0631 23.1561 21.7573 24.1882 21.7573 25.5697Z" fill="#D16A16"/>
</g>
<defs>
<clipPath id="clip0">
<rect width="49.8877" height="49.8877" fill="white" transform="translate(0 0.904297)"/>
</clipPath>
</defs>
</svg>
