<svg width="50" height="51" viewBox="0 0 50 51" fill="none" xmlns="http://www.w3.org/2000/svg">
<g clip-path="url(#clip0)">
<path d="M24.9442 41.3756C16.0421 41.3756 8.81201 34.1455 8.81201 25.2435C8.81201 16.3414 16.0421 9.11133 24.9442 9.11133C33.8462 9.11133 41.0763 16.3414 41.0763 25.2435C41.0763 34.1455 33.8462 41.3756 24.9442 41.3756ZM24.9442 9.29208C16.1551 9.29208 8.99276 16.4544 8.99276 25.2435C8.99276 34.0326 16.1551 41.1949 24.9442 41.1949C33.7333 41.1949 40.8956 34.0326 40.8956 25.2435C40.8956 16.4544 33.7333 9.29208 24.9442 9.29208Z" fill="#231F20"/>
<path d="M47.6058 2.58203L43.1096 3.77952L46.4083 7.07825L47.6058 2.58203L43.1096 3.77952L46.4083 7.07825L47.6058 2.58203Z" fill="#414042"/>
<path d="M47.6058 47.9064L46.4083 43.4102L43.1096 46.7089L47.6058 47.9064L46.4083 43.4102L43.1096 46.7089L47.6058 47.9064Z" fill="#414042"/>
<path d="M2.28223 47.9064L6.77844 46.7089L3.47971 43.4102L2.28223 47.9064L6.77844 46.7089L3.47971 43.4102L2.28223 47.9064Z" fill="#414042"/>
<path d="M2.28174 2.58203L3.47922 7.07825L6.77796 3.77952L2.28174 2.58203L3.47922 7.07825L6.77796 3.77952L2.28174 2.58203Z" fill="#414042"/>
<path d="M27.1578 3.19198C27.4515 3.14679 27.6774 2.87566 27.6774 2.58194L38.5 0.616255L49.5711 11.6873L47.6054 22.5099C47.3116 22.5325 47.0405 22.7358 46.9953 23.0296C46.9276 23.3911 47.1535 23.73 47.515 23.7752C47.8765 23.8429 48.2154 23.617 48.2606 23.2555C48.3058 22.9618 48.1476 22.6681 47.8765 22.5551L49.8648 11.5744L38.5678 0.277344L27.587 2.26562C27.4741 1.99449 27.1804 1.83633 26.8866 1.88152C26.5251 1.9493 26.2992 2.28821 26.367 2.62713C26.4573 3.01122 26.7963 3.25976 27.1578 3.19198Z" fill="#414042"/>
<path d="M48.2833 27.2094C48.2155 26.8479 47.8766 26.6219 47.5377 26.6897C47.1762 26.7575 46.9502 27.0964 47.018 27.4353C47.0632 27.729 47.3343 27.955 47.6281 27.955L49.5937 38.7775L38.5227 49.8486L27.7001 47.8829C27.6775 47.5892 27.4742 47.3181 27.1804 47.2729C26.8189 47.2051 26.48 47.4311 26.4348 47.7926C26.3671 48.1541 26.593 48.493 26.9545 48.5382C27.2482 48.5834 27.5419 48.4252 27.6549 48.1541L38.6356 50.1424L49.8649 38.9131L49.9101 38.8679L47.9218 27.8872C48.1703 27.8194 48.3285 27.5257 48.2833 27.2094Z" fill="#414042"/>
<path d="M22.7522 47.2944C22.4585 47.3396 22.2326 47.6107 22.2326 47.9044L11.41 49.8701L0.338911 38.799L2.30459 27.9765C2.59832 27.9539 2.86944 27.7505 2.91463 27.4568C2.98242 27.0953 2.75647 26.7564 2.39497 26.7112C2.03347 26.6434 1.69455 26.8694 1.64937 27.2309C1.60418 27.5246 1.76234 27.8183 2.03346 27.9313L0 38.912L11.2292 50.1412L11.2744 50.1864L22.2551 48.1982C22.3681 48.4693 22.6618 48.6274 22.9556 48.5823C23.3171 48.5145 23.543 48.1756 23.4752 47.8366C23.43 47.4751 23.0911 47.2266 22.7522 47.2944Z" fill="#414042"/>
<path d="M22.9782 1.92755C22.6844 1.88237 22.3907 2.04052 22.2777 2.31165L11.297 0.300781L0 11.5978L1.98828 22.5785C1.71715 22.6915 1.55899 22.9852 1.60418 23.2789C1.67196 23.6404 2.01087 23.8664 2.34978 23.7986C2.71129 23.7308 2.93723 23.3919 2.86945 23.053C2.82426 22.7593 2.55313 22.5333 2.25941 22.5333L0.316317 11.6882L11.3874 0.617098L22.21 2.58278C22.2326 2.8765 22.4359 3.14763 22.7296 3.19282C23.0911 3.2606 23.43 3.03466 23.4752 2.67316C23.5656 2.31165 23.3171 1.97274 22.9782 1.92755Z" fill="#414042"/>
<path d="M43.8602 7.03108L43.1572 6.32812L42.4543 7.03108L43.1572 7.73403L43.8602 7.03108Z" fill="#231F20"/>
<path opacity="0.8025" d="M41.6915 7.8029L40.9885 8.50586L41.6915 9.20882L42.3944 8.50586L41.6915 7.8029Z" fill="#231F20"/>
<path opacity="0.605" d="M40.2127 9.25798L39.5098 9.96094L40.2127 10.6639L40.9157 9.96094L40.2127 9.25798Z" fill="#231F20"/>
<path opacity="0.4075" d="M38.7647 10.7111L38.0618 11.4141L38.7647 12.117L39.4677 11.4141L38.7647 10.7111Z" fill="#231F20"/>
<path opacity="0.21" d="M38.0094 12.8846L37.3064 12.1816L36.6034 12.8846L37.3064 13.5876L38.0094 12.8846Z" fill="#231F20"/>
<path d="M43.1628 44.158L43.8657 43.4551L43.1628 42.7521L42.4598 43.4551L43.1628 44.158Z" fill="#231F20"/>
<path opacity="0.8025" d="M41.6834 41.2873L40.9805 41.9902L41.6834 42.6932L42.3864 41.9902L41.6834 41.2873Z" fill="#231F20"/>
<path opacity="0.605" d="M40.2125 39.8263L39.5095 40.5293L40.2125 41.2322L40.9154 40.5293L40.2125 39.8263Z" fill="#231F20"/>
<path opacity="0.4075" d="M38.7742 38.3654L38.0713 39.0684L38.7742 39.7713L39.4772 39.0684L38.7742 38.3654Z" fill="#231F20"/>
<path opacity="0.21" d="M37.3058 38.3084L38.0088 37.6055L37.3058 36.9025L36.6029 37.6055L37.3058 38.3084Z" fill="#231F20"/>
<path d="M6.03264 43.4611L6.7356 44.1641L7.43855 43.4611L6.73559 42.7582L6.03264 43.4611Z" fill="#231F20"/>
<path opacity="0.8025" d="M8.19466 41.2814L7.4917 41.9844L8.19465 42.6873L8.89761 41.9844L8.19466 41.2814Z" fill="#231F20"/>
<path opacity="0.605" d="M9.64265 39.8283L8.9397 40.5312L9.64265 41.2342L10.3456 40.5312L9.64265 39.8283Z" fill="#231F20"/>
<path opacity="0.4075" d="M11.1224 38.3713L10.4194 39.0742L11.1224 39.7772L11.8253 39.0742L11.1224 38.3713Z" fill="#231F20"/>
<path opacity="0.21" d="M11.8898 37.6076L12.5928 38.3105L13.2957 37.6076L12.5928 36.9046L11.8898 37.6076Z" fill="#231F20"/>
<path d="M6.73323 6.3322L6.03027 7.03516L6.73323 7.73811L7.43618 7.03516L6.73323 6.3322Z" fill="#231F20"/>
<path opacity="0.8025" d="M8.20418 7.79704L7.50122 8.5L8.20418 9.20296L8.90713 8.5L8.20418 7.79704Z" fill="#231F20"/>
<path opacity="0.605" d="M9.64314 9.25993L8.94019 9.96289L9.64314 10.6658L10.3461 9.96289L9.64314 9.25993Z" fill="#231F20"/>
<path opacity="0.4075" d="M11.1141 10.7228L10.4111 11.4258L11.1141 12.1287L11.817 11.4258L11.1141 10.7228Z" fill="#231F20"/>
<path opacity="0.21" d="M12.5841 12.1857L11.8811 12.8887L12.5841 13.5916L13.287 12.8887L12.5841 12.1857Z" fill="#231F20"/>
<path d="M19.259 25.0482C19.259 23.825 19.442 22.7984 19.8078 21.9684C20.0809 21.3567 20.4522 20.8079 20.9218 20.3219C21.3969 19.8359 21.9157 19.4755 22.4781 19.2407C23.2263 18.924 24.0891 18.7656 25.0665 18.7656C26.8358 18.7656 28.2502 19.3144 29.3095 20.412C30.3744 21.5097 30.9068 23.0359 30.9068 24.9909C30.9068 26.9294 30.3798 28.4475 29.3259 29.5451C28.272 30.6373 26.8631 31.1834 25.0993 31.1834C23.3136 31.1834 21.8938 30.64 20.8399 29.5533C19.786 28.4612 19.259 26.9595 19.259 25.0482ZM21.7573 24.9663C21.7573 26.326 22.0713 27.3581 22.6993 28.0625C23.3273 28.7615 24.1246 29.111 25.0911 29.111C26.0577 29.111 26.8495 28.7643 27.4665 28.0707C28.0891 27.3718 28.4003 26.326 28.4003 24.9335C28.4003 23.5574 28.0973 22.5308 27.4911 21.8537C26.8904 21.1765 26.0904 20.838 25.0911 20.838C24.0918 20.838 23.2863 21.182 22.6747 21.8701C22.0631 22.5527 21.7573 23.5847 21.7573 24.9663Z" fill="#D16A16"/>
</g>
<defs>
<clipPath id="clip0">
<rect width="49.8877" height="49.8877" fill="white" transform="translate(0 0.300781)"/>
</clipPath>
</defs>
</svg>
