<svg width="69" height="67" viewBox="0 0 69 67" fill="none" xmlns="http://www.w3.org/2000/svg">
<g opacity="0.5">
<path d="M66.5108 32.67L56.0232 24.7969L60.6158 13.7228L60.6556 13.6432L54.7507 17.888L55.546 10.4721L55.5559 10.4423L41.1119 6.44607L37.5431 0.889129L37.5133 0.849365L34.8591 9.30903L22.9301 15.6612L22.9201 15.6712L22.9698 15.701L34.8889 9.3488H34.8989L37.5332 0.958715L41.0721 6.48583H41.0821L55.4963 10.4821L54.6911 17.9874L60.5363 13.7824L55.9635 24.7969V24.8168L66.4511 32.68L58.2897 45.2452V45.2552L60.5363 50.663L50.9832 45.5136L50.9533 45.4937L48.5974 60.3752L35.3561 59.1724L19.3414 60.5641L25.3159 49.987H25.2662L19.252 60.6237L35.3561 59.2221L48.6172 60.4249L48.6371 60.4348L50.9931 45.5733L60.5761 50.7326L60.6357 50.7723L58.3394 45.2651L66.5008 32.6899L66.5108 32.67Z" fill="#313948"/>
<path d="M9.77832 21.7354L10.5736 11.3571L12.7208 13.6734L15.8025 5.37274L19.4408 9.97536L22.6219 2.37061L22.6517 2.40043L27.811 8.22577L27.8011 8.24565L22.9599 15.7112H22.95L14.9873 16.1884L12.7407 13.7628L9.77832 21.7354ZM10.6134 11.4665L9.85785 21.3775L12.7009 13.7131L10.6134 11.4665ZM12.7606 13.7131L15.0072 16.1387L22.9301 15.6615L27.7414 8.22577L22.6418 2.46007L19.4607 10.0748L15.8224 5.47215L12.7606 13.7131Z" fill="#313948"/>
<path d="M7.63133 32.163L3.38659 24.7471L13.566 26.0395L13.576 25.9997L3.29712 24.6875L7.59157 32.1829L7.63133 32.163Z" fill="#313948"/>
<path d="M66.5606 32.5907L66.501 32.6304L63.4591 19.9459L63.469 19.926H63.4591L60.616 13.7031V13.6931L55.5462 10.4425L52.9317 5.86967L52.9218 5.81002L52.9019 5.83984L46.659 3.2751H46.6491L41.1021 6.42635L29.9485 0.90918L27.4831 8.42447L27.4732 8.45429L34.8692 9.35891L48.1104 12.4505H48.1303L52.8919 5.94919L54.7012 17.9677L63.3994 19.9757L59.2541 32.6404V32.6503L61.2423 36.1694L56.2818 39.4896L56.2718 39.4996L56.2619 39.5095L53.9954 42.0842L53.9656 42.124L50.9535 45.5237L50.9435 45.5337L53.4586 50.8321L54.6813 56.6078L46.6491 51.9853L48.5876 60.3455L42.5236 56.9756L42.4739 56.9458L36.3504 53.4366L39.5712 59.4509L33.8154 64.3815L35.396 59.2023L36.1516 53.4764L28.1492 55.8622L16.9955 47.5815L9.37089 41.6965L9.34106 41.7363L16.9657 47.6213L28.1293 55.902L28.1392 55.9119L36.0919 53.5361L35.3463 59.1825L33.716 64.5207L39.601 59.4906L41.6588 63.3377L41.6687 63.3576L48.6174 60.4151L48.6571 60.435L48.6472 60.3952L54.7211 56.6674L54.7608 56.6873L54.7509 56.6476L60.616 50.7029L64.9999 43.297L65.0596 43.2771L65.0098 43.2572L66.5109 32.6603L66.5606 32.5907ZM48.1104 12.3909L34.8791 9.29926L27.5328 8.40458L29.9683 0.978766L41.0822 6.49594L41.0922 6.50588L46.6392 3.35463L52.8621 5.88955L48.1104 12.3909ZM54.7409 17.918L52.9516 6.00884L55.5064 10.4822V10.4922L60.5762 13.7428L63.3895 19.926L54.7409 17.918ZM36.4796 53.5758L42.454 56.9955L39.611 59.421L36.4796 53.5758ZM41.6886 63.3079L39.6308 59.4708L42.4938 57.0253L48.5577 60.3952L41.6886 63.3079ZM48.6373 60.3654L46.7187 52.0946L54.6714 56.6674L48.6373 60.3654ZM56.2718 39.5692L58.27 45.1957L54.0252 42.114L56.2718 39.5692ZM56.3215 39.5592L64.9104 43.287L58.3296 45.2255L56.3215 39.5592ZM51.0032 45.5436L53.9954 42.1538L58.2898 45.2653L53.4983 50.7824L51.0032 45.5436ZM54.731 56.6078L53.5083 50.8421L60.5166 50.7327L54.731 56.6078ZM60.5762 50.693L53.5381 50.8023L58.3296 45.2852L64.9303 43.3367L60.5762 50.693ZM64.9601 43.2572L56.3315 39.5095L61.2621 36.2092L62.8427 39.0025L66.4413 32.7994L64.9601 43.2572ZM61.3019 36.1793L66.4115 32.7597L62.8427 38.9031L61.3019 36.1793ZM61.2721 36.1396L59.2939 32.6503L63.4193 20.0453L66.4513 32.6702L61.2721 36.1396Z" fill="#313948"/>
<path d="M28.1393 55.8721L28.1294 55.8621L24.6998 57.6813L19.9182 54.1225L10.2259 50.3946L16.9658 47.6311L25.2763 50.007H25.2863V49.9573L16.9757 47.5913H16.9658L10.1762 50.3748L9.58968 44.1319L9.38092 41.7262L6.26943 39.4995L7.63133 32.183L9.02305 25.4729L13.5461 26.0495L13.5859 25.9998L9.03299 25.4232L9.8382 21.5165L3.3667 24.6777L5.54375 17.2817L18.5066 21.6159L18.5265 21.6258L22.9502 15.711L22.9601 15.6613L22.9402 15.6514L18.5066 21.5662L5.54375 17.232L5.52387 17.222L3.30706 24.7671L1.299 31.8351H1.28906L1.299 31.8649L1.28906 31.8848H1.299L2.85972 39.1416L4.86777 46.7961L4.84789 46.806L4.87771 46.8259L4.90753 46.9253L4.91747 46.8557L10.1165 50.4046L10.0967 50.4145L10.1464 50.4344L12.7608 56.1703V56.1802L19.282 60.6238L19.292 60.6337L24.6998 57.7608L33.746 64.4908L33.7559 64.5007L41.7483 63.3675L35.3763 59.1923L28.1393 55.8721ZM9.58968 44.0723L9.37098 41.766L9.58968 44.0723ZM9.34116 41.6964L6.11038 40.414L6.26943 39.5392L9.34116 41.6964ZM6.06067 40.3942L3.06848 39.2012L6.21973 39.5293L6.06067 40.3942ZM9.78849 21.6059L8.99322 25.4133L3.42635 24.7075L9.78849 21.6059ZM3.35676 24.7472L8.98328 25.463L7.59156 32.1532L1.34871 31.8351L3.35676 24.7472ZM1.34871 31.8848L7.59156 32.2029L6.22967 39.4895L2.90942 39.1416L1.34871 31.8848ZM4.88765 46.6867L2.9293 39.2012L6.05073 40.4439L4.88765 46.6867ZM6.10044 40.4637L9.32127 41.7461L9.53997 44.0921L4.91747 46.7464L6.10044 40.4637ZM4.93736 46.7961L9.54991 44.1518L10.1364 50.3549L4.93736 46.7961ZM19.3019 60.5641L12.8006 56.1405L10.216 50.4543L19.9083 54.1722L24.67 57.7111L19.3019 60.5641ZM33.7658 64.4411L24.7495 57.731L28.1294 55.9317L35.3464 59.2321L41.6092 63.3376L33.7658 64.4411Z" fill="#313948"/>
<path d="M13.576 26.0594L22.9503 15.7109L22.9403 15.6513L13.576 25.9798L9.84822 21.5561L15.0075 16.1781L27.5131 8.4541L41.0923 6.49575L48.0907 12.4304L48.1404 12.4205V12.4106L41.1122 6.44604H41.1023L27.5032 8.40439H27.4932L14.9777 16.1384L9.78857 21.5561L13.5562 26.0395L13.576 26.0594Z" fill="#313948"/>
<path d="M50.9434 45.5337L46.6689 52.0151L36.1117 53.4864L19.9677 54.1226L19.8882 54.1325L19.8584 54.1822L36.1117 53.5361L46.6888 52.0648H46.6987L50.9932 45.5536V45.5436L50.9434 45.5337Z" fill="#313948"/>
<path d="M13.566 25.9998L7.56177 32.1929L7.67112 32.1531L13.5859 26.0395L13.566 25.9998Z" fill="#313948"/>
<path d="M48.1505 12.5097L55.9441 24.7767L56.0435 24.8463L48.0908 12.3208L48.1505 12.5097Z" fill="#313948"/>
<path d="M27.5928 8.49373L40.7843 13.9413L40.834 13.9314L40.8439 13.9115L27.4138 8.3645L27.5928 8.49373Z" fill="#313948"/>
<path d="M54.7509 17.9376L54.741 17.9277L48.1303 12.4006L48.1204 12.3906V12.4503L54.7012 17.9476L55.9637 24.7869L55.9935 24.8366L56.0233 24.8266L54.7509 17.9376Z" fill="#313948"/>
<path d="M59.2246 32.6401L59.2843 32.67L59.3141 32.6501L59.2246 32.6401Z" fill="#313948"/>
<path d="M18.5664 21.626L15.0274 16.1585L19.471 10.0449L27.5131 8.45433H27.5231L32.2549 4.8955L34.8594 9.32912L33.3086 14.6375L22.9205 15.6614L22.99 15.7012L33.2788 14.6872L32.7221 16.5959L30.8234 15.0849L30.8334 15.1545L32.7023 16.6456L32.7619 16.6257L33.3285 14.6773L40.814 13.9417L48.1404 12.4307L46.6592 3.28508L37.5236 0.879395H37.5136L32.2649 4.82591L29.9785 0.929099L29.9685 0.909217L22.6222 2.38046L15.8028 5.3826H15.7929L10.5739 11.3769L5.51402 17.2222L5.49414 17.242L9.79853 21.5663L9.80847 21.5763L18.5167 21.616L18.5664 21.626ZM37.5236 0.929099L46.6195 3.33479L48.0808 12.4008L40.8041 13.9019L33.3385 14.6375L34.8892 9.32912L32.2847 4.86568L37.5236 0.929099ZM9.82835 21.5365L5.56373 17.252L10.6137 11.4266L15.8227 5.44225L22.6421 2.44011L29.9486 0.968862L32.2251 4.85574L27.4932 8.40462L19.4312 10.0051L14.9678 16.1485L14.9578 16.1585L18.467 21.5763L9.82835 21.5365Z" fill="#313948"/>
<path d="M55.9539 24.8168L56.0234 24.7969L55.9539 24.8168Z" fill="#313948"/>
<path d="M36.102 53.4366L36.0622 53.4764L25.3062 49.9672L25.2764 50.007L36.0324 53.5161L28.0897 55.8821L33.7063 64.4312L26.5488 62.9798L19.3318 60.5741L19.9382 54.1523V54.1424L17.0056 47.6311L16.936 47.6013L19.8885 54.1523L19.2721 60.594V60.6139L26.5389 63.0295L33.8156 64.5008L28.1692 55.9119L36.1119 53.536L36.1318 53.546V53.536L36.1418 53.5261V53.5062L36.102 53.4366Z" fill="#313948"/>
<path d="M9.3709 41.7061L7.65113 32.2126L7.62131 32.1529L7.58154 32.1331L9.33113 41.7558L9.3709 41.7061Z" fill="#313948"/>
<path d="M46.6787 51.9355L46.6887 52.1542L46.6787 51.9355Z" fill="#313948"/>
<path d="M63.8666 25.6521L63.4491 19.946V19.9062L55.9736 24.7872L55.9636 24.7972L59.2342 32.6206L59.264 32.6703H59.3137L56.0233 24.817L63.4093 19.9957L63.8169 25.662L66.4512 32.6504L59.264 33.4358H59.254L56.2618 39.4897L56.2718 39.5394L56.2917 39.5494L59.2839 33.4855L66.481 32.7001H66.5208L63.8666 25.6521Z" fill="#313948"/>
<path d="M60.8603 32.8892C60.9952 32.0139 60.395 31.1949 59.5197 31.0601C58.6443 30.9252 57.8254 31.5254 57.6905 32.4007C57.5556 33.276 58.1559 34.0949 59.0312 34.2298C59.9065 34.3647 60.7254 33.7645 60.8603 32.8892Z" fill="#313948"/>
<path d="M12.8206 55.5142C13.1784 55.5341 13.4468 55.8423 13.427 56.1902C13.4071 56.5481 13.0989 56.8165 12.751 56.7966C12.3931 56.7767 12.1247 56.4685 12.1446 56.1206C12.1645 55.7627 12.4627 55.4943 12.8206 55.5142Z" fill="#313948"/>
<path d="M54.7307 57.3021C55.0875 57.2956 55.3715 57.0011 55.365 56.6443C55.3586 56.2875 55.0641 56.0035 54.7073 56.01C54.3505 56.0165 54.0665 56.311 54.073 56.6678C54.0795 57.0245 54.3739 57.3085 54.7307 57.3021Z" fill="#313948"/>
<path d="M40.7243 5.93904C41.0126 5.73028 41.4202 5.79986 41.619 6.09809C41.8278 6.38637 41.7582 6.79395 41.4599 6.99277C41.1717 7.20152 40.7641 7.13194 40.5653 6.83371C40.3664 6.54543 40.436 6.14779 40.7243 5.93904Z" fill="#313948"/>
<path d="M63.8514 20.4475C64.1229 20.2158 64.1551 19.808 63.9234 19.5365C63.6917 19.2651 63.2839 19.2329 63.0125 19.4645C62.741 19.6962 62.7088 20.1041 62.9405 20.3755C63.1722 20.6469 63.58 20.6792 63.8514 20.4475Z" fill="#313948"/>
<path d="M50.6751 46.1103C50.357 45.9513 50.2378 45.5636 50.3968 45.2455C50.5559 44.9274 50.9436 44.8081 51.2617 44.9671C51.5798 45.1262 51.6991 45.5139 51.54 45.832C51.3809 46.1501 50.9933 46.2694 50.6751 46.1103Z" fill="#313948"/>
<path d="M2.25316 39.2508C2.20346 38.9029 2.45198 38.5748 2.79991 38.5251C3.14784 38.4754 3.47588 38.7239 3.52559 39.0719C3.57529 39.4198 3.32677 39.7479 2.97884 39.7976C2.62097 39.8473 2.30286 39.5987 2.25316 39.2508Z" fill="#313948"/>
<path d="M19.4112 61.4986C18.9142 61.5582 18.4569 61.2103 18.3973 60.7132C18.3376 60.2162 18.6856 59.7589 19.1826 59.6993C19.6796 59.6396 20.1369 59.9876 20.1966 60.4846C20.2662 60.9817 19.9182 61.429 19.4112 61.4986Z" fill="#313948"/>
<path d="M11.4684 11.675C11.3193 12.1522 10.8123 12.4305 10.3352 12.2814C9.85803 12.1323 9.57968 11.6253 9.7288 11.1482C9.87791 10.671 10.3849 10.3927 10.8621 10.5418C11.3392 10.6909 11.6076 11.1979 11.4684 11.675Z" fill="#313948"/>
<path d="M19.9085 55.0669C20.4136 55.0669 20.823 54.6574 20.823 54.1524C20.823 53.6473 20.4136 53.2378 19.9085 53.2378C19.4034 53.2378 18.9939 53.6473 18.9939 54.1524C18.9939 54.6574 19.4034 55.0669 19.9085 55.0669Z" fill="#313948"/>
<path d="M68.0199 33.6582C68.5613 32.8119 68.3142 31.6868 67.4678 31.1454C66.6214 30.604 65.4964 30.8511 64.955 31.6975C64.4135 32.5439 64.6607 33.6689 65.5071 34.2103C66.3534 34.7518 67.4785 34.5046 68.0199 33.6582Z" fill="#313948"/>
<path d="M41.9769 13.385C42.2751 14.0312 41.9968 14.7966 41.3507 15.0948C40.7045 15.3931 39.939 15.1147 39.6408 14.4686C39.3426 13.8224 39.6209 13.057 40.2671 12.7587C40.9133 12.4605 41.6787 12.7389 41.9769 13.385Z" fill="#313948"/>
<path d="M7.73447 33.4504C8.43945 33.3825 8.95586 32.7559 8.8879 32.0509C8.81995 31.3459 8.19336 30.8295 7.48839 30.8975C6.78341 30.9654 6.267 31.592 6.33496 32.297C6.40291 33.002 7.0295 33.5184 7.73447 33.4504Z" fill="#D16A16"/>
<path d="M36.719 54.6419C37.3416 54.3044 37.5728 53.5261 37.2353 52.9035C36.8979 52.2809 36.1196 52.0498 35.497 52.3872C34.8743 52.7247 34.6432 53.503 34.9807 54.1256C35.3181 54.7482 36.0964 54.9794 36.719 54.6419Z" fill="#D16A16"/>
<path d="M47.2487 4.01618C47.6374 3.68506 47.684 3.10156 47.3529 2.7129C47.0218 2.32423 46.4383 2.27759 46.0497 2.60871C45.661 2.93983 45.6144 3.52333 45.9455 3.91199C46.2766 4.30065 46.8601 4.3473 47.2487 4.01618Z" fill="#313948"/>
<path d="M56.6497 38.6643C57.1169 38.873 57.3356 39.4198 57.1368 39.887C56.9281 40.3542 56.3813 40.5729 55.9141 40.3741C55.4469 40.1653 55.2282 39.6186 55.427 39.1514C55.6258 38.6742 56.1725 38.4654 56.6497 38.6643Z" fill="#313948"/>
<path d="M54.7908 24.3398C55.0493 23.6737 55.7948 23.3556 56.4609 23.6141C57.1269 23.8725 57.445 24.6181 57.1865 25.2841C56.9281 25.9502 56.1825 26.2683 55.5165 26.0098C54.8604 25.7514 54.5323 25.0058 54.7908 24.3398Z" fill="#313948"/>
<path d="M53.5682 18.5048C53.2501 17.8686 53.5185 17.0932 54.1547 16.785C54.7909 16.4669 55.5663 16.7353 55.8745 17.3715C56.1827 18.0077 55.9242 18.7831 55.288 19.0913C54.6518 19.3995 53.8863 19.141 53.5682 18.5048Z" fill="#313948"/>
<path d="M34.2773 65.6368C34.9263 65.3533 35.2226 64.5973 34.9391 63.9483C34.6556 63.2993 33.8996 63.003 33.2506 63.2865C32.6016 63.57 32.3053 64.3259 32.5888 64.975C32.8723 65.624 33.6282 65.9203 34.2773 65.6368Z" fill="#313948"/>
<path d="M49.2577 13.0041C49.5813 12.3741 49.3328 11.6011 48.7029 11.2776C48.0729 10.9541 47.2999 11.2025 46.9764 11.8325C46.6529 12.4624 46.9013 13.2354 47.5313 13.5589C48.1613 13.8825 48.9342 13.634 49.2577 13.0041Z" fill="#313948"/>
<path d="M27.6181 10.3702C28.6929 10.3061 29.5123 9.38288 29.4482 8.30807C29.3841 7.23326 28.4609 6.4139 27.3861 6.47797C26.3112 6.54205 25.4919 7.4653 25.556 8.54011C25.62 9.61492 26.5433 10.4343 27.6181 10.3702Z" fill="#D16A16"/>
<path d="M36.6189 0.998692C36.5692 0.501649 36.927 0.0543108 37.434 0.00460649C37.941 -0.0450978 38.3784 0.312773 38.4281 0.819757C38.4778 1.3168 38.1199 1.76414 37.6129 1.81384C37.1159 1.86355 36.6686 1.49573 36.6189 0.998692Z" fill="#313948"/>
<path d="M47.5433 52.3627C47.719 51.8891 47.4775 51.3628 47.0039 51.1871C46.5303 51.0114 46.004 51.2529 45.8283 51.7265C45.6527 52.2001 45.8942 52.7264 46.3677 52.9021C46.8413 53.0777 47.3676 52.8362 47.5433 52.3627Z" fill="#313948"/>
<path d="M9.85806 50.9709C9.53995 50.8019 9.4306 50.4142 9.58966 50.0961C9.75865 49.778 10.1463 49.6686 10.4645 49.8277C10.7826 49.9967 10.8919 50.3844 10.7329 50.7025C10.5639 51.0206 10.1762 51.1399 9.85806 50.9709Z" fill="#313948"/>
<path d="M1.90526 32.1198C2.05254 31.7947 1.90841 31.4118 1.58335 31.2646C1.25828 31.1173 0.875371 31.2614 0.728094 31.5865C0.580817 31.9115 0.724943 32.2944 1.05001 32.4417C1.37507 32.589 1.75798 32.4449 1.90526 32.1198Z" fill="#313948"/>
<path d="M64.4765 25.7481C64.526 25.3947 64.2797 25.068 63.9263 25.0185C63.5729 24.9689 63.2463 25.2152 63.1967 25.5686C63.1471 25.922 63.3934 26.2487 63.7468 26.2982C64.1002 26.3478 64.4269 26.1015 64.4765 25.7481Z" fill="#313948"/>
<path d="M29.7197 1.53492C29.3916 1.40569 29.2326 1.02793 29.3618 0.699885C29.491 0.371836 29.8688 0.212783 30.1968 0.342014C30.5249 0.471245 30.6839 0.848997 30.5547 1.17705C30.4255 1.51503 30.0477 1.67409 29.7197 1.53492Z" fill="#313948"/>
<path d="M65.2286 43.8834C64.9005 44.0226 64.5228 43.8735 64.3836 43.5455C64.2444 43.2174 64.3935 42.8397 64.7216 42.7005C65.0496 42.5613 65.4274 42.7104 65.5665 43.0385C65.7057 43.3665 65.5566 43.7443 65.2286 43.8834Z" fill="#313948"/>
<path d="M5.33519 47.263C5.07672 47.5015 4.66915 47.4916 4.43057 47.2331C4.19199 46.9747 4.20193 46.5671 4.46039 46.3285C4.71885 46.0899 5.12643 46.0999 5.36501 46.3583C5.60359 46.6168 5.59365 47.0244 5.33519 47.263Z" fill="#313948"/>
<path d="M2.70051 24.767C2.67068 24.4091 2.93909 24.1009 3.28702 24.0711C3.64489 24.0413 3.95305 24.3097 3.98288 24.6576C4.0127 25.0155 3.7443 25.3237 3.39637 25.3535C3.0385 25.3932 2.73033 25.1248 2.70051 24.767Z" fill="#313948"/>
<path d="M61.2423 13.7328C61.2324 14.0906 60.9342 14.369 60.5862 14.359C60.2284 14.3491 59.95 14.0509 59.96 13.7029C59.9699 13.3451 60.2681 13.0667 60.6161 13.0767C60.9739 13.0767 61.2523 13.3749 61.2423 13.7328Z" fill="#313948"/>
<path d="M13.2974 26.5962C12.9793 26.4471 12.8401 26.0594 12.9992 25.7413C13.1483 25.4232 13.536 25.284 13.8541 25.443C14.1722 25.6021 14.3114 25.9798 14.1523 26.298C14.0032 26.6161 13.6155 26.7552 13.2974 26.5962Z" fill="#313948"/>
<path d="M19.153 21.7057C19.0933 22.0536 18.7653 22.2922 18.4174 22.2326C18.0694 22.1729 17.8308 21.8449 17.8905 21.4969C17.9501 21.149 18.2782 20.9104 18.6261 20.9701C18.974 21.0297 19.2126 21.3478 19.153 21.7057Z" fill="#313948"/>
<path d="M15.2858 5.04479C15.4946 4.75651 15.8922 4.68692 16.1805 4.89568C16.4688 5.10444 16.5384 5.50207 16.3296 5.79036C16.1208 6.07864 15.7232 6.14823 15.4349 5.93947C15.1466 5.73071 15.0771 5.33308 15.2858 5.04479Z" fill="#313948"/>
<path d="M14.7093 16.7351C14.3912 16.576 14.252 16.1983 14.4111 15.8802C14.5701 15.5621 14.9479 15.4229 15.266 15.582C15.5841 15.741 15.7233 16.1188 15.5642 16.4369C15.4151 16.755 15.0373 16.8941 14.7093 16.7351Z" fill="#313948"/>
<path d="M53.0111 51.2693C52.7726 51.0108 52.7825 50.6032 53.041 50.3646C53.2994 50.1261 53.707 50.136 53.9456 50.3945C54.1842 50.6529 54.1742 51.0605 53.9157 51.2991C53.6672 51.5377 53.2597 51.5277 53.0111 51.2693Z" fill="#313948"/>
<path d="M58.1309 44.6488C58.4689 44.5494 58.8268 44.7383 58.9361 45.0762C59.0355 45.4142 58.8467 45.7721 58.5087 45.8815C58.1707 45.9908 57.8128 45.792 57.7035 45.454C57.5941 45.1061 57.7929 44.7482 58.1309 44.6488Z" fill="#313948"/>
<path d="M42.1062 62.8699C42.3647 63.1085 42.3846 63.5161 42.146 63.7745C41.9074 64.033 41.4998 64.0529 41.2414 63.8143C40.9829 63.5757 40.963 63.1681 41.2016 62.9097C41.4402 62.6413 41.8478 62.6214 42.1062 62.8699Z" fill="#313948"/>
<path d="M23.3677 16.1581C23.0993 16.3967 22.6917 16.3768 22.463 16.1084C22.2245 15.84 22.2443 15.4324 22.5127 15.2038C22.7811 14.9652 23.1887 14.9851 23.4174 15.2535C23.6559 15.5219 23.6361 15.9294 23.3677 16.1581Z" fill="#313948"/>
<path d="M60.9937 50.2156C61.272 50.4343 61.3118 50.8418 61.0931 51.1202C60.8744 51.3985 60.4668 51.4383 60.1885 51.2196C59.9101 51.0009 59.8704 50.5933 60.0891 50.315C60.3078 50.0366 60.7153 49.9869 60.9937 50.2156Z" fill="#313948"/>
<path d="M10.2456 21.079C10.514 21.3176 10.5438 21.7152 10.3052 21.9836C10.0667 22.252 9.66902 22.2819 9.40062 22.0433C9.13222 21.8047 9.10239 21.4071 9.34097 21.1387C9.57955 20.8703 9.97719 20.8404 10.2456 21.079Z" fill="#313948"/>
<path d="M19.5488 10.6635C19.9016 10.6099 20.1442 10.2805 20.0907 9.92767C20.0372 9.57484 19.7077 9.33221 19.3549 9.38574C19.0021 9.43927 18.7595 9.76869 18.813 10.1215C18.8665 10.4743 19.1959 10.717 19.5488 10.6635Z" fill="#313948"/>
<path d="M55.0493 10.0248C55.2878 9.76635 55.6954 9.74647 55.9539 9.98505C56.2123 10.2236 56.2322 10.6312 55.9936 10.8897C55.7551 11.1481 55.3475 11.168 55.089 10.9294C54.8306 10.7008 54.8107 10.2932 55.0493 10.0248Z" fill="#313948"/>
<path d="M34.8098 59.54C34.621 59.2418 34.7204 58.8442 35.0186 58.6553C35.3168 58.4664 35.7145 58.5658 35.9033 58.8641C36.0922 59.1623 35.9928 59.5599 35.6946 59.7488C35.3964 59.9377 34.9987 59.8383 34.8098 59.54Z" fill="#313948"/>
<path d="M25.6641 50.2454C25.5249 50.4542 25.2366 50.5039 25.0278 50.3647C24.8191 50.2256 24.7694 49.9373 24.9085 49.7285C25.0477 49.5198 25.336 49.4701 25.5448 49.6092C25.7535 49.7583 25.8032 50.0367 25.6641 50.2454Z" fill="#313948"/>
<path d="M23.0694 2.28065C23.139 2.51923 23.0098 2.77769 22.7712 2.84728C22.5326 2.91687 22.2742 2.78764 22.2046 2.54906C22.135 2.31047 22.2642 2.05201 22.5028 1.98243C22.7414 1.9029 22.9899 2.04207 23.0694 2.28065Z" fill="#313948"/>
<path d="M17.2241 47.2333C17.4328 47.3725 17.4925 47.6508 17.3533 47.8596C17.2141 48.0683 16.9358 48.128 16.727 47.9888C16.5183 47.8496 16.4586 47.5713 16.5978 47.3625C16.727 47.1538 17.0153 47.0941 17.2241 47.2333Z" fill="#313948"/>
<path d="M42.7025 56.5974C42.9212 56.7167 43.0007 56.995 42.8814 57.2137C42.7622 57.4324 42.4838 57.512 42.2651 57.3927C42.0464 57.2734 41.9669 56.995 42.0862 56.7763C42.2055 56.5576 42.4838 56.4781 42.7025 56.5974Z" fill="#313948"/>
<path d="M35.0879 8.93133C35.3066 9.05062 35.3961 9.32896 35.2768 9.54766C35.1575 9.76636 34.8792 9.85582 34.6605 9.73653C34.4418 9.61724 34.3523 9.3389 34.4716 9.1202C34.5909 8.89156 34.8692 8.81203 35.0879 8.93133Z" fill="#313948"/>
<path d="M53.1803 5.52124C53.3792 5.68029 53.409 5.95864 53.2599 6.15745C53.1008 6.35627 52.8225 6.38609 52.6236 6.23698C52.4248 6.07793 52.395 5.79958 52.5441 5.60077C52.7032 5.40195 52.9915 5.36219 53.1803 5.52124Z" fill="#313948"/>
<path d="M30.3959 15.254C30.3263 15.0154 30.4655 14.757 30.704 14.6874C30.9426 14.6178 31.2011 14.757 31.2707 14.9955C31.3402 15.2341 31.2011 15.4926 30.9625 15.5622C30.714 15.6318 30.4655 15.4926 30.3959 15.254Z" fill="#313948"/>
<path d="M62.8328 39.4102C63.0853 39.4102 63.29 39.2054 63.29 38.9529C63.29 38.7003 63.0853 38.4956 62.8328 38.4956C62.5802 38.4956 62.3755 38.7003 62.3755 38.9529C62.3755 39.2054 62.5802 39.4102 62.8328 39.4102Z" fill="#313948"/>
<path d="M5.76232 17.6496C5.54362 17.7788 5.26527 17.6993 5.14598 17.4806C5.01675 17.2619 5.09628 16.9835 5.31498 16.8642C5.53368 16.735 5.81202 16.8145 5.93131 17.0332C6.0506 17.242 5.97107 17.5203 5.76232 17.6496Z" fill="#313948"/>
<path d="M49.0651 60.3554C49.0949 60.6039 48.916 60.8325 48.6575 60.8524C48.409 60.8822 48.1804 60.7033 48.1605 60.4448C48.1306 60.1963 48.3096 59.9677 48.568 59.9478C48.8166 59.9279 49.0452 60.1069 49.0651 60.3554Z" fill="#313948"/>
<path d="M10.2451 42.2585C10.5359 41.7671 10.3734 41.133 9.88198 40.8422C9.3906 40.5513 8.75647 40.7139 8.46561 41.2052C8.17475 41.6966 8.33731 42.3308 8.82869 42.6216C9.32008 42.9125 9.95421 42.7499 10.2451 42.2585Z" fill="#313948"/>
<path d="M27.5726 63.1482C27.493 63.7148 26.9662 64.1025 26.3995 64.023C25.8329 63.9435 25.4452 63.4166 25.5247 62.85C25.6043 62.2833 26.1311 61.8957 26.6978 61.9752C27.2644 62.0646 27.6521 62.5816 27.5726 63.1482Z" fill="#313948"/>
<path d="M28.8452 55.1466C29.2627 55.5343 29.2826 56.1903 28.8849 56.6079C28.4972 57.0254 27.8411 57.0453 27.4236 56.6476C27.0061 56.2599 26.9862 55.6038 27.3839 55.1863C27.7716 54.7688 28.4277 54.7489 28.8452 55.1466Z" fill="#313948"/>
</g>
</svg>
