<svg width="51" height="51" viewBox="0 0 51 51" fill="none" xmlns="http://www.w3.org/2000/svg">
<g clip-path="url(#clip0)">
<path d="M21.6403 36.9969C21.455 36.8107 21.198 36.7051 20.935 36.7051C20.6731 36.7051 20.4171 36.8107 20.2308 36.9969C20.0455 37.1822 19.9399 37.4382 19.9399 37.7012C19.9399 37.9631 20.0455 38.2201 20.2308 38.4053C20.4171 38.5906 20.6731 38.6973 20.935 38.6973C21.198 38.6973 21.454 38.5907 21.6403 38.4053C21.8255 38.2201 21.9321 37.9631 21.9321 37.7012C21.9321 37.4381 21.8255 37.1822 21.6403 36.9969Z" fill="#355F25"/>
<path d="M43.7258 17.1604H40.2912C41.5286 15.926 42.2955 14.22 42.2955 12.3382V4.4117V0.996094C42.2955 0.445951 41.8496 0 41.2994 0H33.5498C30.8573 0 28.6668 2.19051 28.6668 4.88305V8.15711C28.6668 8.16409 28.6677 8.17076 28.6678 8.17763C28.6677 8.18451 28.6668 8.19128 28.6668 8.19815V12.3382C28.6668 14.22 29.4337 15.9259 30.6711 17.1604H19.9272C21.1646 15.926 21.9315 14.22 21.9315 12.3382V4.4117V0.996094C21.9315 0.445951 21.4855 0 20.9354 0H13.1858C10.4932 0 8.30274 2.19051 8.30274 4.88305V8.15711C8.30274 8.16409 8.30364 8.17076 8.30374 8.17763C8.30364 8.18451 8.30274 8.19128 8.30274 8.19815V12.3382C8.30274 14.22 9.06963 15.9259 10.3071 17.1604H8.0589C3.61522 17.1604 0 20.7756 0 25.2194V37.7009C0 38.2509 0.445951 38.697 0.996094 38.697H16.7344C17.2845 38.697 17.7305 38.2509 17.7305 37.7009C17.7305 37.1508 17.2845 36.7048 16.7344 36.7048H6.49573V30.2739C6.49573 29.7238 6.04978 29.2778 5.49963 29.2778C4.94949 29.2778 4.50354 29.7238 4.50354 30.2739V36.7048H1.99219V25.2194C1.99219 21.8742 4.71371 19.1526 8.059 19.1526H10.8541L14.121 24.0399V29.9768C14.121 30.5269 14.567 30.9729 15.1171 30.9729C15.6673 30.9729 16.1132 30.5269 16.1132 29.9768V24.0663L19.7515 19.1526H23.3619C26.2744 19.1526 28.6439 21.5221 28.6439 24.4346V28.521C28.6439 29.071 29.0898 29.5171 29.64 29.5171C30.1901 29.5171 30.6361 29.071 30.6361 28.521V24.4346C30.6361 22.3558 29.7582 20.4794 28.3554 19.1526H31.0173L34.4522 24.2912C34.6323 24.5608 34.9323 24.7257 35.2563 24.7335C35.2644 24.7337 35.2724 24.7338 35.2803 24.7338C35.5955 24.7338 35.8927 24.5845 36.0808 24.3305L39.9147 19.1527H43.7258C46.6383 19.1527 49.0078 21.5222 49.0078 24.4347V28.5211C49.0078 29.0711 49.4538 29.5172 50.0039 29.5172C50.5541 29.5172 51 29.0711 51 28.5211V24.4347C51 20.4236 47.7368 17.1604 43.7258 17.1604ZM10.295 4.88305C10.295 3.289 11.5918 1.99219 13.1859 1.99219H19.9394V4.4117C19.9394 5.92766 18.7061 7.16102 17.1901 7.16102H10.295V4.88305ZM15.1588 22.0076L13.2503 19.1526H17.2727L15.1588 22.0076ZM15.1172 17.1605C12.4582 17.1605 10.295 14.9973 10.295 12.3383V9.15321H17.1901C18.2145 9.15321 19.1632 8.82559 19.9394 8.27107V12.3383C19.9394 14.9973 17.7762 17.1605 15.1172 17.1605ZM30.6589 4.88305C30.659 3.289 31.9559 1.99219 33.5498 1.99219H40.3033V4.4117C40.3033 5.92766 39.0701 7.16102 37.554 7.16102H30.6589V4.88305ZM35.3219 22.0076L33.4135 19.1526H37.4358L35.3219 22.0076ZM35.4813 17.1605C32.8223 17.1605 30.659 14.9973 30.659 12.3383V9.15321H37.5541C38.5785 9.15321 39.5273 8.82559 40.3034 8.27107V12.3383C40.3034 14.9973 38.1402 17.1605 35.4813 17.1605Z" fill="#355F25"/>
<path d="M47.3549 31.1274H42.7218V29.2118C42.7218 27.9019 41.656 26.8359 40.3459 26.8359H35.1581C33.8481 26.8359 32.7822 27.9018 32.7822 29.2118V31.1274H28.1491C26.1392 31.1274 24.5039 32.7626 24.5039 34.7726V47.3557C24.504 49.3657 26.1393 51.0009 28.1492 51.0009H47.355C49.3648 51.0009 51.0001 49.3657 51.0001 47.3557V34.7726C51.0001 32.7626 49.3648 31.1274 47.3549 31.1274ZM35.1582 28.8281H40.346C40.5576 28.8281 40.7297 29.0002 40.7297 29.2118V31.1274H34.7746V29.2118H34.7745C34.7745 29.0002 34.9467 28.8281 35.1582 28.8281ZM49.0079 47.3557C49.0079 48.2672 48.2664 49.0087 47.3549 49.0087H28.1492C27.2378 49.0087 26.4962 48.2672 26.4962 47.3557V40.1562H35.1003V40.3192C35.1003 41.7813 36.2898 42.9709 37.7521 42.9709C39.2143 42.9709 40.4039 41.7813 40.4039 40.3192V40.1562H49.0079V47.3557ZM37.0924 40.3192V38.9972H38.4117V40.3192C38.4117 40.6827 38.1158 40.9787 37.7521 40.9787C37.3883 40.9787 37.0924 40.6827 37.0924 40.3192ZM49.0079 38.164H40.4039V38.0011C40.4039 37.4511 39.9579 37.0051 39.4078 37.0051H36.0964C35.5463 37.0051 35.1004 37.4511 35.1004 38.0011V38.164H26.4962V34.7726C26.4962 33.8612 27.2377 33.1196 28.1492 33.1196H33.7784H41.7257H47.3549C48.2663 33.1196 49.0079 33.8611 49.0079 34.7726V38.164Z" fill="#355F25"/>
</g>
<defs>
<clipPath id="clip0">
<rect width="51" height="51" fill="white"/>
</clipPath>
</defs>
</svg>
