<svg width="386" height="391" viewBox="0 0 386 391" fill="none" xmlns="http://www.w3.org/2000/svg">
<path d="M383.663 213.149L373.341 153.085C374.899 153.085 376.068 151.72 376.068 150.16C376.068 148.6 374.704 147.234 373.146 147.234C372.562 147.234 372.173 147.429 371.783 147.624L353.671 98.4813L332.248 71.5696C332.832 70.9845 333.417 70.2045 333.417 69.2294C333.417 67.6693 332.053 66.3042 330.495 66.3042C329.522 66.3042 328.743 66.6943 328.353 67.2793L300.698 43.4878C300.893 43.0978 301.088 42.7077 301.088 42.1227C301.088 40.5626 299.725 39.1975 298.167 39.1975C297.193 39.1975 296.219 39.7825 295.829 40.5626L197.09 3.31521C197.09 3.1202 197.09 3.1202 197.09 2.92519C197.09 1.36509 195.727 0 194.169 0C193 0 192.026 0.780049 191.442 1.75511L138.664 7.02045C138.664 7.02045 138.664 7.02045 138.469 7.02045L105.166 28.8618C104.582 28.2768 103.803 27.8868 103.024 27.8868C101.466 27.8868 100.103 29.2519 100.103 30.812C100.103 31.007 100.103 31.397 100.298 31.592L56.673 55.5785C56.0888 55.1885 55.5045 54.7985 54.7255 54.7985C53.1675 54.7985 51.8042 56.1636 51.8042 57.7237C51.8042 58.3087 51.999 58.6988 52.1937 59.2838L26.4864 83.4653C26.0969 83.2703 25.5126 83.0753 24.9284 83.0753C23.3703 83.0753 22.0071 84.4404 22.0071 86.0005C22.0071 87.3656 22.9808 88.5357 24.3441 88.9257L11.2957 150.355L2.72653 198.718C1.16851 198.718 0 200.083 0 201.643C0 203.203 1.16851 204.373 2.53178 204.568L8.95862 250.981L30.7709 301.099C29.9919 301.684 29.6024 302.464 29.6024 303.439C29.6024 304.999 30.9657 306.365 32.5237 306.365C33.108 306.365 33.4975 306.17 33.887 305.975L67.3845 342.442C66.9949 342.832 66.8002 343.417 66.8002 344.197C66.8002 345.757 68.1635 347.122 69.7215 347.122C70.3057 347.122 70.89 346.927 71.4743 346.537L104.193 367.598L141.196 386.32C141.196 386.32 141.196 386.32 141.391 386.32L158.723 387.88V388.075C158.723 389.635 160.087 391 161.645 391C163.203 391 164.566 389.635 164.566 388.075C164.566 387.88 164.566 387.88 164.566 387.685L217.539 382.224L246.557 374.814C246.947 375.984 247.92 376.959 249.284 376.959C250.842 376.959 252.205 375.594 252.205 374.034C252.205 373.449 252.01 372.864 251.815 372.474L256.879 369.159H288.039C288.234 370.524 289.403 371.499 290.961 371.499C292.519 371.499 293.882 370.134 293.882 368.574C293.882 367.793 293.492 367.013 293.103 366.623L316.668 332.106L341.791 303.634L376.847 272.432C376.847 272.432 376.847 272.432 376.847 272.237L383.663 218.609C385.026 218.414 386 217.244 386 215.684C385.805 214.709 384.831 213.539 383.663 213.149ZM161.45 385.15C160.671 385.15 159.892 385.54 159.308 386.125L124.058 364.673C124.058 364.478 124.057 364.478 124.252 364.283L160.671 371.694L184.431 376.569L163.787 386.515C163.203 385.735 162.424 385.15 161.45 385.15ZM69.7215 341.077C69.5267 341.077 69.332 341.077 69.1372 341.077L60.9576 320.796L57.0625 311.24C57.2573 311.045 57.6468 310.85 57.8416 310.46L95.0393 337.372C94.6498 338.152 94.4551 339.127 94.4551 339.907C94.4551 340.492 94.6498 341.272 94.8446 341.857L72.6428 344.587C72.6428 344.392 72.8375 344.002 72.8375 343.612C72.6428 342.442 71.4743 341.077 69.7215 341.077ZM19.0858 257.806L3.50555 204.373C4.28456 204.178 4.86881 203.593 5.25832 203.008L13.2432 205.348C13.4379 206.518 14.4117 207.298 15.5802 207.493L19.0858 257.806ZM54.9203 60.8439C56.4783 60.8439 57.6468 59.6738 57.8416 58.3087L73.227 69.4244L49.2724 111.352C48.8829 111.157 48.4934 111.157 48.1039 111.157C47.5197 111.157 46.9354 111.352 46.5459 111.547L40.7033 108.622L34.8607 105.697C34.8607 105.502 35.0555 105.112 35.0555 104.722C35.0555 103.747 34.666 102.967 33.887 102.382L38.3663 93.216L54.336 60.4539C54.336 60.6489 54.5308 60.8439 54.9203 60.8439ZM224.16 29.2519V29.4469C224.16 29.8369 224.16 30.2269 224.355 30.617L211.696 36.4673L198.453 42.5127C198.064 41.3426 196.895 40.5626 195.727 40.5626C195.142 40.5626 194.558 40.7576 193.974 41.1476L158.139 9.55561C158.139 9.55561 158.139 9.55561 158.139 9.3606L224.16 29.2519ZM330.301 71.9596C330.495 71.9596 330.69 71.9596 330.885 71.9596L347.049 105.892C346.855 105.892 346.855 106.087 346.66 106.087L314.72 79.1751C314.915 78.785 315.11 78.395 315.11 77.81C315.11 77.0299 314.915 76.4449 314.526 76.0549L321.732 72.9347L327.769 70.3995C328.353 71.3746 329.327 71.9596 330.301 71.9596ZM362.24 163.225V219.974C361.656 220.169 361.072 220.364 360.682 220.949L340.817 197.743C342.375 195.988 343.349 193.647 343.349 191.112C343.349 188.577 342.375 186.237 340.817 184.482L360.682 162.64C361.266 162.835 361.656 163.03 362.24 163.225ZM363.214 276.333L362.24 275.748L338.091 259.367C338.675 258.392 339.065 257.221 339.065 256.051C339.065 254.296 338.286 252.736 337.117 251.761L361.072 225.239C361.461 225.434 361.656 225.629 362.045 225.629L363.603 254.491L364.772 274.968C364.188 275.163 363.603 275.748 363.214 276.333ZM325.237 307.34C324.263 307.34 323.29 308.12 322.9 308.9L288.624 282.768C289.013 282.183 289.403 281.598 289.403 280.818C289.403 280.623 289.403 280.623 289.403 280.428L302.062 273.407L328.353 258.782C329.132 260.147 330.301 261.122 331.859 261.512L325.237 307.34ZM124.252 363.503C124.252 362.918 124.058 362.333 123.863 361.943L146.844 345.757L184.236 375.594L178.588 374.424L124.252 363.503ZM55.894 306.17L51.6095 261.707C51.999 261.512 52.5832 261.317 52.778 260.927L67.9687 276.918L93.8708 304.024C93.2866 304.414 93.0918 304.999 92.8971 305.78L58.2311 308.12C58.0363 307.145 57.0626 306.17 55.894 306.17ZM18.3068 202.618L34.8607 176.486C35.8345 177.071 36.8083 177.461 37.9768 177.461H38.1715L50.2462 256.051C50.0514 256.051 49.8567 256.051 49.662 256.246L17.333 207.493C18.3068 207.103 19.0858 205.933 19.0858 204.763C19.2805 203.788 18.891 203.008 18.3068 202.618ZM176.835 45.0479L192.805 44.2678C193 44.6579 193.195 45.0479 193.389 45.4379L164.956 63.5741C163.203 60.8439 160.087 58.8938 156.581 58.8938C153.465 58.8938 150.544 60.4539 148.791 62.794L142.17 57.5287L130.484 48.5581C130.679 48.1681 130.874 47.7781 130.874 47.388L176.835 45.0479ZM227.082 32.3721C227.666 32.3721 228.445 32.1771 228.834 31.787L233.898 35.8823L258.242 55.9686C258.047 56.3586 257.658 56.7486 257.658 57.1386L201.569 44.4628L198.648 43.8778C198.648 43.6828 198.648 43.6828 198.648 43.4878C198.648 43.2928 198.648 43.2928 198.648 43.0978L208.191 38.8075L224.745 31.202C225.134 31.982 226.108 32.3721 227.082 32.3721ZM360.682 224.849L336.728 251.371C335.754 250.591 334.585 250.201 333.222 250.201L334.585 200.863C336.728 200.668 338.87 199.498 340.233 198.133L360.098 221.534C359.903 221.924 359.708 222.509 359.708 222.899C359.903 223.484 360.293 224.264 360.682 224.849ZM286.481 277.893C285.118 277.893 283.95 278.868 283.56 280.233L254.931 269.702C255.126 269.312 255.126 268.727 255.126 268.337C255.126 266.972 254.737 265.607 253.763 264.632L295.44 232.26C295.829 232.65 296.219 233.04 296.608 233.235L286.871 277.893C286.871 277.893 286.676 277.893 286.481 277.893ZM149.96 325.671L144.507 326.061C144.507 325.866 144.507 325.671 144.507 325.476L162.424 316.895L195.727 301.099L192.61 305.975L182.873 321.576C182.483 321.381 182.094 321.381 181.704 321.381C180.341 321.381 178.978 322.356 178.783 323.916L149.96 325.671ZM53.3623 257.611L87.0545 240.06C87.444 240.84 88.0282 241.23 88.8073 241.425L95.4289 303.439C95.0394 303.439 94.6498 303.634 94.2603 303.829L55.5045 263.267L52.9727 260.537C53.1675 260.147 53.3623 259.562 53.3623 258.977C53.7518 258.392 53.557 258.001 53.3623 257.611ZM43.8194 171.611C43.8194 170.051 43.2351 168.686 42.2613 167.711L71.669 141.384C72.2533 141.969 73.0323 142.359 73.8113 142.359C74.0061 142.359 74.006 142.359 74.2008 142.359L88.223 236.16C88.0282 236.355 87.8335 236.355 87.6387 236.55L69.5267 212.954L41.4823 176.291C43.0404 175.121 43.8194 173.561 43.8194 171.611ZM193.779 45.8279C194.363 46.218 194.948 46.413 195.532 46.413C196.311 46.413 197.09 46.0229 197.479 45.6329L222.992 72.7396C222.018 73.5197 221.239 74.6898 221.044 76.0549L166.319 70.2045C166.319 69.8145 166.319 69.4244 166.319 69.0344C166.319 67.2793 165.929 65.7192 165.15 64.1591L193.779 45.8279ZM260.384 60.8439C260.969 60.8439 261.748 60.6489 262.137 60.2589L282.392 96.7262C281.418 97.3112 280.833 98.2863 280.249 99.2613L272.459 95.9461L232.535 78.785C232.73 78.2 232.73 77.81 232.73 77.2249C232.73 76.4449 232.535 75.6648 232.145 74.8848L251.426 64.3541L258.632 60.4539C259.216 60.6489 259.8 60.8439 260.384 60.8439ZM330.495 132.413L333.611 180.972H333.417C330.495 180.972 327.769 182.337 326.016 184.287L302.451 167.711C302.841 167.321 303.035 166.736 303.035 165.956C303.035 164.981 302.646 164.2 302.062 163.81L309.852 154.645L329.327 131.633C329.522 132.023 330.106 132.218 330.495 132.413ZM235.067 301.489C234.482 301.099 233.898 300.709 233.119 300.709C231.756 300.709 230.782 301.489 230.393 302.854L197.285 300.124L228.25 281.013L244.22 271.262C244.804 272.237 245.583 273.017 246.557 273.407L235.067 301.489ZM285.702 107.257C285.897 107.257 286.287 107.257 286.481 107.257L297.193 157.18L298.556 163.615C297.972 163.81 297.582 164.2 297.387 164.786L286.676 158.935L251.036 139.629C251.231 139.239 251.426 138.849 251.426 138.264C251.426 137.874 251.426 137.484 251.231 137.094L282.002 105.892C283.17 106.672 284.339 107.257 285.702 107.257ZM253.373 207.103L249.673 140.994C250.257 140.799 250.647 140.604 250.842 140.214L297.193 165.371C297.193 165.566 296.998 165.956 296.998 166.151C296.998 166.736 297.193 167.321 297.387 167.711L254.542 207.493C254.347 207.298 253.958 207.103 253.373 207.103ZM249.284 262.487C246.946 262.487 244.999 263.852 244.22 265.802L204.101 251.956C204.101 251.761 204.101 251.761 204.101 251.566C204.101 250.786 203.711 250.201 203.322 249.616L213.839 241.23L251.036 211.393C251.426 211.979 252.01 212.369 252.594 212.564L249.284 262.487ZM147.038 279.843C146.844 279.843 146.649 279.843 146.454 279.843L139.832 222.509C142.754 221.924 145.091 220.169 146.649 217.829L174.693 235.575L198.453 250.396C198.258 250.786 198.064 251.371 198.064 251.761C198.064 251.956 198.064 252.346 198.258 252.541L151.518 281.793C150.349 280.623 148.791 279.843 147.038 279.843ZM222.992 81.3202C223.966 82.2953 225.524 82.8803 226.887 82.8803C227.666 82.8803 228.445 82.6853 229.224 82.2953L247.726 135.339C246.947 135.534 246.362 136.119 246.167 136.704L192.805 109.792C193 109.402 193.195 108.817 193.195 108.427C193.195 107.842 193 107.452 192.805 107.062L222.992 81.3202ZM196.116 171.416H195.921L193.584 143.334L190.663 111.547C191.442 111.352 192.026 111.157 192.416 110.572L245.778 137.484C245.778 137.679 245.583 137.874 245.583 138.264C245.583 139.239 245.973 140.019 246.557 140.409L211.891 168.881L203.906 175.511C202.348 172.976 199.427 171.416 196.116 171.416ZM190.079 111.547L195.142 171.416C192.61 171.611 190.273 172.781 188.715 174.731L142.364 132.608L132.627 123.638C133.6 122.663 134.185 121.298 134.185 119.738C134.185 119.543 134.185 119.543 134.185 119.348L187.547 109.792C187.936 110.767 188.91 111.547 190.079 111.547ZM132.237 124.223L188.326 175.316C186.963 177.071 186.184 179.216 186.184 181.557C186.184 183.312 186.768 185.067 187.547 186.627L146.649 207.688C144.896 204.763 141.78 202.813 138.08 202.813C137.885 202.813 137.69 202.813 137.69 202.813L129.316 125.588C130.29 125.393 131.458 124.808 132.237 124.223ZM198.843 249.811L168.072 230.505L147.038 217.244C147.817 215.879 148.207 214.319 148.207 212.759C148.207 211.198 147.817 209.638 147.038 208.273L187.936 187.212C189.689 189.942 192.805 191.697 196.116 191.697C196.311 191.697 196.506 191.697 196.7 191.697L200.206 249.226C199.816 249.031 199.232 249.421 198.843 249.811ZM197.285 191.307C200.401 190.917 203.127 189.162 204.685 186.432L212.086 189.942L250.842 208.663C250.647 209.053 250.452 209.443 250.452 209.833C250.452 210.223 250.452 210.613 250.647 211.003L211.307 242.4L202.543 249.421C202.153 249.031 201.569 248.836 200.79 248.836C200.79 248.836 200.79 248.836 200.595 248.836L197.285 191.307ZM251.036 208.273L204.88 186.042C205.659 184.677 206.048 183.117 206.048 181.557C206.048 179.606 205.464 177.656 204.49 176.096L223.187 160.885L247.336 140.799C247.725 140.994 248.115 141.189 248.699 141.189C248.894 141.189 248.894 141.189 249.089 141.189L252.594 207.298C252.01 207.298 251.426 207.688 251.036 208.273ZM281.613 105.502L264.28 123.053L251.036 136.509C250.452 135.729 249.673 135.339 248.699 135.339C248.505 135.339 248.505 135.339 248.31 135.339L229.808 82.2953C230.977 81.7102 231.756 80.5402 232.34 79.3701L280.249 99.8464C280.054 100.431 280.054 100.821 280.054 101.406C279.86 102.967 280.639 104.527 281.613 105.502ZM222.408 80.9302L192.416 106.867C191.831 106.282 191.052 105.892 190.273 105.892C189.494 105.892 188.91 106.087 188.326 106.672L163.008 76.6399C164.761 75.0798 165.929 73.1297 166.319 70.7895L221.044 76.6399C221.044 76.8349 221.044 77.0299 221.044 77.2249C221.044 78.59 221.629 79.9551 222.408 80.9302ZM156.581 78.785C158.918 78.785 160.866 78.005 162.619 76.8349L187.936 106.867C187.547 107.452 187.352 108.037 187.352 108.622C187.352 108.817 187.352 109.012 187.352 109.207L133.99 118.763C133.795 117.202 132.821 115.837 131.458 114.862L152.102 77.81C153.465 78.395 155.023 78.785 156.581 78.785ZM128.342 125.588H128.537L136.911 202.618C135.158 202.813 133.406 203.593 132.042 204.568L102.829 171.416L76.3431 140.994C76.5378 140.604 76.7326 140.019 76.7326 139.434C76.7326 139.044 76.7326 138.654 76.5378 138.264L91.339 133.193L123.084 122.273C124.058 124.223 126.005 125.588 128.342 125.588ZM75.9536 141.579L131.653 205.153C129.511 206.908 128.147 209.638 128.147 212.759C128.147 214.319 128.537 215.684 129.121 216.854L91.9233 236.745C91.339 236.16 90.56 235.77 89.781 235.77C89.3915 235.77 89.1968 235.77 89.002 235.965L74.9798 142.359C75.3693 142.164 75.5641 141.774 75.9536 141.579ZM92.3128 237.33L122.889 220.754L129.316 217.244C131.069 220.364 134.379 222.509 138.08 222.509C138.469 222.509 138.859 222.509 139.248 222.509L141.196 239.865L145.87 279.843C144.701 280.038 143.533 280.623 142.754 281.598L91.7285 240.645C92.118 240.06 92.5076 239.475 92.5076 238.695C92.7023 238.11 92.5076 237.72 92.3128 237.33ZM151.907 282.378L198.453 253.126C198.843 253.711 199.427 254.296 200.206 254.491L200.011 257.806L196.311 299.929L152.881 286.668C152.881 286.278 153.076 285.888 153.076 285.498C152.881 284.328 152.491 283.353 151.907 282.378ZM199.037 273.407L200.595 254.686H200.79C202.153 254.686 203.127 253.906 203.517 252.736L233.898 263.072L243.636 266.387C243.441 266.972 243.246 267.557 243.246 268.337C243.246 269.117 243.441 270.092 243.83 270.677L218.318 286.473L196.506 299.734L199.037 273.407ZM249.868 262.487L251.426 238.305L253.179 212.954H253.373C254.542 212.954 255.516 212.174 256.1 211.198L265.253 215.294L295.635 229.335C295.44 229.725 295.245 230.115 295.245 230.7C295.245 231.09 295.245 231.48 295.44 231.675L253.568 264.242C252.594 263.267 251.231 262.682 249.868 262.487ZM256.1 210.613C256.1 210.418 256.1 210.223 256.1 210.028C256.1 209.248 255.71 208.468 255.126 207.883L297.972 168.101C298.361 168.491 298.751 168.686 299.335 168.881L297.777 227.775C296.998 227.97 296.414 228.36 296.024 228.75L256.1 210.613ZM298.361 227.775L299.919 169.076H300.114C300.893 169.076 301.477 168.686 302.062 168.296L325.627 184.872C324.263 186.627 323.484 188.577 323.484 190.917C323.484 194.037 324.848 196.768 326.99 198.523L299.335 227.97C299.14 227.775 298.751 227.775 298.361 227.775ZM328.743 131.243L326.6 133.779L301.477 163.42C301.088 163.225 300.698 163.03 300.114 163.03C299.919 163.03 299.53 163.03 299.335 163.225L287.066 107.062C288.234 106.672 289.403 106.087 290.182 105.112L328.353 128.513C328.158 128.903 328.158 129.098 328.158 129.488C328.158 130.268 328.353 130.853 328.743 131.243ZM258.242 60.0638L231.951 74.2998C230.977 72.5446 229.029 71.3746 226.887 71.3746C225.718 71.3746 224.55 71.7646 223.771 72.3496L206.827 54.2135L198.258 45.0479C198.453 44.8529 198.453 44.6579 198.453 44.4628L257.463 57.9187C257.463 58.6988 257.853 59.4788 258.242 60.0638ZM151.712 77.4199L131.069 114.472C130.29 114.082 129.316 113.887 128.342 113.887C126.784 113.887 125.421 114.472 124.252 115.447L98.1554 88.7307C98.3501 88.3406 98.3501 88.1456 98.3501 87.7556C98.3501 87.3656 98.3501 87.1706 98.1554 86.7805L122.305 79.7601L147.233 72.5446C148.012 74.4948 149.57 76.2499 151.712 77.4199ZM95.4289 90.6808C96.4026 90.6808 97.3764 90.0958 97.7659 89.3157L123.668 116.032C122.889 117.007 122.305 118.373 122.305 119.738C122.305 120.323 122.499 121.103 122.694 121.688L76.1483 137.874C75.9536 137.484 75.5641 137.289 75.1746 137.094L78.2906 129.683L94.8446 90.6808C95.2341 90.6808 95.2341 90.6808 95.4289 90.6808ZM89.5863 241.62C90.3653 241.62 90.9495 241.425 91.339 241.035L142.364 281.988C141.585 282.963 141.196 284.133 141.196 285.498C141.196 286.083 141.196 286.473 141.391 287.058L98.3501 304.609C97.9606 303.829 97.1816 303.439 96.2079 303.244L89.5863 241.62ZM98.5449 305.194L141.585 287.643C142.17 289.398 143.728 290.764 145.675 291.349L141.585 323.331C140.417 323.331 139.248 324.111 138.859 325.281L98.7396 306.95C98.7396 306.755 98.7396 306.56 98.7396 306.365C98.7396 305.975 98.7396 305.585 98.5449 305.194ZM146.259 291.349C146.454 291.349 146.844 291.349 147.038 291.349C149.57 291.349 151.907 289.594 152.686 287.253L168.656 292.129L195.532 300.319L146.649 323.721L144.117 324.891C143.728 324.111 142.949 323.331 141.975 323.331L146.259 291.349ZM183.262 321.771L196.506 300.709L230.198 303.634V303.829C230.198 304.219 230.198 304.609 230.393 304.804L212.475 311.63L183.847 322.551C183.847 322.161 183.652 321.966 183.262 321.771ZM235.456 302.074L244.025 281.013L246.946 273.797C247.725 273.992 248.31 274.188 249.089 274.188C251.621 274.188 253.763 272.627 254.542 270.287L272.654 276.918L283.171 280.818C283.171 281.403 283.365 281.988 283.56 282.378L263.5 290.959L235.846 302.659C235.846 302.464 235.651 302.269 235.456 302.074ZM287.65 278.088L297.387 233.43C297.582 233.43 297.777 233.43 297.972 233.43C298.945 233.43 299.725 233.04 300.309 232.26L311.799 240.84L328.158 252.931C327.574 253.711 327.379 254.881 327.379 255.856C327.379 256.636 327.574 257.416 327.964 258.197L309.657 268.337L289.208 279.648C289.013 279.063 288.429 278.478 287.65 278.088ZM328.548 252.541L320.368 246.496L300.698 231.87C300.893 231.48 300.893 231.09 300.893 230.7C300.893 229.725 300.503 228.945 299.724 228.36L327.185 198.913C328.743 200.083 330.885 200.863 333.027 200.863C333.222 200.863 333.417 200.863 333.611 200.863L332.638 233.625L332.248 250.396C331.08 250.396 329.522 251.176 328.548 252.541ZM334.391 180.972L331.274 132.413C331.859 132.413 332.443 132.218 332.832 131.828L360.487 158.545C360.098 158.935 359.903 159.52 359.903 160.3C359.903 160.885 360.098 161.47 360.487 162.055L354.06 169.076L340.623 183.897C338.87 182.337 336.728 181.167 334.391 180.972ZM328.743 127.928L290.766 104.527C291.35 103.552 291.74 102.577 291.74 101.406C291.74 100.041 291.35 98.8713 290.571 97.8963L296.803 91.8509L309.852 79.1751C310.241 80.1501 311.215 80.7352 312.383 80.7352C312.578 80.7352 312.578 80.7352 312.773 80.7352L325.432 115.837L329.522 126.953C329.132 127.343 328.937 127.538 328.743 127.928ZM309.462 78.59L296.219 91.2658L289.792 97.3112C288.818 96.1412 287.26 95.5561 285.508 95.5561C284.534 95.5561 283.56 95.7511 282.586 96.3362L262.332 59.8688C262.527 59.6738 262.527 59.6738 262.721 59.4788L304.983 75.0798L309.462 76.8349C309.267 77.2249 309.073 77.615 309.073 78.2C309.462 78.2 309.462 78.395 309.462 78.59ZM128.147 49.7282C128.926 49.7282 129.705 49.3382 130.095 48.9481L148.402 63.184C147.233 64.7441 146.649 66.6943 146.649 68.8394C146.649 69.8145 146.844 70.7895 147.038 71.7646L143.338 72.9347L97.9606 86.1955C97.7659 86.0005 97.7659 85.8055 97.5711 85.8055L126.784 49.5332C127.174 49.7282 127.563 49.7282 128.147 49.7282ZM94.4551 90.2908L74.5903 136.704C74.3955 136.704 74.0061 136.509 73.8113 136.509C73.4218 136.509 72.8375 136.704 72.448 136.899L63.6841 128.123L50.8305 114.862C50.8305 114.667 51.0252 114.277 51.0252 114.082C51.0252 113.497 50.8305 112.912 50.441 112.327L92.8971 89.1207C93.2866 89.7057 93.8708 90.0958 94.4551 90.2908ZM48.2987 117.007C49.2724 117.007 50.2462 116.422 50.8305 115.447L70.111 135.144L72.2533 137.289C71.669 137.874 71.0848 138.654 71.0848 139.629C71.0848 140.214 71.2795 140.604 71.4743 140.994L68.3582 143.724L41.8718 167.321C41.0928 166.541 40.1191 166.151 38.9506 165.956L48.2987 117.007ZM40.7033 190.137L38.7558 177.461C39.5348 177.266 40.3138 177.071 40.8981 176.681L53.7518 193.452L87.2492 237.135C86.8597 237.525 86.665 238.11 86.665 238.695C86.665 238.89 86.665 239.28 86.8597 239.475L52.9727 257.221C52.3885 256.636 51.8042 256.051 50.8305 256.051L40.7033 190.137ZM58.4258 308.9L74.0061 307.73L92.8971 306.365C93.0918 307.925 94.2603 309.095 95.8184 309.095C96.0131 309.095 96.0131 309.095 96.2079 309.095L99.7134 334.446C97.7659 334.641 96.2079 335.616 95.2341 337.177L58.0363 310.265C58.4258 309.875 58.6206 309.485 58.4258 308.9ZM100.492 334.446L96.9869 308.9C97.7659 308.705 98.3501 308.12 98.7396 307.34L138.859 325.671C138.859 325.866 138.859 325.866 138.859 326.061C138.859 326.451 138.859 326.841 139.053 327.231L122.889 333.276L106.335 339.517C105.751 336.787 103.414 334.446 100.492 334.446ZM106.14 340.102L121.526 334.251L139.053 327.621C139.638 328.401 140.417 328.986 141.391 328.986H141.585L146.259 345.172L105.751 341.857C106.14 341.272 106.14 340.882 106.14 340.102ZM144.701 337.177L142.364 328.986C143.338 328.596 144.117 327.816 144.507 326.841L178.783 324.306C178.783 324.696 178.783 324.891 178.978 325.086L154.049 340.687L147.038 344.977L144.701 337.177ZM179.173 325.671C179.757 326.451 180.536 327.036 181.704 327.036C182.678 327.036 183.457 326.646 184.041 325.866L207.996 344.002C207.801 344.392 207.606 344.782 207.412 345.172H147.817L179.173 325.671ZM210.333 342.832C209.554 342.832 208.97 343.027 208.385 343.612L184.236 325.281C184.431 324.891 184.431 324.501 184.431 324.111C184.431 323.721 184.431 323.331 184.236 323.136L230.587 305.389C231.172 306.17 231.951 306.755 233.119 306.755C234.288 306.755 235.261 305.975 235.651 304.999L259.216 324.501L268.369 332.106C267.785 333.081 267.396 334.056 267.396 335.421C267.396 335.811 267.396 336.201 267.59 336.592L212.865 344.977C212.475 343.612 211.501 342.832 210.333 342.832ZM273.433 329.571C271.68 329.571 269.927 330.351 268.954 331.716L236.04 304.414C236.04 304.219 236.04 304.024 236.04 303.829C236.04 303.634 236.04 303.439 236.04 303.244L284.339 282.768C284.729 283.158 285.118 283.353 285.702 283.548L280.249 306.365L274.601 329.766C274.407 329.571 273.822 329.571 273.433 329.571ZM360.877 158.155L333.222 131.438C333.806 130.853 334.001 130.268 334.001 129.488C334.001 128.513 333.611 127.733 333.027 127.343L346.66 110.962C347.244 111.352 347.828 111.547 348.413 111.547C348.607 111.547 348.997 111.547 349.192 111.352L357.761 143.334L361.656 157.57C361.266 157.765 361.072 157.96 360.877 158.155ZM345.491 108.622C345.491 109.207 345.686 109.987 346.076 110.377L332.443 126.953C332.053 126.758 331.664 126.563 331.08 126.563C330.69 126.563 330.301 126.563 329.911 126.758L313.162 80.5401C313.747 80.3451 314.136 80.1501 314.331 79.7601L337.896 99.6514L346.076 106.477C345.881 107.062 345.491 107.842 345.491 108.622ZM327.574 70.0095L313.941 75.6648C313.357 75.2748 312.773 75.0798 312.189 75.0798C311.604 75.0798 311.02 75.2748 310.631 75.4698L287.65 48.1681L305.957 57.5287L327.379 68.4494C327.379 68.6444 327.185 69.0344 327.185 69.2294C327.379 69.4244 327.574 69.6195 327.574 70.0095ZM310.241 75.8598L310.046 76.0549L288.429 68.0593L263.111 58.8938C263.111 58.6988 263.306 58.5037 263.306 58.1137L278.691 51.0933L286.481 47.583L310.241 75.8598ZM265.838 56.1636L263.111 57.3337C262.916 55.9686 261.748 54.9935 260.19 54.9935C259.605 54.9935 258.826 55.1885 258.437 55.5785L240.52 40.7576L229.029 31.202C229.224 31.007 229.224 30.812 229.419 30.812L285.508 46.998L265.838 56.1636ZM155.218 11.8958C156.386 11.8958 157.36 11.3107 157.75 10.3357L193.389 41.7327C193 42.3177 192.61 42.9027 192.61 43.6828C192.61 43.6828 192.61 43.6828 192.61 43.8778L156.581 45.6329L130.679 46.998C130.679 46.413 130.29 45.8279 129.9 45.2429L130.679 44.2678L154.439 12.0908C154.828 11.7007 155.023 11.8958 155.218 11.8958ZM126.2 49.1431L96.9869 85.2205C96.5974 84.8304 96.0131 84.6354 95.4289 84.6354C95.0394 84.6354 94.4551 84.8304 94.0656 85.0254L74.2008 69.2294L110.035 54.7985L125.616 48.5581C125.81 48.7531 126.005 48.9481 126.2 49.1431ZM93.6761 85.4155C93.0918 86.0005 92.5076 86.7805 92.5076 87.7556C92.5076 87.9506 92.5076 88.3407 92.7023 88.5357L77.5116 96.7262L50.0515 111.742L49.8567 111.547L73.8113 69.6195L93.6761 85.4155ZM31.9394 107.647C33.108 107.647 33.887 107.062 34.4712 106.087L40.3138 109.012L45.9617 111.937C45.3774 112.522 45.1826 113.107 45.1826 113.887C45.1826 114.472 45.3774 115.057 45.7669 115.642L18.3068 147.429L17.5277 148.404C17.333 148.404 17.333 148.404 17.1382 148.404L18.112 145.869L31.7447 107.842C31.7447 107.647 31.9394 107.647 31.9394 107.647ZM37.1978 126.563L46.1564 116.227C46.5459 116.617 46.9354 116.812 47.5197 116.812L38.3663 165.761C38.1715 165.761 38.1715 165.761 37.9768 165.761C36.4188 165.761 34.8607 166.346 33.887 167.516L27.0706 160.885L18.6963 152.695C19.0858 152.305 19.2805 151.72 19.2805 150.94C19.2805 149.965 18.6963 148.99 17.9172 148.404L37.1978 126.563ZM16.3592 154.06C17.1382 154.06 17.9173 153.67 18.5015 153.28L33.4975 168.101C32.7185 169.076 32.1342 170.441 32.1342 171.806C32.1342 173.561 32.9132 175.316 34.2765 176.291L27.6549 186.822L17.9172 202.423C17.5277 202.228 16.9435 202.033 16.3592 202.033V154.06ZM18.3068 233.43L16.554 207.493C16.7487 207.493 16.7487 207.493 16.9435 207.493L49.2724 256.441C48.4934 256.831 48.1039 257.611 47.9092 258.587L38.3663 259.562L23.5651 260.927C23.5651 260.732 23.5651 260.537 23.5651 260.537C23.5651 258.977 22.2018 257.611 20.6438 257.611C20.449 257.611 20.0595 257.611 19.8648 257.806L18.3068 233.43ZM23.3703 261.512L47.9092 259.172C48.1039 260.732 49.2724 261.902 50.8305 261.902H51.0252L55.3098 306.365C54.9203 306.365 54.7255 306.56 54.5308 306.56L30.7709 275.358L21.6176 263.267C22.3966 262.877 22.9808 262.292 23.3703 261.512ZM105.751 342.442L145.87 345.757L125.616 359.993L123.473 361.553C122.889 360.968 122.305 360.773 121.526 360.773C120.941 360.773 120.357 360.968 119.968 361.163L114.125 354.923L104.387 344.587C104.972 344.002 105.361 343.222 105.751 342.442ZM147.623 345.757H207.412C207.412 347.317 208.775 348.682 210.333 348.682C211.307 348.682 212.086 348.292 212.67 347.512L213.839 348.487L246.946 372.474C246.752 372.864 246.557 373.254 246.557 373.644L200.011 375.399L185.599 375.984L147.623 345.757ZM249.284 371.304C248.505 371.304 247.725 371.694 247.336 372.084L213.06 346.927C213.254 346.537 213.254 346.147 213.254 345.757C213.254 345.562 213.254 345.562 213.254 345.367L255.321 338.932L267.98 336.982C268.369 338.347 269.343 339.517 270.512 340.297L250.452 371.499C250.063 371.304 249.673 371.304 249.284 371.304ZM278.886 333.666L323.29 312.215L323.484 312.41L310.631 328.011L299.53 341.467L279.081 336.982C279.275 336.591 279.275 336.006 279.275 335.616C279.275 334.836 279.081 334.251 278.886 333.666ZM278.691 333.081C278.107 331.521 276.744 330.351 275.38 329.961L281.807 302.854L286.481 283.743C287.066 283.743 287.65 283.548 288.234 283.158L322.705 309.485C322.705 309.68 322.511 309.875 322.511 310.265C322.511 310.85 322.705 311.24 322.9 311.63L278.691 333.081ZM325.821 307.34L332.248 261.707C332.638 261.707 332.832 261.707 333.222 261.707C334.975 261.707 336.533 260.927 337.701 259.562L355.813 271.847L363.019 276.723C363.019 276.918 363.019 277.113 363.019 277.308C363.019 277.893 363.214 278.478 363.603 279.063L342.765 296.029L327.964 308.12C327.185 307.73 326.6 307.34 325.821 307.34ZM365.746 274.773C365.551 274.773 365.551 274.773 365.356 274.773L362.824 225.629C364.382 225.629 365.551 224.264 365.551 222.704C365.551 222.509 365.551 222.509 365.551 222.314L379.963 216.464C380.157 217.634 380.936 218.414 382.105 218.804L380.157 225.629L365.94 274.773C365.94 274.773 365.94 274.773 365.746 274.773ZM382.884 213.149C381.326 213.149 379.963 214.319 379.963 216.074L377.041 217.244L365.551 221.924C365.161 220.754 363.993 219.974 362.824 219.974V163.42C364.382 163.42 365.746 162.055 365.746 160.495C365.746 159.715 365.356 158.935 364.967 158.545L371.199 152.5C371.588 152.89 372.173 153.28 372.757 153.28L383.079 213.344C382.884 213.149 382.884 213.149 382.884 213.149ZM371.394 148.014C370.809 148.599 370.42 149.38 370.42 150.16C370.42 150.745 370.615 151.33 370.809 151.72L364.382 157.765C363.993 157.375 363.409 157.18 362.824 157.18C362.63 157.18 362.435 157.18 362.045 157.18L359.903 149.575L349.581 110.962C350.555 110.572 351.139 109.597 351.139 108.427C351.139 107.257 350.555 106.477 349.581 105.892L353.087 99.0663L371.394 148.014ZM352.892 98.6763L349.192 105.892C348.997 105.892 348.607 105.697 348.218 105.697C348.023 105.697 347.828 105.697 347.634 105.697L331.469 71.7646L352.892 98.6763ZM327.769 67.6693L301.477 54.4085L287.26 47.193L293.687 44.0728L295.245 43.2928C295.635 44.2678 296.803 45.0479 297.777 45.0479C298.751 45.0479 299.53 44.6579 299.919 44.0728L327.769 67.6693ZM295.05 42.7077L286.481 46.803L231.951 31.007L239.546 32.1771L294.856 41.5377C294.856 41.7327 294.856 41.9277 294.856 42.1227C295.05 42.3177 295.05 42.5127 295.05 42.7077ZM294.856 40.9526L229.808 30.0319C229.808 29.8369 229.808 29.6419 229.808 29.6419C229.808 28.0818 228.445 26.7167 226.887 26.7167C225.913 26.7167 225.134 27.1067 224.55 27.8868L195.921 4.87531C196.116 4.6803 196.311 4.29027 196.311 4.09526L294.856 40.9526ZM193.779 5.85037C194.558 5.85037 195.142 5.65536 195.532 5.26534L224.355 28.4718C224.355 28.6668 224.16 28.8618 224.16 28.8618L208.385 24.1815L158.139 8.97057C158.139 8.97057 158.139 8.97057 158.139 8.77556L190.858 2.53516C190.858 2.73017 190.858 2.73017 190.858 2.92519C190.858 4.48529 192.221 5.85037 193.779 5.85037ZM185.405 2.92519L175.862 4.6803L158.139 7.99551C157.75 6.82544 156.776 5.85037 155.413 5.85037C154.049 5.85037 153.076 6.82544 152.686 7.99551L141.975 7.21546L185.405 2.92519ZM138.469 7.60549L142.364 7.99551L152.491 8.77556V8.97057C152.491 9.3606 152.491 9.75062 152.686 10.1406L136.327 16.7711L107.114 28.6668L138.469 7.60549ZM133.795 18.3312L152.881 10.5307C153.27 10.9207 153.66 11.3107 154.049 11.5057L135.743 36.4673L129.705 44.6579C129.316 44.2678 128.537 44.0728 127.953 44.0728C126.395 44.0728 125.031 45.4379 125.031 46.998C125.031 47.388 125.031 47.7781 125.226 48.1681L107.309 55.3835L74.2008 68.6444L101.466 33.5421C101.856 33.7372 102.245 33.9322 102.635 33.9322C104.193 33.9322 105.556 32.5671 105.556 31.007C105.556 30.617 105.361 30.2269 105.361 29.8369L133.795 18.3312ZM101.271 33.1521L73.6165 68.8394L57.8416 57.5287C57.8416 56.9436 57.6468 56.5536 57.2573 56.1636L100.687 32.1771C100.882 32.5671 101.077 32.9571 101.271 33.1521ZM52.778 59.8688C52.9727 60.0638 53.3623 60.2589 53.557 60.4539L34.4712 99.8464L33.3027 102.187C32.9132 101.992 32.5237 101.797 32.1342 101.797C31.9395 101.797 31.9394 101.797 31.7447 101.797L27.0706 87.9506C27.6549 87.3656 27.8496 86.7806 27.8496 86.0005C27.8496 85.2205 27.4601 84.4404 26.8759 83.8554L52.778 59.8688ZM25.1231 88.9257C25.7074 88.9257 26.0969 88.7307 26.6811 88.5357L28.6287 94.386L31.1604 102.187C29.9919 102.577 29.2129 103.747 29.2129 104.917C29.2129 106.087 29.9919 107.257 31.1604 107.647L16.554 148.209C15.1907 148.209 14.2169 148.99 13.8274 150.16H12.2694L25.1231 88.9257ZM11.8799 150.745H13.4379C13.4379 150.94 13.4379 150.94 13.4379 151.135C13.4379 152.5 14.4117 153.67 15.5802 153.865V201.838C14.217 202.033 13.2432 203.203 13.2432 204.763L5.45308 202.618C5.45308 202.423 5.64783 202.033 5.64783 201.838C5.64783 200.473 4.67406 199.303 3.31079 198.913L11.8799 150.745ZM3.50555 205.933L6.23208 215.489L18.6963 258.392C18.5015 258.587 18.3068 258.977 18.112 259.367L12.2694 253.516L9.73764 250.981L3.50555 205.933ZM10.3219 252.151L17.7225 259.757C17.7225 259.952 17.7225 260.147 17.7225 260.342C17.7225 261.707 18.6963 262.877 20.0595 263.267L30.5762 298.954L10.3219 252.151ZM26.0969 281.403L20.6438 263.267C20.6438 263.267 20.6438 263.267 20.8385 263.267L30.1867 275.553L53.9465 306.755C53.557 306.95 53.1675 307.34 52.9727 307.925L35.445 304.024C35.445 303.829 35.445 303.634 35.445 303.439C35.445 301.879 34.0817 300.514 32.5237 300.514C32.329 300.514 31.9394 300.514 31.7447 300.709L26.0969 281.403ZM35.2502 304.609L52.778 308.51C52.778 308.705 52.778 308.9 52.778 309.095C52.778 310.655 54.1413 312.02 55.6993 312.02C56.0888 312.02 56.4783 312.02 56.8678 311.825L68.9425 341.467C68.553 341.662 68.3582 341.857 68.1635 342.052L34.8607 305.585C34.8607 305.194 35.0555 304.999 35.2502 304.609ZM72.0585 345.952C72.0585 345.757 72.2533 345.757 72.2533 345.562L89.5863 343.417L95.0393 342.637C96.0131 344.587 97.9606 345.952 100.298 345.952C101.661 345.952 102.829 345.562 103.803 344.782L109.841 351.217L119.383 361.358C118.799 361.943 118.41 362.723 118.41 363.503L104.193 366.623L72.0585 345.952ZM141.391 385.54L105.166 367.208L115.683 364.868L118.41 364.283C118.604 365.648 119.773 366.623 121.331 366.623C122.305 366.623 123.278 366.038 123.863 365.258L158.918 386.71C158.723 386.905 158.723 387.1 158.723 387.295L141.391 385.54ZM217.344 381.639L164.371 387.1C164.371 386.905 164.371 386.905 164.177 386.71L185.599 376.374L246.557 374.034L217.344 381.639ZM251.426 372.084C251.231 371.889 251.231 371.889 251.036 371.694L271.096 340.492C271.875 340.882 272.654 341.077 273.628 341.077C276.159 341.077 278.302 339.517 279.081 337.372L299.14 341.857L251.426 372.084ZM292.519 366.428C292.129 366.038 291.545 365.843 290.961 365.843C289.403 365.843 288.039 367.208 288.039 368.769H257.853L290.571 347.902L299.919 341.857L315.499 332.886L292.519 366.428ZM316.084 331.911L300.893 340.687L313.162 325.671L323.874 312.8C324.263 312.995 324.848 313.19 325.432 313.19C326.99 313.19 328.353 311.825 328.353 310.265C328.353 310.07 328.353 310.07 328.353 309.875L331.469 308.51L340.233 304.609L316.084 331.911ZM341.207 303.244L328.158 309.095C328.158 308.9 328.158 308.9 327.964 308.705L363.798 279.648C364.382 280.038 364.967 280.428 365.746 280.428C366.135 280.428 366.525 280.428 366.914 280.233L341.207 303.244ZM368.277 279.063C368.472 278.673 368.667 278.088 368.667 277.698C368.667 277.503 368.667 277.113 368.472 276.918L374.12 273.992L368.277 279.063ZM376.068 272.042L368.277 276.138C367.888 275.358 367.304 274.968 366.525 274.773L377.626 235.965L382.494 218.804L376.068 272.042Z" fill="black" fill-opacity="0.1"/>
</svg>
