<svg width="83" height="83" viewBox="0 0 83 83" fill="none" xmlns="http://www.w3.org/2000/svg">
<g clip-path="url(#clip0)">
<path d="M35.2179 60.2113C34.9164 59.9082 34.4981 59.7363 34.0702 59.7363C33.6438 59.7363 33.2272 59.9082 32.924 60.2113C32.6225 60.5128 32.4507 60.9295 32.4507 61.3574C32.4507 61.7838 32.6225 62.202 32.924 62.5034C33.2272 62.8049 33.6438 62.9785 34.0702 62.9785C34.4981 62.9785 34.9147 62.8051 35.2179 62.5034C35.5194 62.202 35.6929 61.7838 35.6929 61.3574C35.6929 60.9293 35.5194 60.5128 35.2179 60.2113Z" fill="white"/>
<path d="M71.1616 27.9277H65.5719C67.5858 25.9189 68.8339 23.1424 68.8339 20.0798V7.17983V1.62109C68.8339 0.725764 68.1081 0 67.2128 0H54.6007C50.2187 0 46.6538 3.56495 46.6538 7.94693V13.2753C46.6538 13.2866 46.6552 13.2975 46.6554 13.3087C46.6552 13.3199 46.6538 13.3309 46.6538 13.3421V20.0798C46.6538 23.1424 47.9019 25.9187 49.9157 27.9277H32.4305C34.4444 25.9189 35.6924 23.1424 35.6924 20.0798V7.17983V1.62109C35.6924 0.725764 34.9667 0 34.0713 0H21.4592C17.0772 0 13.5123 3.56495 13.5123 7.94693V13.2753C13.5123 13.2866 13.5138 13.2975 13.5139 13.3087C13.5138 13.3199 13.5123 13.3309 13.5123 13.3421V20.0798C13.5123 23.1424 14.7604 25.9187 16.7743 27.9277H13.1155C5.8836 27.9277 0 33.8113 0 41.0433V61.3563C0 62.2515 0.725764 62.9774 1.62109 62.9774H27.2344C28.1297 62.9774 28.8555 62.2515 28.8555 61.3563C28.8555 60.4611 28.1297 59.7352 27.2344 59.7352H10.5715V49.2693C10.5715 48.3741 9.84571 47.6482 8.95038 47.6482C8.05505 47.6482 7.32929 48.3741 7.32929 49.2693V59.7352H3.24219V41.0433C3.24219 35.5992 7.67134 31.1699 13.1156 31.1699H17.6646L22.9813 39.1238V48.7859C22.9813 49.681 23.707 50.4069 24.6024 50.4069C25.4977 50.4069 26.2235 49.681 26.2235 48.7859V39.1668L32.1447 31.1699H38.0203C42.7602 31.1699 46.6165 35.0262 46.6165 39.7661V46.4165C46.6165 47.3116 47.3423 48.0376 48.2376 48.0376C49.1329 48.0376 49.8587 47.3116 49.8587 46.4165V39.7661C49.8587 36.383 48.43 33.3292 46.147 31.1699H50.4791L56.0693 39.5328C56.3623 39.9715 56.8506 40.2399 57.378 40.2526C57.3911 40.2529 57.4041 40.2531 57.417 40.2531C57.93 40.2531 58.4137 40.0101 58.7197 39.5967L64.9592 31.1701H71.1616C75.9016 31.1701 79.7578 35.0263 79.7578 39.7662V46.4166C79.7578 47.3118 80.4836 48.0377 81.3789 48.0377C82.2742 48.0377 83 47.3118 83 46.4166V39.7662C83 33.2384 77.6893 27.9277 71.1616 27.9277ZM16.7547 7.94693C16.7547 5.35269 18.8652 3.24219 21.4594 3.24219H32.4504V7.17983C32.4504 9.64697 30.4433 11.6542 27.976 11.6542H16.7547V7.94693ZM24.6701 35.8163L21.5643 31.1699H28.1104L24.6701 35.8163ZM24.6025 27.9279C20.2752 27.9279 16.7547 24.4074 16.7547 20.08V14.8964H27.976C29.6432 14.8964 31.1873 14.3632 32.4504 13.4608V20.08C32.4504 24.4074 28.9299 27.9279 24.6025 27.9279ZM49.8958 7.94693C49.896 5.35269 52.0066 3.24219 54.6007 3.24219H65.5917V7.17983C65.5917 9.64697 63.5846 11.6542 61.1173 11.6542H49.8958V7.94693ZM57.4846 35.8163L54.3788 31.1699H60.9249L57.4846 35.8163ZM57.744 27.9279C53.4167 27.9279 49.896 24.4074 49.896 20.08V14.8964H61.1175C62.7846 14.8964 64.3287 14.3632 65.5919 13.4608V20.08C65.5919 24.4074 62.0714 27.9279 57.744 27.9279Z" fill="white"/>
<path d="M77.0675 50.658H69.5273V47.5405C69.5273 45.4086 67.7928 43.6738 65.6607 43.6738H57.2179C55.0858 43.6738 53.3513 45.4084 53.3513 47.5405V50.658H45.8111C42.54 50.658 39.8787 53.3192 39.8787 56.5904V77.0687C39.8788 80.3399 42.5402 83.0011 45.8112 83.0011H77.0677C80.3386 83.0011 82.9999 80.3399 82.9999 77.0687V56.5904C82.9999 53.3192 80.3386 50.658 77.0675 50.658ZM57.218 46.916H65.6609C66.0052 46.916 66.2853 47.1961 66.2853 47.5405V50.658H56.5938V47.5405H56.5936C56.5936 47.1961 56.8737 46.916 57.218 46.916ZM79.7577 77.0687C79.7577 78.5521 78.551 79.7589 77.0675 79.7589H45.8112C44.3279 79.7589 43.121 78.5521 43.121 77.0687V65.3519H57.1237V65.6171C57.1237 67.9967 59.0596 69.9326 61.4394 69.9326C63.8191 69.9326 65.7551 67.9967 65.7551 65.6171V65.3519H79.7577V77.0687ZM60.3659 65.6171V63.4658H62.5129V65.6171C62.5129 66.2088 62.0314 66.6904 61.4394 66.6904C60.8474 66.6904 60.3659 66.2088 60.3659 65.6171ZM79.7577 62.1097H65.7551V61.8447C65.7551 60.9495 65.0293 60.2236 64.134 60.2236H58.745C57.8496 60.2236 57.1239 60.9495 57.1239 61.8447V62.1097H43.121V56.5904C43.121 55.1071 44.3278 53.9002 45.8112 53.9002H54.9725H67.9062H77.0675C78.5508 53.9002 79.7577 55.1069 79.7577 56.5904V62.1097Z" fill="white"/>
</g>
<defs>
<clipPath id="clip0">
<rect width="83" height="83" fill="white"/>
</clipPath>
</defs>
</svg>
