<svg width="90" height="90" viewBox="0 0 90 90" fill="none" xmlns="http://www.w3.org/2000/svg">
<g clip-path="url(#clip0)">
<path d="M7.25836 81.5584V66.1002L10.6014 63.872H15.968V60.9688H9.72174L4.35513 64.547V81.5584C2.66836 82.1594 1.4519 83.7562 1.4519 85.6462C1.4519 88.0471 3.40578 90.001 5.80674 90.001C8.20771 90.001 10.1616 88.0471 10.1616 85.6462C10.1616 83.7562 8.94368 82.1594 7.25836 81.5584ZM5.80674 87.0978C5.00545 87.0978 4.35513 86.4475 4.35513 85.6462C4.35513 84.8449 5.00545 84.1946 5.80674 84.1946C6.60803 84.1946 7.25836 84.8449 7.25836 85.6462C7.25836 86.4475 6.60803 87.0978 5.80674 87.0978Z" fill="white"/>
<path d="M8.44258 58.0643H15.9677V55.161H8.44258C7.84161 53.4757 6.24484 52.2578 4.35484 52.2578C1.95387 52.2578 0 54.2117 0 56.6127C0 59.0136 1.95387 60.9675 4.35484 60.9675C6.24484 60.9675 7.84161 59.7496 8.44258 58.0643ZM2.90323 56.6127C2.90323 55.8114 3.55355 55.161 4.35484 55.161C5.15613 55.161 5.80645 55.8114 5.80645 56.6127C5.80645 57.4139 5.15613 58.0643 4.35484 58.0643C3.55355 58.0643 2.90323 57.4139 2.90323 56.6127Z" fill="white"/>
<path d="M4.35484 49.3542C6.24484 49.3542 7.84161 48.1363 8.44258 46.451H15.9677V43.5478H8.44258C7.84161 41.861 6.24484 40.6445 4.35484 40.6445C1.95387 40.6445 0 42.5984 0 44.9994C0 47.4003 1.95387 49.3542 4.35484 49.3542ZM4.35484 43.5478C5.15613 43.5478 5.80645 44.1981 5.80645 44.9994C5.80645 45.8007 5.15613 46.451 4.35484 46.451C3.55355 46.451 2.90323 45.8007 2.90323 44.9994C2.90323 44.1981 3.55355 43.5478 4.35484 43.5478Z" fill="white"/>
<path d="M15.9678 49.3555H10.1614V52.2587H15.9678V49.3555Z" fill="white"/>
<path d="M15.9678 37.7422H10.1614V40.6454H15.9678V37.7422Z" fill="white"/>
<path d="M15.9677 31.9355H0V34.8388H15.9677V31.9355Z" fill="white"/>
<path d="M11.012 29.0307H15.9678V26.1275H12.214L8.70977 22.6233V20.0539C10.3951 19.4529 11.613 17.8562 11.613 15.9662C11.613 13.5652 9.65913 11.6113 7.25816 11.6113C4.85719 11.6113 2.90332 13.5652 2.90332 15.9662C2.90332 17.8562 4.11977 19.4529 5.80655 20.0539V23.8252L11.012 29.0307ZM7.25816 14.5146C8.05945 14.5146 8.70977 15.1649 8.70977 15.9662C8.70977 16.7675 8.05945 17.4178 7.25816 17.4178C6.45687 17.4178 5.80655 16.7675 5.80655 15.9662C5.80655 15.1649 6.45687 14.5146 7.25816 14.5146Z" fill="white"/>
<path d="M26.129 12.2141V15.9679H29.0323V11.0121L23.8268 5.80664H0V8.70987H22.6248L26.129 12.2141Z" fill="white"/>
<path d="M31.9355 6.40742V15.9677H34.8387V5.20548L29.6332 0H0V2.90323H28.4313L31.9355 6.40742Z" fill="white"/>
<path d="M40.6454 10.1621H37.7422V15.9686H40.6454V10.1621Z" fill="white"/>
<path d="M58.0646 0H55.1614V15.9677H58.0646V0Z" fill="white"/>
<path d="M43.548 8.44258V15.9677H46.4512V10.7623L49.3545 13.6655V15.9677H52.2577V12.4635L47.6111 7.81694C48.6635 7.02145 49.3545 5.77306 49.3545 4.35484C49.3545 1.95387 47.4006 0 44.9996 0C42.5986 0 40.6448 1.95387 40.6448 4.35484C40.6448 6.24484 41.8612 7.84161 43.548 8.44258ZM44.9996 2.90323C45.8009 2.90323 46.4512 3.55355 46.4512 4.35484C46.4512 5.15613 45.8009 5.80645 44.9996 5.80645C44.1983 5.80645 43.548 5.15613 43.548 4.35484C43.548 3.55355 44.1983 2.90323 44.9996 2.90323Z" fill="white"/>
<path d="M63.8708 9.31065L67.375 5.80645H81.5572C81.9956 7.03597 82.9638 8.00419 84.1933 8.44258V28.4313L80.6891 31.9355H74.032V34.8387H81.8911L87.0966 29.6332V8.44258C88.7819 7.84161 89.9998 6.24484 89.9998 4.35484C89.9998 1.95387 88.0459 0 85.645 0C83.755 0 82.1582 1.2179 81.5572 2.90323H66.173L60.9675 8.10871V15.9677H63.8708V9.31065ZM85.645 2.90323C86.4462 2.90323 87.0966 3.55355 87.0966 4.35484C87.0966 5.15613 86.4462 5.80645 85.645 5.80645C84.8437 5.80645 84.1933 5.15613 84.1933 4.35484C84.1933 3.55355 84.8437 2.90323 85.645 2.90323Z" fill="white"/>
<path d="M75.1357 17.6704L78.3873 20.922V22.6233L74.8831 26.1275H74.0325V29.0307H76.0851L81.2905 23.8252V19.72L76.0851 14.5146H75.217C74.616 12.8292 73.0193 11.6113 71.1293 11.6113C68.7283 11.6113 66.7744 13.5652 66.7744 15.9662C66.7744 18.3671 68.7283 20.321 71.1293 20.321C72.9263 20.321 74.4709 19.2265 75.1357 17.6704ZM71.1293 17.4178C70.328 17.4178 69.6776 16.7675 69.6776 15.9662C69.6776 15.1649 70.328 14.5146 71.1293 14.5146C71.9305 14.5146 72.5809 15.1649 72.5809 15.9662C72.5809 16.7675 71.9305 17.4178 71.1293 17.4178Z" fill="white"/>
<path d="M90.0002 37.7422H74.0325V40.6454H90.0002V37.7422Z" fill="white"/>
<path d="M87.097 81.5579V48.7543L81.8915 43.5488H74.0325V46.4521H80.6896L84.1938 49.9563V57.464L81.8915 55.1617H74.0325V58.065H80.6896L84.1938 61.5692V81.5579C82.507 82.1588 81.2905 83.7556 81.2905 85.6456C81.2905 88.0466 83.2444 90.0005 85.6454 90.0005C88.0464 90.0005 90.0002 88.0466 90.0002 85.6456C90.0002 83.7556 88.7823 82.1588 87.097 81.5579ZM85.6454 87.0972C84.8441 87.0972 84.1938 86.4469 84.1938 85.6456C84.1938 84.8443 84.8441 84.194 85.6454 84.194C86.4467 84.194 87.097 84.8443 87.097 85.6456C87.097 86.4469 86.4467 87.0972 85.6454 87.0972Z" fill="white"/>
<path d="M79.8389 49.3555H74.0325V52.2587H79.8389V49.3555Z" fill="white"/>
<path d="M81.2901 66.1742L76.0846 60.9688H74.0321V63.872H74.8827L78.3869 67.3762V75.4849H63.8708V74.0333H60.9675V78.3881H78.3869V80.6904L74.8827 84.1946H72.3133C71.7124 82.5092 70.1156 81.2913 68.2256 81.2913C65.8246 81.2913 63.8708 83.2452 63.8708 85.6462C63.8708 88.0471 65.8246 90.001 68.2256 90.001C70.1156 90.001 71.7124 88.7831 72.3133 87.0978H76.0846L81.2901 81.8923V66.1742ZM68.2256 87.0978C67.4243 87.0978 66.774 86.4475 66.774 85.6462C66.774 84.8449 67.4243 84.1946 68.2256 84.1946C69.0269 84.1946 69.6772 84.8449 69.6772 85.6462C69.6772 86.4475 69.0269 87.0978 68.2256 87.0978Z" fill="white"/>
<path d="M29.0323 74.0317H26.1291V75.4833H18.604C18.003 73.798 16.4062 72.5801 14.5162 72.5801C12.1152 72.5801 10.1614 74.5339 10.1614 76.9349C10.1614 79.3359 12.1152 81.2897 14.5162 81.2897C16.4062 81.2897 18.003 80.0718 18.604 78.3865H29.0323V74.0317ZM14.5162 78.3865C13.7149 78.3865 13.0646 77.7362 13.0646 76.9349C13.0646 76.1336 13.7149 75.4833 14.5162 75.4833C15.3175 75.4833 15.9678 76.1336 15.9678 76.9349C15.9678 77.7362 15.3175 78.3865 14.5162 78.3865Z" fill="white"/>
<path d="M58.0646 74.0312H55.1614V89.999H58.0646V74.0312Z" fill="white"/>
<path d="M52.2585 74.0312H49.3552V89.999H52.2585V74.0312Z" fill="white"/>
<path d="M43.5483 76.3335L40.6451 79.2367V74.0312H37.7418V81.5564C36.0551 82.1574 34.8386 83.7542 34.8386 85.6442C34.8386 88.0451 36.7925 89.999 39.1935 89.999C41.5944 89.999 43.5483 88.0451 43.5483 85.6442C43.5483 84.2259 42.8573 82.9775 41.8049 82.1821L46.4515 77.5354V74.0312H43.5483V76.3335ZM39.1935 87.0958C38.3922 87.0958 37.7418 86.4454 37.7418 85.6442C37.7418 84.8429 38.3922 84.1925 39.1935 84.1925C39.9948 84.1925 40.6451 84.8429 40.6451 85.6442C40.6451 86.4454 39.9948 87.0958 39.1935 87.0958Z" fill="white"/>
<path d="M34.8389 74.0312H31.9356V77.7851L27.5808 82.14V89.999H30.484V83.3419L34.8389 78.9871V74.0312Z" fill="white"/>
<path d="M60.9679 71.1292H63.8711V68.2259H68.2259V63.8711H71.1292V60.9679H68.2259V58.0646H71.1292V55.1614H68.2259V52.2582H71.1292V49.355H68.2259V46.4517H71.1292V43.5485H68.2259V40.6453H71.1292V37.7421H68.2259V34.8388H71.1292V31.9356H68.2259V29.0324H71.1292V26.1292H68.2259V21.7743H63.8711V18.8711H60.9679V21.7743H58.0646V18.8711H55.1614V21.7743H52.2582V18.8711H49.355V21.7743H46.4517V18.8711H43.5485V21.7743H40.6453V18.8711H37.7421V21.7743H34.8388V18.8711H31.9356V21.7743H29.0324V18.8711H26.1292V21.7743H25.5282L21.7743 25.5282V26.1292H18.8711V29.0324H21.7743V31.9356H18.8711V34.8388H21.7743V37.7421H18.8711V40.6453H21.7743V43.5485H18.8711V46.4517H21.7743V49.355H18.8711V52.2582H21.7743V55.1614H18.8711V58.0646H21.7743V60.9679H18.8711V63.8711H21.7743V68.2259H26.1292V71.1292H29.0324V68.2259H31.9356V71.1292H34.8388V68.2259H37.7421V71.1292H40.6453V68.2259H43.5485V71.1292H46.4517V68.2259H49.355V71.1292H52.2582V68.2259H55.1614V71.1292H58.0646V68.2259H60.9679V71.1292ZM24.6775 65.3227V26.7301L26.7301 24.6775H65.3227V65.3227H24.6775Z" fill="white"/>
<path d="M57.8629 38.2944L60.396 35.7614L54.2382 29.6036L51.7052 32.1367C50.9503 31.7404 50.165 31.4152 49.355 31.1598V27.5801H40.6453V31.1598C39.8339 31.4152 39.0486 31.7404 38.2952 32.1367L35.7621 29.6036L29.6044 35.7614L32.1374 38.2944C31.7426 39.0493 31.416 39.8346 31.1605 40.6446H27.5808V49.3543H31.1605C31.416 50.1657 31.7411 50.951 32.1374 51.7044L29.6044 54.2375L35.7621 60.3952L38.2952 57.8622C39.05 58.257 39.8339 58.5836 40.6453 58.8391V62.4188H49.355V58.8391C50.1665 58.5836 50.9518 58.2585 51.7052 57.8622L54.2382 60.3952L60.396 54.2375L57.8629 51.7044C58.2577 50.951 58.5844 50.1657 58.8398 49.3543H62.4195V40.6446H58.8398C58.5844 39.8331 58.2592 39.0478 57.8629 38.2944ZM59.5163 46.451H56.5724L56.3155 47.5804C56.0252 48.8535 55.5229 50.0612 54.8247 51.1717L54.2063 52.153L56.2923 54.2389L54.2397 56.2915L52.1537 54.2056L51.1724 54.8239C50.0619 55.5222 48.8542 56.0244 47.5811 56.3147L46.4518 56.5717V59.5156H43.5486V56.5717L42.4192 56.3147C41.1461 56.0244 39.9384 55.5222 38.8279 54.8239L37.8466 54.2056L35.7606 56.2915L33.7081 54.2389L35.794 52.153L35.1756 51.1717C34.4774 50.0612 33.9752 48.8535 33.6848 47.5804L33.4279 46.451H30.484V43.5478H33.4279L33.6848 42.4185C33.9752 41.1454 34.4774 39.9377 35.1756 38.8272L35.794 37.8459L33.7081 35.7599L35.7606 33.7073L37.8466 35.7918L38.8279 35.1735C39.9384 34.4752 41.1461 33.973 42.4192 33.6827L43.5486 33.4272V30.4833H46.4518V33.4272L47.5811 33.6841C48.8542 33.9744 50.0619 34.4767 51.1724 35.1749L52.1537 35.7933L54.2397 33.7088L56.2923 35.7614L54.2063 37.8473L54.8247 38.8286C55.5229 39.9391 56.0252 41.1468 56.3155 42.4199L56.5724 43.5478H59.5163V46.451Z" fill="white"/>
<path d="M45.0003 37.7422C40.9982 37.7422 37.7422 40.9982 37.7422 45.0002C37.7422 49.0023 40.9982 52.2583 45.0003 52.2583C49.0023 52.2583 52.2583 49.0023 52.2583 45.0002C52.2583 40.9982 49.0023 37.7422 45.0003 37.7422ZM45.0003 49.3551C42.5993 49.3551 40.6454 47.4012 40.6454 45.0002C40.6454 42.5993 42.5993 40.6454 45.0003 40.6454C47.4012 40.6454 49.3551 42.5993 49.3551 45.0002C49.3551 47.4012 47.4012 49.3551 45.0003 49.3551Z" fill="white"/>
</g>
<defs>
<clipPath id="clip0">
<rect width="90" height="90" fill="white"/>
</clipPath>
</defs>
</svg>
