<svg width="50" height="51" viewBox="0 0 50 51" fill="none" xmlns="http://www.w3.org/2000/svg">
<g clip-path="url(#clip0)">
<path d="M24.9442 41.6784C16.0421 41.6784 8.81201 34.4483 8.81201 25.5462C8.81201 16.6442 16.0421 9.41406 24.9442 9.41406C33.8462 9.41406 41.0763 16.6442 41.0763 25.5462C41.0763 34.4483 33.8462 41.6784 24.9442 41.6784ZM24.9442 9.59481C16.1551 9.59481 8.99276 16.7571 8.99276 25.5462C8.99276 34.3353 16.1551 41.4976 24.9442 41.4976C33.7333 41.4976 40.8956 34.3353 40.8956 25.5462C40.8956 16.7571 33.7333 9.59481 24.9442 9.59481Z" fill="#231F20"/>
<path d="M47.6058 2.88672L43.1096 4.0842L46.4083 7.38294L47.6058 2.88672L43.1096 4.0842L46.4083 7.38294L47.6058 2.88672Z" fill="#414042"/>
<path d="M47.6058 48.2091L46.4083 43.7129L43.1096 47.0116L47.6058 48.2091L46.4083 43.7129L43.1096 47.0116L47.6058 48.2091Z" fill="#414042"/>
<path d="M2.28198 48.2091L6.7782 47.0116L3.47947 43.7129L2.28198 48.2091L6.7782 47.0116L3.47947 43.7129L2.28198 48.2091Z" fill="#414042"/>
<path d="M2.28174 2.88672L3.47922 7.38294L6.77796 4.0842L2.28174 2.88672L3.47922 7.38294L6.77796 4.0842L2.28174 2.88672Z" fill="#414042"/>
<path d="M27.1578 3.49471C27.4515 3.44952 27.6774 3.17839 27.6774 2.88467L38.5 0.918989L49.5711 11.9901L47.6054 22.8126C47.3116 22.8352 47.0405 23.0386 46.9953 23.3323C46.9276 23.6938 47.1535 24.0327 47.515 24.0779C47.8765 24.1457 48.2154 23.9197 48.2606 23.5582C48.3058 23.2645 48.1476 22.9708 47.8765 22.8578L49.8648 11.8771L38.5678 0.580078L27.587 2.56836C27.4741 2.29723 27.1804 2.13907 26.8866 2.18426C26.5251 2.25204 26.2992 2.59095 26.367 2.92986C26.4573 3.31396 26.7963 3.56249 27.1578 3.49471Z" fill="#414042"/>
<path d="M48.2833 27.5121C48.2155 27.1506 47.8766 26.9247 47.5377 26.9925C47.1762 27.0602 46.9502 27.3991 47.018 27.7381C47.0632 28.0318 47.3343 28.2577 47.6281 28.2577L49.5937 39.0803L38.5227 50.1514L27.7001 48.1857C27.6775 47.892 27.4742 47.6208 27.1804 47.5756C26.8189 47.5079 26.48 47.7338 26.4348 48.0953C26.3671 48.4568 26.593 48.7957 26.9545 48.8409C27.2482 48.8861 27.5419 48.7279 27.6549 48.4568L38.6356 50.4451L49.8649 39.2158L49.9101 39.1707L47.9218 28.1899C48.1703 28.1222 48.3285 27.8284 48.2833 27.5121Z" fill="#414042"/>
<path d="M22.7522 47.5971C22.4585 47.6423 22.2326 47.9134 22.2326 48.2072L11.41 50.1728L0.338911 39.1018L2.30459 28.2792C2.59832 28.2566 2.86944 28.0533 2.91463 27.7595C2.98242 27.398 2.75647 27.0591 2.39497 27.0139C2.03347 26.9462 1.69455 27.1721 1.64937 27.5336C1.60418 27.8273 1.76234 28.121 2.03346 28.234L0 39.2147L11.2292 50.444L11.2744 50.4892L22.2551 48.5009C22.3681 48.772 22.6618 48.9302 22.9556 48.885C23.3171 48.8172 23.543 48.4783 23.4752 48.1394C23.43 47.7779 23.0911 47.5293 22.7522 47.5971Z" fill="#414042"/>
<path d="M22.9782 2.23029C22.6844 2.1851 22.3907 2.34326 22.2777 2.61439L11.297 0.603516L0 11.9005L1.98828 22.8813C1.71715 22.9942 1.55899 23.2879 1.60418 23.5817C1.67196 23.9432 2.01087 24.1691 2.34978 24.1013C2.71129 24.0336 2.93723 23.6946 2.86945 23.3557C2.82426 23.062 2.55313 22.8361 2.25941 22.8361L0.316317 11.9909L11.3874 0.919832L22.21 2.88552C22.2326 3.17924 22.4359 3.45037 22.7296 3.49555C23.0911 3.56334 23.43 3.3374 23.4752 2.97589C23.5656 2.61439 23.3171 2.27548 22.9782 2.23029Z" fill="#414042"/>
<path d="M43.8602 7.33381L43.1572 6.63086L42.4543 7.33381L43.1572 8.03677L43.8602 7.33381Z" fill="#231F20"/>
<path opacity="0.8025" d="M41.6915 8.10564L40.9885 8.80859L41.6915 9.51155L42.3944 8.8086L41.6915 8.10564Z" fill="#231F20"/>
<path opacity="0.605" d="M40.2127 9.56072L39.5098 10.2637L40.2127 10.9666L40.9157 10.2637L40.2127 9.56072Z" fill="#231F20"/>
<path opacity="0.4075" d="M38.7647 11.0138L38.0618 11.7168L38.7647 12.4198L39.4677 11.7168L38.7647 11.0138Z" fill="#231F20"/>
<path opacity="0.21" d="M38.0094 13.1873L37.3064 12.4844L36.6034 13.1873L37.3064 13.8903L38.0094 13.1873Z" fill="#231F20"/>
<path d="M43.162 44.4627L43.865 43.7598L43.162 43.0568L42.4591 43.7598L43.162 44.4627Z" fill="#231F20"/>
<path opacity="0.8025" d="M41.6827 41.592L40.9797 42.2949L41.6827 42.9979L42.3856 42.2949L41.6827 41.592Z" fill="#231F20"/>
<path opacity="0.605" d="M40.2117 40.131L39.5088 40.834L40.2117 41.5369L40.9147 40.834L40.2117 40.131Z" fill="#231F20"/>
<path opacity="0.4075" d="M38.7735 38.6701L38.0706 39.373L38.7735 40.076L39.4765 39.373L38.7735 38.6701Z" fill="#231F20"/>
<path opacity="0.21" d="M37.3051 38.6131L38.0081 37.9102L37.3051 37.2072L36.6021 37.9102L37.3051 38.6131Z" fill="#231F20"/>
<path d="M6.03264 43.7658L6.7356 44.4688L7.43855 43.7658L6.73559 43.0628L6.03264 43.7658Z" fill="#231F20"/>
<path opacity="0.8025" d="M8.19466 41.5861L7.4917 42.2891L8.19465 42.992L8.89761 42.2891L8.19466 41.5861Z" fill="#231F20"/>
<path opacity="0.605" d="M9.64265 40.133L8.9397 40.8359L9.64265 41.5389L10.3456 40.8359L9.64265 40.133Z" fill="#231F20"/>
<path opacity="0.4075" d="M11.1224 38.676L10.4194 39.3789L11.1224 40.0819L11.8253 39.3789L11.1224 38.676Z" fill="#231F20"/>
<path opacity="0.21" d="M11.8898 37.9123L12.5928 38.6152L13.2957 37.9123L12.5928 37.2093L11.8898 37.9123Z" fill="#231F20"/>
<path d="M6.73323 6.63494L6.03027 7.33789L6.73323 8.04085L7.43618 7.33789L6.73323 6.63494Z" fill="#231F20"/>
<path opacity="0.8025" d="M8.20418 8.09978L7.50122 8.80273L8.20418 9.50569L8.90713 8.80273L8.20418 8.09978Z" fill="#231F20"/>
<path opacity="0.605" d="M9.64314 9.56267L8.94019 10.2656L9.64314 10.9686L10.3461 10.2656L9.64314 9.56267Z" fill="#231F20"/>
<path opacity="0.4075" d="M11.1141 11.0256L10.4111 11.7285L11.1141 12.4315L11.817 11.7285L11.1141 11.0256Z" fill="#231F20"/>
<path opacity="0.21" d="M12.5841 12.4885L11.8811 13.1914L12.5841 13.8944L13.287 13.1914L12.5841 12.4885Z" fill="#231F20"/>
<path d="M20.6104 19.2734H29.0227V31.2816H26.5981V21.3048H22.9858V26.4325C22.9858 27.9014 22.9367 28.928 22.8384 29.5123C22.7401 30.0912 22.4998 30.5444 22.1176 30.8721C21.7408 31.1942 21.1483 31.3553 20.3401 31.3553C20.0562 31.3553 19.5401 31.328 18.792 31.2734V29.3977L19.3326 29.4059C19.8405 29.4059 20.1818 29.3376 20.3565 29.2011C20.5312 29.0646 20.6186 28.7287 20.6186 28.1936L20.6104 26.1294V19.2734Z" fill="#D16A16"/>
</g>
<defs>
<clipPath id="clip0">
<rect width="49.8877" height="49.8877" fill="white" transform="translate(0 0.603516)"/>
</clipPath>
</defs>
</svg>
