<svg width="50" height="51" viewBox="0 0 50 51" fill="none" xmlns="http://www.w3.org/2000/svg">
<g clip-path="url(#clip0)">
<path d="M24.9442 41.8854C16.0421 41.8854 8.81201 34.6553 8.81201 25.7533C8.81201 16.8512 16.0421 9.62109 24.9442 9.62109C33.8462 9.62109 41.0763 16.8512 41.0763 25.7533C41.0763 34.6553 33.8462 41.8854 24.9442 41.8854ZM24.9442 9.80185C16.1551 9.80185 8.99276 16.9642 8.99276 25.7533C8.99276 34.5423 16.1551 41.7047 24.9442 41.7047C33.7333 41.7047 40.8956 34.5423 40.8956 25.7533C40.8956 16.9642 33.7333 9.80185 24.9442 9.80185Z" fill="#231F20"/>
<path d="M47.6066 3.09375L43.1104 4.29123L46.4091 7.58997L47.6066 3.09375L43.1104 4.29123L46.4091 7.58997L47.6066 3.09375Z" fill="#414042"/>
<path d="M47.6066 48.4181L46.4091 43.9219L43.1104 47.2206L47.6066 48.4181L46.4091 43.9219L43.1104 47.2206L47.6066 48.4181Z" fill="#414042"/>
<path d="M2.28296 48.4181L6.77918 47.2206L3.48044 43.9219L2.28296 48.4181L6.77918 47.2206L3.48044 43.9219L2.28296 48.4181Z" fill="#414042"/>
<path d="M2.28271 3.09375L3.4802 7.58997L6.77893 4.29123L2.28271 3.09375L3.4802 7.58997L6.77893 4.29123L2.28271 3.09375Z" fill="#414042"/>
<path d="M27.1578 3.70174C27.4515 3.65655 27.6774 3.38543 27.6774 3.0917L38.5 1.12602L49.5711 12.1971L47.6054 23.0197C47.3116 23.0423 47.0405 23.2456 46.9953 23.5393C46.9276 23.9008 47.1535 24.2397 47.515 24.2849C47.8765 24.3527 48.2154 24.1268 48.2606 23.7653C48.3058 23.4715 48.1476 23.1778 47.8765 23.0648L49.8648 12.0841L38.5678 0.787109L27.587 2.77539C27.4741 2.50426 27.1804 2.3461 26.8866 2.39129C26.5251 2.45907 26.2992 2.79798 26.367 3.13689C26.4573 3.52099 26.7963 3.76952 27.1578 3.70174Z" fill="#414042"/>
<path d="M48.2833 27.7191C48.2155 27.3576 47.8766 27.1317 47.5377 27.1995C47.1762 27.2673 46.9502 27.6062 47.018 27.9451C47.0632 28.2388 47.3343 28.4648 47.6281 28.4648L49.5937 39.2873L38.5227 50.3584L27.7001 48.3927C27.6775 48.099 27.4742 47.8279 27.1804 47.7827C26.8189 47.7149 26.48 47.9408 26.4348 48.3023C26.3671 48.6638 26.593 49.0028 26.9545 49.0479C27.2482 49.0931 27.5419 48.935 27.6549 48.6638L38.6356 50.6521L49.8649 39.4229L49.9101 39.3777L47.9218 28.397C48.1703 28.3292 48.3285 28.0355 48.2833 27.7191Z" fill="#414042"/>
<path d="M22.7522 47.8061C22.4585 47.8513 22.2326 48.1224 22.2326 48.4162L11.41 50.3818L0.338911 39.3107L2.30459 28.4882C2.59832 28.4656 2.86944 28.2622 2.91463 27.9685C2.98242 27.607 2.75647 27.2681 2.39497 27.2229C2.03347 27.1551 1.69455 27.3811 1.64937 27.7426C1.60418 28.0363 1.76234 28.33 2.03346 28.443L0 39.4237L11.2292 50.653L11.2744 50.6982L22.2551 48.7099C22.3681 48.981 22.6618 49.1392 22.9556 49.094C23.3171 49.0262 23.543 48.6873 23.4752 48.3484C23.43 47.9869 23.0911 47.7383 22.7522 47.8061Z" fill="#414042"/>
<path d="M22.9782 2.43732C22.6844 2.39213 22.3907 2.55029 22.2777 2.82142L11.297 0.810547L0 12.1076L1.98828 23.0883C1.71715 23.2013 1.55899 23.495 1.60418 23.7887C1.67196 24.1502 2.01087 24.3761 2.34978 24.3084C2.71129 24.2406 2.93723 23.9017 2.86945 23.5628C2.82426 23.269 2.55313 23.0431 2.25941 23.0431L0.316317 12.198L11.3874 1.12686L22.21 3.09255C22.2326 3.38627 22.4359 3.6574 22.7296 3.70259C23.0911 3.77037 23.43 3.54443 23.4752 3.18292C23.5656 2.82142 23.3171 2.48251 22.9782 2.43732Z" fill="#414042"/>
<path d="M43.8602 7.54084L43.1572 6.83789L42.4543 7.54085L43.1572 8.2438L43.8602 7.54084Z" fill="#231F20"/>
<path opacity="0.8025" d="M41.6915 8.31267L40.9885 9.01562L41.6915 9.71858L42.3944 9.01563L41.6915 8.31267Z" fill="#231F20"/>
<path opacity="0.605" d="M40.2127 9.76775L39.5098 10.4707L40.2127 11.1737L40.9157 10.4707L40.2127 9.76775Z" fill="#231F20"/>
<path opacity="0.4075" d="M38.7647 11.2209L38.0618 11.9238L38.7647 12.6268L39.4677 11.9238L38.7647 11.2209Z" fill="#231F20"/>
<path opacity="0.21" d="M38.0094 13.3944L37.3064 12.6914L36.6034 13.3944L37.3064 14.0973L38.0094 13.3944Z" fill="#231F20"/>
<path d="M43.1628 44.6678L43.8657 43.9648L43.1628 43.2619L42.4598 43.9648L43.1628 44.6678Z" fill="#231F20"/>
<path opacity="0.8025" d="M41.6834 41.797L40.9805 42.5L41.6834 43.203L42.3864 42.5L41.6834 41.797Z" fill="#231F20"/>
<path opacity="0.605" d="M40.2125 40.3361L39.5095 41.0391L40.2125 41.742L40.9154 41.0391L40.2125 40.3361Z" fill="#231F20"/>
<path opacity="0.4075" d="M38.7742 38.8752L38.0713 39.5781L38.7742 40.2811L39.4772 39.5781L38.7742 38.8752Z" fill="#231F20"/>
<path opacity="0.21" d="M37.3058 38.8182L38.0088 38.1152L37.3058 37.4123L36.6029 38.1152L37.3058 38.8182Z" fill="#231F20"/>
<path d="M6.03264 43.9709L6.7356 44.6738L7.43855 43.9709L6.73559 43.2679L6.03264 43.9709Z" fill="#231F20"/>
<path opacity="0.8025" d="M8.19466 41.7912L7.4917 42.4941L8.19465 43.1971L8.89761 42.4941L8.19466 41.7912Z" fill="#231F20"/>
<path opacity="0.605" d="M9.64265 40.3381L8.9397 41.041L9.64265 41.744L10.3456 41.041L9.64265 40.3381Z" fill="#231F20"/>
<path opacity="0.4075" d="M11.1224 38.881L10.4194 39.584L11.1224 40.2869L11.8253 39.584L11.1224 38.881Z" fill="#231F20"/>
<path opacity="0.21" d="M11.8898 38.1174L12.5928 38.8203L13.2957 38.1174L12.5928 37.4144L11.8898 38.1174Z" fill="#231F20"/>
<path d="M6.73323 6.84197L6.03027 7.54492L6.73323 8.24788L7.43618 7.54492L6.73323 6.84197Z" fill="#231F20"/>
<path opacity="0.8025" d="M8.20418 8.30681L7.50122 9.00977L8.20418 9.71272L8.90713 9.00977L8.20418 8.30681Z" fill="#231F20"/>
<path opacity="0.605" d="M9.64314 9.7697L8.94019 10.4727L9.64314 11.1756L10.3461 10.4727L9.64314 9.7697Z" fill="#231F20"/>
<path opacity="0.4075" d="M11.1141 11.2326L10.4111 11.9355L11.1141 12.6385L11.817 11.9355L11.1141 11.2326Z" fill="#231F20"/>
<path opacity="0.21" d="M12.5841 12.6955L11.8811 13.3984L12.5841 14.1014L13.287 13.3984L12.5841 12.6955Z" fill="#231F20"/>
<path d="M20.4707 31.4887V19.4805H22.8953V24.2067H27.6461V19.4805H30.0707V31.4887H27.6461V26.2381H22.8953V31.4887H20.4707Z" fill="#D16A16"/>
</g>
<defs>
<clipPath id="clip0">
<rect width="49.8877" height="49.8877" fill="white" transform="translate(0 0.808594)"/>
</clipPath>
</defs>
</svg>
