<svg width="86" height="86" viewBox="0 0 86 86" fill="none" xmlns="http://www.w3.org/2000/svg">
<path d="M78.2852 26.6708C79.1231 25.4721 79.6172 24.0155 79.6172 22.4454V20.2552C80.2608 20.0197 80.7215 19.4035 80.7215 18.6785V18.1582C80.7215 13.4741 76.9107 9.66333 72.2266 9.66333C67.5425 9.66333 63.7317 13.4741 63.7317 18.1582V18.6785C63.7317 19.4035 64.1923 20.0197 64.8359 20.2552V22.4454C64.8359 24.0155 65.3293 25.4721 66.1679 26.6708C61.9582 27.533 58.7399 31.1436 58.4728 35.539H48.7109C47.7832 35.539 47.0312 36.291 47.0312 37.2187V47.6328H40.2174V37.2187C40.2174 36.291 39.4648 35.539 38.5377 35.539H26.4439C25.5162 35.539 24.7642 36.291 24.7642 37.2187V47.6328H18.7174V25.2221L30.4253 13.5141L38.2398 21.328C38.8625 21.9513 39.6065 22.3817 40.3965 22.6205V25.457L36.8855 28.9679C36.5706 29.2829 36.3934 29.71 36.3934 30.1555V33.2577C36.3934 34.1848 37.146 34.9374 38.0731 34.9374C39.0009 34.9374 39.7528 34.1848 39.7528 33.2577V30.8517L42.0762 28.5283L44.3995 30.8517V33.0057C44.3995 33.9335 45.1521 34.6854 46.0792 34.6854C47.007 34.6854 47.7589 33.9335 47.7589 33.0057V30.1555C47.7589 29.71 47.5817 29.2829 47.2668 28.9679L43.7559 25.457V22.5018C44.4172 22.2498 45.0373 21.8594 45.5694 21.328C46.5483 20.349 47.0877 19.0473 47.0877 17.6628C47.0877 16.2784 46.5483 14.9773 45.5694 13.9984L33.3792 1.80751C33.3759 1.80489 33.3726 1.80226 33.37 1.79964C30.9587 -0.596542 27.0476 -0.591949 24.6415 1.81276L9.76909 16.6852C6.31523 17.3591 3.69925 20.4061 3.69925 24.0548V32.7538C3.69925 33.6809 4.45183 34.4335 5.37894 34.4335C6.3067 34.4335 7.05862 33.6809 7.05862 32.7538V30.3084C8.24818 31.101 9.67526 31.5636 11.208 31.5636C12.7413 31.5636 14.1684 31.101 15.358 30.3084V48.2332C15.2786 48.2666 15.2012 48.3027 15.1231 48.3388C13.8719 47.8723 12.557 47.6328 11.208 47.6328C9.74219 47.6328 8.34267 47.9182 7.05862 48.432V45.1828C7.05862 44.2557 6.3067 43.5031 5.37894 43.5031C4.45117 43.5031 3.69925 44.2557 3.69925 45.1828V50.527C1.42905 52.58 0 55.5463 0 58.8408V84.3202C0 85.2473 0.751923 85.9999 1.67969 85.9999H78.2734C79.2005 85.9999 79.9531 85.2473 79.9531 84.3202V56.3016C83.3256 56.0726 86 53.2571 86 49.8269V36.1296C86 31.4704 82.6826 27.571 78.2852 26.6708ZM72.136 26.4746C69.955 26.4261 68.1953 24.6381 68.1953 22.4454V20.3582H76.2578V22.4454C76.2578 24.6381 74.4981 26.4261 72.3171 26.4746H72.136ZM77.2302 16.9988H73.9062V13.3055C75.5584 13.8796 76.8306 15.2739 77.2302 16.9988ZM70.5469 13.3055V16.9988H67.2229C67.6225 15.2739 68.8947 13.8796 70.5469 13.3055ZM69.3711 50.9922C71.6866 50.9922 73.5703 52.8759 73.5703 55.1914C73.5703 57.5069 71.6866 59.3906 69.3711 59.3906H18.3086C15.9931 59.3906 14.1094 57.5069 14.1094 55.1914C14.1094 52.8759 15.9931 50.9922 18.3086 50.9922H69.3711ZM67.8594 62.75H69.3711C69.7713 62.75 70.1637 62.7178 70.5469 62.6581V82.6405H67.8594V62.75ZM10.8392 56.3508C11.0781 57.8992 11.7906 59.2928 12.8214 60.3814C12.3923 60.7868 11.8195 61.0217 11.208 61.0217C9.91147 61.0217 8.85641 59.9673 8.85641 58.6702C8.85641 57.4996 9.71725 56.5286 10.8392 56.3508ZM50.3906 38.8984H59.125V47.6328H50.3906V38.8984ZM28.1236 38.8984H36.858V47.6328H28.1236V38.8984ZM24.6658 10.5261C25.3731 11.2328 26.2215 11.7459 27.1479 12.0405L18.1039 21.0845C17.331 19.2979 15.8849 17.8689 14.0858 17.1196L23.1574 8.0486C23.4461 8.95471 23.948 9.80768 24.6658 10.5261ZM43.7283 17.6628C43.7283 18.1497 43.538 18.6077 43.1936 18.9521C42.483 19.6634 41.3256 19.6634 40.615 18.9521L32.8005 11.1383L33.3844 10.555C34.0898 9.84901 34.6022 9.00195 34.8988 8.07812L43.1936 16.3736C43.538 16.718 43.7283 17.176 43.7283 17.6628ZM31.0086 4.1886C31.542 4.72137 31.8353 5.42999 31.8353 6.18388C31.8353 6.87085 31.5893 7.51845 31.1431 8.03154C31.0978 8.06828 31.0532 8.10765 31.0106 8.1503C29.9162 9.24472 28.1354 9.24472 27.041 8.1503C25.9472 7.05588 25.9472 5.2758 27.041 4.18138C27.0666 4.15579 27.0896 4.12889 27.1132 4.10199C28.2194 3.09221 29.9391 3.11845 31.0086 4.1886ZM11.208 28.2042C8.92006 28.2042 7.05862 26.3428 7.05862 24.0548C7.05862 21.7663 8.92006 19.9048 11.208 19.9048C13.4966 19.9048 15.358 21.7663 15.358 24.0548C15.358 26.3428 13.4966 28.2042 11.208 28.2042ZM3.35938 58.8408C3.35938 54.5129 6.88016 50.9922 11.208 50.9922C11.475 50.9922 11.7394 51.0059 12.0012 51.0322C11.6102 51.6234 11.2992 52.2716 11.0859 52.9625C7.99295 53.0281 5.49704 55.5621 5.49704 58.6702C5.49704 61.8196 8.05922 64.3811 11.208 64.3811C12.9572 64.3811 14.5752 63.5911 15.6467 62.2644C16.4754 62.5774 17.3723 62.75 18.3086 62.75H19.0572V82.6398H3.35938V58.8408ZM64.5 82.6405H22.4166V70.8125H42.0762C43.0039 70.8125 43.7559 70.0599 43.7559 69.1328C43.7559 68.205 43.0039 67.4531 42.0762 67.4531H22.4166V62.75H64.5V82.6405ZM73.9062 82.6405V61.2343C75.164 60.2875 76.1181 58.9589 76.5938 57.4216V82.6405H73.9062ZM82.6406 49.8269C82.6406 51.4029 81.4694 52.7073 79.9531 52.9245V38.6432C79.9531 37.7154 79.2012 36.9635 78.2734 36.9635C77.3457 36.9635 76.5938 37.7154 76.5938 38.6432V49.071V49.0743V52.9612C75.6397 49.8787 72.7626 47.6328 69.3711 47.6328H67.8594V38.6432C67.8594 37.7154 67.1075 36.9635 66.1797 36.9635C65.2519 36.9635 64.5 37.7154 64.5 38.6432V47.6328H62.4844V37.2187C62.4844 36.6728 62.2226 36.1886 61.8191 35.8822C61.9496 32.5248 64.7198 29.834 68.1087 29.834H72.136C72.1662 29.834 72.1964 29.836 72.2266 29.836C72.2574 29.836 72.2869 29.8347 72.3171 29.834H76.3451C79.8167 29.834 82.6406 32.658 82.6406 36.1296V49.8269Z" fill="white"/>
<path d="M5.37842 48.2129C5.81999 48.2129 6.25369 48.0331 6.56601 47.7201C6.8803 47.4078 7.05811 46.9748 7.05811 46.5332C7.05811 46.091 6.8803 45.6579 6.56601 45.3456C6.25369 45.0326 5.82196 44.8535 5.37842 44.8535C4.93684 44.8535 4.50314 45.0326 4.19083 45.3456C3.87851 45.6579 3.69873 46.091 3.69873 46.5332C3.69873 46.9748 3.87851 47.4078 4.19083 47.7201C4.50314 48.0331 4.93684 48.2129 5.37842 48.2129Z" fill="white"/>
<path d="M11.209 76C10.7654 76 10.3337 76.1798 10.0214 76.4921C9.70908 76.8051 9.5293 77.2381 9.5293 77.6797C9.5293 78.1232 9.70908 78.555 10.0214 78.8673C10.3337 79.1796 10.7654 79.3594 11.209 79.3594C11.6506 79.3594 12.0836 79.1796 12.3966 78.8673C12.7089 78.555 12.8887 78.1219 12.8887 77.6797C12.8887 77.2381 12.7089 76.8051 12.3966 76.4921C12.0836 76.1798 11.6506 76 11.209 76Z" fill="white"/>
<path d="M27.8375 79.0274C28.1511 79.3398 28.5828 79.5195 29.0251 79.5195C29.4679 79.5195 29.8997 79.3398 30.214 79.0274C30.5263 78.7151 30.7061 78.2821 30.7061 77.8398C30.7061 77.3983 30.5263 76.9652 30.214 76.6523C29.8997 76.3406 29.4679 76.1602 29.0251 76.1602C28.5828 76.1602 28.1511 76.3399 27.8375 76.6523C27.5251 76.9652 27.3467 77.3983 27.3467 77.8398C27.3467 78.2821 27.5251 78.7151 27.8375 79.0274Z" fill="white"/>
<path d="M42.6797 76C42.2381 76 41.8044 76.1798 41.4921 76.4921C41.1798 76.8051 41 77.2381 41 77.6797C41 78.1213 41.1798 78.555 41.4921 78.8673C41.8044 79.1809 42.2381 79.3594 42.6797 79.3594C43.1213 79.3594 43.555 79.1809 43.8673 78.8673C44.1796 78.555 44.3594 78.1213 44.3594 77.6797C44.3594 77.2381 44.1796 76.8044 43.8673 76.4921C43.555 76.1798 43.1213 76 42.6797 76Z" fill="white"/>
<path d="M35.6797 76C35.2381 76 34.8044 76.1798 34.4921 76.4921C34.1798 76.8051 34 77.2381 34 77.6797C34 78.1232 34.1798 78.555 34.4921 78.8673C34.8044 79.1796 35.2361 79.3594 35.6797 79.3594C36.1213 79.3594 36.555 79.1796 36.8673 78.8673C37.1796 78.555 37.3594 78.1232 37.3594 77.6797C37.3594 77.2381 37.1796 76.8044 36.8673 76.4921C36.555 76.1798 36.1213 76 35.6797 76Z" fill="white"/>
<path d="M19 56C19.2629 56 19.5211 55.8938 19.707 55.707C19.893 55.5211 20 55.2641 20 55C20 54.7371 19.893 54.4789 19.707 54.293C19.5211 54.107 19.2629 54 19 54C18.7371 54 18.4789 54.107 18.293 54.293C18.107 54.4793 18 54.7371 18 55C18 55.2641 18.107 55.5211 18.293 55.707C18.4789 55.8941 18.7371 56 19 56Z" fill="white"/>
<path d="M5.5 37C5.10566 37 4.71836 37.1605 4.43945 37.4395C4.16055 37.7189 4 38.1057 4 38.5C4 38.8943 4.16055 39.2816 4.43945 39.5605C4.71836 39.8406 5.10566 40 5.5 40C5.89434 40 6.28164 39.8406 6.56055 39.5605C6.83945 39.2816 7 38.8961 7 38.5C7 38.1057 6.83945 37.7184 6.56055 37.4395C6.28164 37.1605 5.89434 37 5.5 37Z" fill="white"/>
<path d="M48.6797 76C48.2381 76 47.8044 76.1798 47.4921 76.4921C47.1798 76.8051 47 77.2381 47 77.6797C47 78.1213 47.1798 78.555 47.4921 78.8673C47.8044 79.1809 48.2381 79.3594 48.6797 79.3594C49.1213 79.3594 49.555 79.1809 49.8673 78.8673C50.1796 78.555 50.3594 78.1213 50.3594 77.6797C50.3594 77.2381 50.1796 76.8044 49.8673 76.4921C49.555 76.1798 49.1213 76 48.6797 76Z" fill="white"/>
</svg>
