<svg width="50" height="50" viewBox="0 0 50 50" fill="none" xmlns="http://www.w3.org/2000/svg">
<g clip-path="url(#clip0)">
<path d="M24.9442 41.1862C16.0421 41.1862 8.81201 33.9561 8.81201 25.054C8.81201 16.152 16.0421 8.92188 24.9442 8.92188C33.8462 8.92188 41.0763 16.152 41.0763 25.054C41.0763 33.9561 33.8462 41.1862 24.9442 41.1862ZM24.9442 9.10263C16.1551 9.10263 8.99276 16.2649 8.99276 25.054C8.99276 33.8431 16.1551 41.0054 24.9442 41.0054C33.7333 41.0054 40.8956 33.8431 40.8956 25.054C40.8956 16.2649 33.7333 9.10263 24.9442 9.10263Z" fill="#231F20"/>
<path d="M47.6066 2.39062L43.1104 3.58811L46.4091 6.88684L47.6066 2.39062L43.1104 3.58811L46.4091 6.88684L47.6066 2.39062Z" fill="#414042"/>
<path d="M47.6066 47.713L46.4091 43.2168L43.1104 46.5155L47.6066 47.713L46.4091 43.2168L43.1104 46.5155L47.6066 47.713Z" fill="#414042"/>
<path d="M2.28296 47.713L6.77918 46.5155L3.48044 43.2168L2.28296 47.713L6.77918 46.5155L3.48044 43.2168L2.28296 47.713Z" fill="#414042"/>
<path d="M2.28271 2.39062L3.4802 6.88684L6.77893 3.58811L2.28271 2.39062L3.4802 6.88684L6.77893 3.58811L2.28271 2.39062Z" fill="#414042"/>
<path d="M27.1578 3.00252C27.4515 2.95734 27.6774 2.68621 27.6774 2.39248L38.5 0.426801L49.5711 11.4979L47.6054 22.3204C47.3116 22.343 47.0405 22.5464 46.9953 22.8401C46.9276 23.2016 47.1535 23.5405 47.515 23.5857C47.8765 23.6535 48.2154 23.4275 48.2606 23.066C48.3058 22.7723 48.1476 22.4786 47.8765 22.3656L49.8648 11.3849L38.5678 0.0878906L27.587 2.07617C27.4741 1.80504 27.1804 1.64688 26.8866 1.69207C26.5251 1.75985 26.2992 2.09876 26.367 2.43767C26.4573 2.82177 26.7963 3.07031 27.1578 3.00252Z" fill="#414042"/>
<path d="M48.2833 27.0199C48.2155 26.6584 47.8766 26.4325 47.5377 26.5003C47.1762 26.5681 46.9502 26.907 47.018 27.2459C47.0632 27.5396 47.3343 27.7655 47.6281 27.7655L49.5937 38.5881L38.5227 49.6592L27.7001 47.6935C27.6775 47.3998 27.4742 47.1286 27.1804 47.0835C26.8189 47.0157 26.48 47.2416 26.4348 47.6031C26.3671 47.9646 26.593 48.3035 26.9545 48.3487C27.2482 48.3939 27.5419 48.2358 27.6549 47.9646L38.6356 49.9529L49.8649 38.7236L49.9101 38.6785L47.9218 27.6978C48.1703 27.63 48.3285 27.3362 48.2833 27.0199Z" fill="#414042"/>
<path d="M22.7522 47.1049C22.4585 47.1501 22.2326 47.4213 22.2326 47.715L11.41 49.6807L0.338911 38.6096L2.30459 27.787C2.59832 27.7644 2.86944 27.5611 2.91463 27.2674C2.98242 26.9059 2.75647 26.5669 2.39497 26.5218C2.03347 26.454 1.69455 26.6799 1.64937 27.0414C1.60418 27.3351 1.76234 27.6289 2.03346 27.7418L0 38.7225L11.2292 49.9518L11.2744 49.997L22.2551 48.0087C22.3681 48.2798 22.6618 48.438 22.9556 48.3928C23.3171 48.325 23.543 47.9861 23.4752 47.6472C23.43 47.2857 23.0911 47.0372 22.7522 47.1049Z" fill="#414042"/>
<path d="M22.9782 1.7381C22.6844 1.69291 22.3907 1.85107 22.2777 2.1222L11.297 0.111328L0 11.4084L1.98828 22.3891C1.71715 22.502 1.55899 22.7958 1.60418 23.0895C1.67196 23.451 2.01087 23.6769 2.34978 23.6091C2.71129 23.5414 2.93723 23.2025 2.86945 22.8635C2.82426 22.5698 2.55313 22.3439 2.25941 22.3439L0.316317 11.4987L11.3874 0.427645L22.21 2.39333C22.2326 2.68705 22.4359 2.95818 22.7296 3.00337C23.0911 3.07115 23.43 2.84521 23.4752 2.4837C23.5656 2.1222 23.3171 1.78329 22.9782 1.7381Z" fill="#414042"/>
<path d="M43.8592 6.84163L43.1562 6.13867L42.4533 6.84163L43.1562 7.54458L43.8592 6.84163Z" fill="#231F20"/>
<path opacity="0.8025" d="M41.6905 7.61345L40.9875 8.31641L41.6905 9.01936L42.3935 8.31641L41.6905 7.61345Z" fill="#231F20"/>
<path opacity="0.605" d="M40.2117 9.06853L39.5088 9.77148L40.2117 10.4744L40.9147 9.77149L40.2117 9.06853Z" fill="#231F20"/>
<path opacity="0.4075" d="M38.7637 10.5217L38.0608 11.2246L38.7637 11.9276L39.4667 11.2246L38.7637 10.5217Z" fill="#231F20"/>
<path opacity="0.21" d="M38.0084 12.6951L37.3054 11.9922L36.6025 12.6951L37.3054 13.3981L38.0084 12.6951Z" fill="#231F20"/>
<path d="M43.1628 43.9705L43.8657 43.2676L43.1628 42.5646L42.4598 43.2676L43.1628 43.9705Z" fill="#231F20"/>
<path opacity="0.8025" d="M41.6834 41.0998L40.9805 41.8027L41.6834 42.5057L42.3864 41.8027L41.6834 41.0998Z" fill="#231F20"/>
<path opacity="0.605" d="M40.2125 39.6388L39.5095 40.3418L40.2125 41.0447L40.9154 40.3418L40.2125 39.6388Z" fill="#231F20"/>
<path opacity="0.4075" d="M38.7742 38.1779L38.0713 38.8809L38.7742 39.5838L39.4772 38.8809L38.7742 38.1779Z" fill="#231F20"/>
<path opacity="0.21" d="M37.3058 38.1209L38.0088 37.418L37.3058 36.715L36.6029 37.418L37.3058 38.1209Z" fill="#231F20"/>
<path d="M6.03264 43.2736L6.7356 43.9766L7.43855 43.2736L6.73559 42.5707L6.03264 43.2736Z" fill="#231F20"/>
<path opacity="0.8025" d="M8.19466 41.0939L7.4917 41.7969L8.19465 42.4998L8.89761 41.7969L8.19466 41.0939Z" fill="#231F20"/>
<path opacity="0.605" d="M9.64265 39.6408L8.9397 40.3438L9.64265 41.0467L10.3456 40.3437L9.64265 39.6408Z" fill="#231F20"/>
<path opacity="0.4075" d="M11.1224 38.1838L10.4194 38.8867L11.1224 39.5897L11.8253 38.8867L11.1224 38.1838Z" fill="#231F20"/>
<path opacity="0.21" d="M11.8898 37.4201L12.5928 38.123L13.2957 37.4201L12.5928 36.7171L11.8898 37.4201Z" fill="#231F20"/>
<path d="M6.73372 6.14275L6.03076 6.8457L6.73372 7.54866L7.43667 6.8457L6.73372 6.14275Z" fill="#231F20"/>
<path opacity="0.8025" d="M8.20467 7.60759L7.50171 8.31055L8.20467 9.0135L8.90762 8.31055L8.20467 7.60759Z" fill="#231F20"/>
<path opacity="0.605" d="M9.64363 9.07048L8.94067 9.77344L9.64363 10.4764L10.3466 9.77344L9.64363 9.07048Z" fill="#231F20"/>
<path opacity="0.4075" d="M11.1146 10.5334L10.4116 11.2363L11.1146 11.9393L11.8175 11.2363L11.1146 10.5334Z" fill="#231F20"/>
<path opacity="0.21" d="M12.5845 11.9963L11.8816 12.6992L12.5845 13.4022L13.2875 12.6992L12.5845 11.9963Z" fill="#231F20"/>
<path d="M23.8786 30.7894V20.8126H20.3154V18.7812H29.8581V20.8126H26.3031V30.7894H23.8786Z" fill="#D16A16"/>
</g>
<defs>
<clipPath id="clip0">
<rect width="49.8877" height="49.8877" fill="white" transform="translate(0 0.111328)"/>
</clipPath>
</defs>
</svg>
